<?xml version="1.0" encoding="UTF-8"?>
<svg width="103px" height="90px" viewBox="0 0 103 90" version="1.1" xmlns="http://www.w3.org/2000/svg" xmlns:xlink="http://www.w3.org/1999/xlink">
    <!-- Generator: Sketch 45.2 (43514) - http://www.bohemiancoding.com/sketch -->
    <title>noun_1197506_cc</title>
    <desc>Created with Sketch.</desc>
    <defs></defs>
    <g id="Page-1" stroke="none" stroke-width="1" fill="none" fill-rule="evenodd" fill-opacity="0.666185462">
        <g id="Creation-Page" transform="translate(-175.000000, -203.000000)" fill="#F8E71C">
            <g id="noun_1197506_cc" transform="translate(175.000000, 203.000000)">
                <g id="Group" transform="translate(0.460369, 0.000000)">
                    <path d="M101.875364,34.1216001 C101.531129,32.9971874 100.525964,32.2331634 99.3831053,32.2331634 L68.9114587,32.2331634 L59.4932001,1.88843668 C59.1489655,0.764023999 58.1438005,0 57.0009416,0 C55.8580827,0 54.8666871,0.764023999 54.5086831,1.88843668 L45.0904245,32.2331634 L14.6187779,32.2331634 C13.4896884,32.2331634 12.4845234,32.9971874 12.1265194,34.1216001 C11.7822848,35.2460128 12.1540582,36.4857498 13.0766069,37.1776961 L37.7375735,55.9323229 L28.3193149,86.2770497 C27.9750803,87.4014624 28.3468536,88.6411994 29.2694024,89.3331457 C30.1919511,90.025092 31.4311956,90.025092 32.339975,89.3331457 L57.0009416,70.5785189 L81.6481388,89.3331457 C82.1025285,89.6791188 82.6395345,89.8521054 83.1903098,89.8521054 C83.7410852,89.8521054 84.2643218,89.6791188 84.7324808,89.3331457 C85.6550295,88.6411994 86.0268029,87.4014624 85.6825683,86.2770497 L76.2643097,55.9323229 L100.925276,37.1776961 C101.834056,36.4857498 102.219598,35.2604283 101.875364,34.1216001 Z" id="Path"></path>
                    <path d="M102.293748,7.38599138 C101.945857,6.26950431 100.930017,5.51086566 99.7750201,5.51086566 L96.1152111,5.51086566 L94.9880456,1.93238147 C94.640155,0.815894397 93.6243145,0.0572557471 92.4693178,0.0572557471 C91.3282366,0.0572557471 90.3123961,0.815894397 89.9505899,1.93238147 L88.8234244,5.51086566 L85.1636154,5.51086566 C84.0225343,5.51086566 83.0066938,6.26950431 82.6448876,7.38599138 C82.296997,8.50247845 82.6727188,9.73347701 83.6050656,10.420546 L86.5551778,12.6248922 L85.4280123,16.2033764 C85.0801217,17.3198635 85.4558435,18.5508621 86.3881903,19.237931 C87.3205371,19.925 88.5729432,19.925 89.4913743,19.237931 L92.4414865,17.0335848 L95.3915987,19.237931 C95.8508142,19.5814655 96.3935236,19.7532328 96.9501485,19.7532328 C97.4928578,19.7532328 98.0355671,19.5814655 98.5086983,19.237931 C99.4410451,18.5508621 99.8167669,17.3198635 99.4688763,16.2033764 L98.3417108,12.6248922 L101.291823,10.420546 C102.265917,9.73347701 102.655554,8.50247845 102.293748,7.38599138 Z" id="Shape" fill-rule="nonzero"></path>
                    <path d="M17.3388668,63.1387752 L13.6790578,63.1387752 L12.5518923,59.560291 C12.2040018,58.4438039 11.1881612,57.6851652 10.0331645,57.6851652 C8.89208338,57.6851652 7.87624287,58.4438039 7.51443666,59.560291 L6.38727116,63.1387752 L2.72746219,63.1387752 C1.58638107,63.1387752 0.570540561,63.8974138 0.208734352,65.0139009 C-0.139156234,66.1303879 0.236565598,67.3613865 1.16891237,68.0484555 L4.11902454,70.2528017 L2.99185904,73.8312859 C2.64396845,74.947773 3.01969029,76.1787716 3.95203706,76.8658405 C4.88438383,77.5529095 6.13678994,77.5529095 7.05522108,76.8658405 L10.0053333,74.6614943 L12.9554454,76.8658405 C13.414661,77.209375 13.9573703,77.3811423 14.5139952,77.3811423 C15.0706202,77.3811423 15.5994139,77.209375 16.0725451,76.8658405 C17.0048918,76.1787716 17.3806137,74.947773 17.0327231,73.8312859 L15.9055576,70.2528017 L18.8556698,68.0484555 C19.7880165,67.3613865 20.1637384,66.1303879 19.8158478,65.0139009 C19.4957884,63.8974138 18.4799479,63.1387752 17.3388668,63.1387752 Z" id="Shape" fill-rule="nonzero"></path>
                </g>
            </g>
        </g>
    </g>
</svg>