<?xml version="1.0" encoding="UTF-8"?>
<svg width="232px" height="146px" viewBox="0 0 232 146" version="1.1" xmlns="http://www.w3.org/2000/svg" xmlns:xlink="http://www.w3.org/1999/xlink">
    <!-- Generator: Sketch 63.1 (92452) - https://sketch.com -->
    <title>Group</title>
    <desc>Created with Sketch.</desc>
    <defs>
        <linearGradient x1="50%" y1="0%" x2="50%" y2="100%" id="linearGradient-1">
            <stop stop-color="#A4D977" offset="0%"></stop>
            <stop stop-color="#6BB142" offset="100%"></stop>
        </linearGradient>
        <linearGradient x1="50%" y1="0%" x2="50%" y2="100%" id="linearGradient-2">
            <stop stop-color="#A4D977" offset="0%"></stop>
            <stop stop-color="#6BB142" offset="100%"></stop>
        </linearGradient>
    </defs>
    <g id="Page-1" stroke="none" stroke-width="1" fill="none" fill-rule="evenodd">
        <g id="Group" fill-rule="nonzero">
            <path d="M51.1038359,4.29471695 C49.6363168,2.17668463 47.1904516,1 44.5,1 C41.8095484,1 39.3636832,2.17668463 37.8961641,4.29471695 L1.45277371,53.7154712 C-0.259331878,56.0688405 -0.503918391,59.1282205 0.963600687,61.9522636 C2.43111976,64.5409698 5.12157141,66.1883283 8.30119608,66.1883283 L28.6018767,66.1883283 L33.0044339,135.612721 C33.2490204,141.260807 37.8961641,145.732209 43.7662405,145.967546 C50.1254898,146.43822 55.7509796,141.731481 55.9955661,135.612721 L60.3981233,65.9529913 L80.6988039,65.9529913 C83.6338421,65.9529913 86.5688802,64.3056329 88.0363993,61.7169267 C89.5039184,59.1282205 89.2593319,56.0688405 87.5472263,53.4801343 L51.1038359,4.29471695 Z" id="Path" fill="url(#linearGradient-1)"></path>
            <path d="M225.9,0 L116.1,0 C112.684,0 110,2.62686567 110,5.97014925 L110,26.0298507 C110,29.3731343 112.684,32 116.1,32 L225.9,32 C229.316,32 232,29.3731343 232,26.0298507 L232,5.97014925 C232,2.62686567 229.316,0 225.9,0 Z" id="Path" fill="url(#linearGradient-2)"></path>
            <path d="M225.9,57 L116.1,57 C112.684,57 110,59.6268657 110,62.9701493 L110,83.0298507 C110,86.3731343 112.684,89 116.1,89 L225.9,89 C229.316,89 232,86.3731343 232,83.0298507 L232,62.9701493 C232,59.6268657 229.316,57 225.9,57 Z" id="Path" fill="url(#linearGradient-2)"></path>
            <path d="M225.9,114 L116.1,114 C112.684,114 110,116.626866 110,119.970149 L110,140.029851 C110,143.373134 112.684,146 116.1,146 L225.9,146 C229.316,146 232,143.373134 232,140.029851 L232,119.970149 C232,116.626866 229.316,114 225.9,114 Z" id="Path" fill="url(#linearGradient-2)"></path>
        </g>
    </g>
</svg>