<?xml version="1.0" encoding="UTF-8"?>
<svg width="121px" height="79px" viewBox="0 0 121 79" version="1.1" xmlns="http://www.w3.org/2000/svg" xmlns:xlink="http://www.w3.org/1999/xlink">
    <!-- Generator: Sketch 45.2 (43514) - http://www.bohemiancoding.com/sketch -->
    <title>noun_1197508_cc</title>
    <desc>Created with Sketch.</desc>
    <defs></defs>
    <g id="Page-1" stroke="none" stroke-width="1" fill="none" fill-rule="evenodd">
        <g id="Creation-Page" transform="translate(-306.000000, -190.000000)" fill-rule="nonzero" fill="#7ED321">
            <g id="noun_1197508_cc" transform="translate(306.000000, 190.000000)">
                <g id="Group" transform="translate(0.241445, 0.000000)">
                    <path d="M120.130746,29.9411949 C119.82894,28.9553726 118.947667,28.2855189 117.945672,28.2855189 L91.2298306,28.2855189 L82.9724263,1.68095354 C82.6706206,0.695131161 81.7893479,0.0252774968 80.787353,0.0252774968 C79.785358,0.0252774968 78.9161576,0.695131161 78.6022796,1.68095354 L70.3448753,28.2855189 L43.6290337,28.2855189 C42.639111,28.2855189 41.7578383,28.9553726 41.4439604,29.9411949 C41.1421547,30.9270173 41.4681048,32.0139497 42.2769441,32.6206096 L63.8983053,49.0636212 L55.6409011,75.6681866 C55.3390953,76.654009 55.6650455,77.7409413 56.4738848,78.3476012 C57.2827241,78.9542612 58.3692247,78.9542612 59.1659918,78.3476012 L80.787353,61.9045896 L102.396642,78.3476012 C102.795025,78.6509312 103.265842,78.8025962 103.748732,78.8025962 C104.231621,78.8025962 104.690365,78.6509312 105.100821,78.3476012 C105.90966,77.7409413 106.235611,76.654009 105.933805,75.6681866 L97.6764006,49.0636212 L119.297762,32.6206096 C120.094529,32.0139497 120.432551,30.9396561 120.130746,29.9411949 Z" id="Shape"></path>
                    <path d="M39.0415869,4.82800188 L67.0250125,4.82800188 C68.2925965,4.82800188 69.3187359,3.75370827 69.3187359,2.42663969 C69.3187359,1.09957111 68.2925965,0.0252774968 67.0250125,0.0252774968 L39.0415869,0.0252774968 C37.7740029,0.0252774968 36.7478635,1.09957111 36.7478635,2.42663969 C36.7478635,3.75370827 37.7740029,4.82800188 39.0415869,4.82800188 Z" id="Shape"></path>
                    <path d="M32.5708724,30.7374361 C32.5708724,29.4103675 31.544733,28.3360739 30.277149,28.3360739 L2.29372341,28.3360739 C1.02613942,28.3360739 0,29.4103675 0,30.7374361 C0,32.0645047 1.02613942,33.1387983 2.29372341,33.1387983 L30.277149,33.1387983 C31.544733,33.1387983 32.5708724,32.0645047 32.5708724,30.7374361 Z" id="Shape"></path>
                    <path d="M44.4258008,74.0125106 L16.4423752,74.0125106 C15.1747912,74.0125106 14.1486518,75.0868042 14.1486518,76.4138727 C14.1486518,77.7409413 15.1747912,78.8152349 16.4423752,78.8152349 L44.4258008,78.8152349 C45.6933848,78.8152349 46.7195242,77.7409413 46.7195242,76.4138727 C46.7195242,75.0868042 45.6813126,74.0125106 44.4258008,74.0125106 Z" id="Shape"></path>
                    <path d="M51.9105825,45.9797666 L23.9271568,45.9797666 C22.6595729,45.9797666 21.6334334,47.0540602 21.6334334,48.3811288 C21.6334334,49.7081974 22.6595729,50.782491 23.9271568,50.782491 L51.9105825,50.782491 C53.1781664,50.782491 54.2043059,49.7081974 54.2043059,48.3811288 C54.2043059,47.0540602 53.1781664,45.9797666 51.9105825,45.9797666 Z" id="Shape"></path>
                    <path d="M33.7901675,18.4778501 L61.7735931,18.4778501 C63.0411771,18.4778501 64.0673165,17.4035565 64.0673165,16.0764879 C64.0673165,14.7494194 63.0411771,13.6751258 61.7735931,13.6751258 L33.7901675,13.6751258 C32.5225835,13.6751258 31.4964441,14.7494194 31.4964441,16.0764879 C31.4964441,17.4035565 32.5225835,18.4778501 33.7901675,18.4778501 Z" id="Shape"></path>
                </g>
            </g>
        </g>
    </g>
</svg>