<?xml version="1.0" encoding="UTF-8"?>
<svg width="32px" height="53px" viewBox="0 0 32 53" version="1.1" xmlns="http://www.w3.org/2000/svg" xmlns:xlink="http://www.w3.org/1999/xlink">
    <!-- Generator: Sketch 45.2 (43514) - http://www.bohemiancoding.com/sketch -->
    <title>Group 5</title>
    <desc>Created with Sketch.</desc>
    <defs>
        <filter x="-29.2%" y="-11.1%" width="158.3%" height="131.1%" filterUnits="objectBoundingBox" id="filter-1">
            <feOffset dx="0" dy="2" in="SourceAlpha" result="shadowOffsetOuter1"></feOffset>
            <feGaussianBlur stdDeviation="2" in="shadowOffsetOuter1" result="shadowBlurOuter1"></feGaussianBlur>
            <feColorMatrix values="0 0 0 0 0   0 0 0 0 0   0 0 0 0 0  0 0 0 0.5 0" type="matrix" in="shadowBlurOuter1" result="shadowMatrixOuter1"></feColorMatrix>
            <feMerge>
                <feMergeNode in="shadowMatrixOuter1"></feMergeNode>
                <feMergeNode in="SourceGraphic"></feMergeNode>
            </feMerge>
        </filter>
    </defs>
    <g id="Page-1" stroke="none" stroke-width="1" fill="none" fill-rule="evenodd" fill-opacity="0.969259511">
        <g id="Creation-Page" transform="translate(-189.000000, -756.000000)" fill="#000000">
            <g id="Screen-Section" transform="translate(180.000000, 751.000000)">
                <g id="Cover" transform="translate(0.000000, 7.000000)">
                    <g id="Cover-Image" filter="url(#filter-1)" transform="translate(13.000000, 0.000000)">
                        <g id="Group-5">
                            <path d="M21.9531849,38.191344 L2.01537435,38.191344 L2.01537435,6.27645156 L21.9531849,6.27645156 L21.9531849,38.191344 Z M7.45688511,3.97316658 C6.8954594,3.97316658 6.44919793,3.52690512 6.44919793,2.96547941 C6.44919793,2.41844922 6.8954594,1.95779223 7.45688511,1.95779223 L16.5116742,1.95779223 C17.0730999,1.95779223 17.5193613,2.41844922 17.5193613,2.96547941 C17.5193613,3.52690512 17.0730999,3.97316658 16.5116742,3.97316658 L7.45688511,3.97316658 Z M19.2036385,0 L4.76492079,0 C3.45492746,0 2.26009838,0.532634651 1.39636652,1.39636652 C0.532634651,2.26009838 0,3.45492746 0,4.76492079 L0,40.0195765 C0,41.3295698 0.532634651,42.5243989 1.39636652,43.3881307 C2.26009838,44.2518626 3.45492746,44.7988928 4.76492079,44.7988928 L19.2036385,44.7988928 C20.5136318,44.7988928 21.7084609,44.2518626 22.5721928,43.3881307 C23.4359246,42.5243989 23.9685593,41.3295698 23.9685593,40.0195765 L23.9685593,4.76492079 C23.9685593,3.45492746 23.4359246,2.26009838 22.5721928,1.39636652 C21.7084609,0.532634651 20.5136318,2.39733751e-15 19.2036385,0 Z M10.4799466,41.3727564 C10.4799466,40.5522111 11.1565366,39.8756211 11.9914774,39.8756211 C12.8264182,39.8756211 13.5030082,40.5522111 13.5030082,41.3727564 C13.5030082,42.2076972 12.8264182,42.8842871 11.9914774,42.8842871 C11.1565366,42.8842871 10.4799466,42.2076972 10.4799466,41.3727564 Z" id="Rectangle-3"></path>
                            <rect id="Path" x="1.21316906" y="16.7271576" width="21.4300732" height="10.695133"></rect>
                        </g>
                    </g>
                </g>
            </g>
        </g>
    </g>
</svg>