<?xml version="1.0" encoding="UTF-8"?>
<svg width="58px" height="53px" viewBox="0 0 58 53" version="1.1" xmlns="http://www.w3.org/2000/svg" xmlns:xlink="http://www.w3.org/1999/xlink">
    <!-- Generator: Sketch 45.2 (43514) - http://www.bohemiancoding.com/sketch -->
    <title>Group</title>
    <desc>Created with Sketch.</desc>
    <defs>
        <filter x="-14.0%" y="-11.1%" width="128.0%" height="131.1%" filterUnits="objectBoundingBox" id="filter-1">
            <feOffset dx="0" dy="2" in="SourceAlpha" result="shadowOffsetOuter1"></feOffset>
            <feGaussianBlur stdDeviation="2" in="shadowOffsetOuter1" result="shadowBlurOuter1"></feGaussianBlur>
            <feColorMatrix values="0 0 0 0 0   0 0 0 0 0   0 0 0 0 0  0 0 0 0.5 0" type="matrix" in="shadowBlurOuter1" result="shadowMatrixOuter1"></feColorMatrix>
            <feMerge>
                <feMergeNode in="shadowMatrixOuter1"></feMergeNode>
                <feMergeNode in="SourceGraphic"></feMergeNode>
            </feMerge>
        </filter>
        <linearGradient x1="50%" y1="0%" x2="50%" y2="100%" id="linearGradient-2">
            <stop stop-color="#B4EC51" offset="0%"></stop>
            <stop stop-color="#429321" offset="100%"></stop>
        </linearGradient>
    </defs>
    <g id="Page-1" stroke="none" stroke-width="1" fill="none" fill-rule="evenodd">
        <g id="Creation-Page" transform="translate(-497.000000, -755.000000)" fill-rule="nonzero" fill="url(#linearGradient-2)">
            <g id="Multimedia-Section" transform="translate(495.000000, 752.000000)">
                <g id="Images" transform="translate(0.000000, 5.000000)">
                    <g id="noun_461171_cc" filter="url(#filter-1)" transform="translate(6.000000, 0.000000)">
                        <g id="Group">
                            <g transform="translate(34.444444, 4.500000)" id="Shape">
                                <path d="M4.44444444,9.96428571 C2.16666667,9.96428571 0.277777778,7.77857143 0.277777778,5.14285714 C0.277777778,2.50714286 2.16666667,0.321428571 4.44444444,0.321428571 C6.72222222,0.321428571 8.61111111,2.50714286 8.61111111,5.14285714 C8.61111111,7.77857143 6.72222222,9.96428571 4.44444444,9.96428571 Z"></path>
                                <path d="M4.44444444,0.642857143 C6.61111111,0.642857143 8.33333333,2.7 8.33333333,5.14285714 C8.33333333,7.58571429 6.55555556,9.64285714 4.44444444,9.64285714 C2.33333333,9.64285714 0.555555556,7.58571429 0.555555556,5.14285714 C0.555555556,2.7 2.27777778,0.642857143 4.44444444,0.642857143 L4.44444444,0.642857143 Z M4.44444444,0 C2,0 0,2.31428571 0,5.14285714 C0,7.97142857 2,10.2857143 4.44444444,10.2857143 C6.88888889,10.2857143 8.88888889,7.97142857 8.88888889,5.14285714 C8.88888889,2.31428571 6.88888889,0 4.44444444,0 L4.44444444,0 Z"></path>
                            </g>
                            <g id="Shape">
                                <path d="M0.277777778,44.6785714 L0.277777778,0.321428571 L49.7222222,0.321428571 L49.7222222,44.6785714 L0.277777778,44.6785714 Z M49.2222222,36.7714286 L49.2222222,0.964285714 L0.888888889,0.964285714 L0.888888889,34.7142857 L16.9444444,14.5285714 L30.4444444,29.9571429 L37.1666667,22.2428571 L49.2222222,36.7714286 Z"></path>
                                <path d="M49.4444444,0.642857143 L49.4444444,0.642857143 L48.9444444,0.642857143 L1.11111111,0.642857143 L0.555555556,0.642857143 L0.555555556,1.28571429 L0.555555556,33.8785714 L0.555555556,35.4857143 L1.5,34.3285714 L16.8888889,14.9785714 L30,29.9571429 L30.3888889,30.4071429 L30.7777778,29.9571429 L37.1666667,22.6928571 L48.5555556,36.3857143 L49.4444444,37.4785714 L49.4444444,44.3571429 L0.555555556,44.3571429 L0.555555556,35.2928571 L0.555555556,0.642857143 L49.4444444,0.642857143 L49.4444444,0.642857143 Z M50,0 L0,0 L0,35.2928571 L0,45 L50,45 L50,37.2857143 L50,0 L50,0 Z M1.11111111,33.8785714 L1.11111111,1.28571429 L48.9444444,1.28571429 L48.9444444,36 L37.1666667,21.8571429 L30.3888889,29.5714286 L16.8888889,14.1428571 L1.11111111,33.8785714 L1.11111111,33.8785714 Z"></path>
                            </g>
                        </g>
                    </g>
                </g>
            </g>
        </g>
    </g>
</svg>