<?xml version="1.0" encoding="UTF-8"?>
<svg width="44px" height="56px" viewBox="0 0 44 56" version="1.1" xmlns="http://www.w3.org/2000/svg" xmlns:xlink="http://www.w3.org/1999/xlink">
    <!-- Generator: Sketch 45.2 (43514) - http://www.bohemiancoding.com/sketch -->
    <title>noun_JSON File_925772</title>
    <desc>Created with Sketch.</desc>
    <defs></defs>
    <g id="Page-1" stroke="none" stroke-width="1" fill="none" fill-rule="evenodd">
        <g id="noun_JSON-File_925772" fill-rule="nonzero" fill="#000000">
            <g id="Group">
                <path d="M28.8,1.5 C27.8,0.5 26.4,0 25,0 L10,0 C4.8,0 0.5,4.3 0.5,9.5 L0.5,46.5 C0.5,51.7 4.8,56 10,56 L34,56 C39.2,56 43.5,51.7 43.5,46.5 L43.5,17.7 C43.5,16.2 42.9,14.7 41.8,13.7 L28.8,1.5 Z M38.2,14.5 L30.6,14.5 C29.2,14.5 28.1,13.4 28.1,12 L28.1,5 L38.2,14.5 Z M40.5,46.5 C40.5,50.1 37.6,53 34,53 L10,53 C6.4,53 3.5,50.1 3.5,46.5 L3.5,9.5 C3.5,5.9 6.4,3 10,3 L25,3 C25,3 25.1,3 25.1,3 L25.1,12 C25.1,15 27.6,17.5 30.6,17.5 L40.5,17.5 C40.5,17.6 40.5,17.7 40.5,17.7 L40.5,46.5 Z" id="Shape"></path>
                <path d="M8.9,35.1 C8.2,35.1 7.7,35.7 7.7,36.3 C7.7,37 8.3,37.5 8.9,37.5 C9.5,37.5 10.1,36.9 10.1,36.3 C10.1,35.6 9.6,35.1 8.9,35.1 Z" id="Shape"></path>
                <path d="M12.9,28.2 C12.3,28.2 11.8,28.7 11.8,29.3 C11.8,29.9 12.3,30.5 12.9,30.5 C13.5,30.5 14.1,30 14.1,29.3 C14.1,28.7 13.6,28.2 12.9,28.2 Z" id="Shape"></path>
                <path d="M11.9,37.3 C11.9,38 11.6,38.3 11.1,38.3 C10.7,38.3 10.5,38.2 10.3,38 L9.8,39.5 C10.3,39.8 10.6,39.9 11.5,39.9 C13.2,39.9 13.9,38.8 13.9,37.3 L13.9,31.1 L11.9,31.1 L11.9,37.3 L11.9,37.3 Z" id="Shape"></path>
                <path d="M17,32.9 C17,32.7 17.3,32.5 17.8,32.5 C18.6,32.5 19.3,32.8 19.6,33.2 L20.4,31.8 C19.7,31.3 18.8,31 17.8,31 C16.1,31 15.1,32 15.1,33.1 C15.1,35.6 18.8,34.8 18.8,35.6 C18.8,35.9 18.6,36 18,36 C17.3,36 16.3,35.6 15.8,35.2 L15,36.6 C15.7,37.2 16.8,37.6 18,37.6 C19.8,37.6 20.8,36.7 20.8,35.5 C20.6,32.9 17,33.6 17,32.9 Z" id="Shape"></path>
                <path d="M24.7,30.9 C22.6,30.9 21.3,32.4 21.3,34.2 C21.3,36 22.6,37.5 24.7,37.5 C26.9,37.5 28.1,36 28.1,34.2 C28.1,32.5 26.8,30.9 24.7,30.9 Z M24.7,35.8 C23.8,35.8 23.3,35.1 23.3,34.3 C23.3,33.5 23.8,32.8 24.7,32.8 C25.6,32.8 26.1,33.5 26.1,34.3 C26,35.1 25.5,35.8 24.7,35.8 Z" id="Shape"></path>
                <path d="M33.3,30.9 C32.2,30.9 31.5,31.4 31.1,31.8 L31.1,31 L29.1,31 L29.1,37.3 L31.1,37.3 L31.1,33.2 C31.3,32.9 31.7,32.6 32.3,32.6 C32.9,32.6 33.3,32.9 33.3,33.6 L33.3,37.2 L35.3,37.2 L35.3,32.8 C35.4,31.8 34.8,30.9 33.3,30.9 Z" id="Shape"></path>
            </g>
        </g>
    </g>
</svg>