<?xml version="1.0" encoding="UTF-8"?>
<svg width="120px" height="126px" viewBox="0 0 120 126" version="1.1" xmlns="http://www.w3.org/2000/svg" xmlns:xlink="http://www.w3.org/1999/xlink">
    <!-- Generator: Sketch 45.2 (43514) - http://www.bohemiancoding.com/sketch -->
    <title>Group</title>
    <desc>Created with Sketch.</desc>
    <defs></defs>
    <g id="Page-1" stroke="none" stroke-width="1" fill="none" fill-rule="evenodd">
        <g id="noun_Magic-Wand_263045" transform="translate(-4.000000, 0.000000)" fill-rule="nonzero" fill="#ffffff">
            <g id="Group" transform="translate(4.000000, 0.000000)">
                <polygon id="Shape" points="70.7 64.1 67.3 57.3 64 64.1 56.5 65.2 61.9 70.4 60.6 77.8 67.3 74.3 74.1 77.8 72.8 70.4 78.2 65.2"></polygon>
                <polygon id="Shape" points="86 32 82.6 25.3 79.3 32 71.8 33.1 77.2 38.4 75.9 45.8 82.6 42.3 89.3 45.8 88 38.4 93.5 33.1"></polygon>
                <polygon id="Shape" points="119.7 65.2 112.2 64.1 108.9 57.3 105.5 64.1 98 65.2 103.4 70.4 102.2 77.8 108.9 74.3 115.6 77.8 114.3 70.4"></polygon>
                <path d="M42.4,33.9 L56.5,20.3 L37.1,17.5 L28.4,0 L19.7,17.5 L0.3,20.3 L14.4,33.9 L11,53 L26.4,45 L26.4,124 C26.4,125.1 27.3,126 28.4,126 C29.5,126 30.4,125.1 30.4,124 L30.4,45 L45.8,53 L42.4,33.9 Z" id="Shape"></path>
            </g>
        </g>
    </g>
</svg>