<?xml version="1.0" encoding="UTF-8"?>
<svg width="35px" height="38px" viewBox="0 0 35 38" version="1.1" xmlns="http://www.w3.org/2000/svg" xmlns:xlink="http://www.w3.org/1999/xlink">
    <!-- Generator: Sketch 45.2 (43514) - http://www.bohemiancoding.com/sketch -->
    <title>Group</title>
    <desc>Created with Sketch.</desc>
    <defs></defs>
    <g id="Page-1" stroke="none" stroke-width="1" fill="none" fill-rule="evenodd">
        <g id="noun_magic_733634" transform="translate(-3.000000, 0.000000)" fill="#ffffff">
            <g id="Group" transform="translate(3.000000, 0.232880)">
                <polygon id="Shape" points="22.8464501 5.23749541 18.8533366 10.0267426 13.1393595 7.41085487 16.4549997 12.420146 11.663276 16.4107946 17.312969 15.7061178 6.4042351 37.1625881 7.82345309 37.1625881 18.4379605 16.2821844 21.2492046 21.1975537 21.2492046 14.8135495 27.6381867 14.0149031 22.0478271 11.6214996"></polygon>
                <polygon id="Shape" points="10.0661573 6.03628539 6.87119782 4.44033219 5.27371163 0.450497032 3.67622592 4.44033219 0.481266509 6.03628539 3.67622592 7.63223859 5.27371163 11.6220738 6.87119782 7.63223859"></polygon>
                <polygon id="Shape" points="30.8335084 30.7733686 28.1709713 29.6332927 26.8397034 26.7832943 25.5084342 29.6332927 22.845897 30.7733686 25.5084342 31.9133489 26.8397034 34.7633473 28.1709713 31.9133489"></polygon>
                <path d="M4.47497524,16.4099334 C4.47497728,16.8332064 4.30667197,17.2391439 4.00708487,17.5384435 C3.70749777,17.8377431 3.30116973,18.0058875 2.87748905,18.0058866 C2.45380841,18.0058874 2.04748044,17.837743 1.74789341,17.5384434 C1.44830637,17.2391438 1.2800011,16.8332063 1.28000314,16.4099334 C1.2800011,15.9866604 1.44830637,15.5807229 1.74789341,15.2814233 C2.04748044,14.9821237 2.45380841,14.8139793 2.87748905,14.8139802 C3.30116973,14.8139792 3.70749777,14.9821236 4.00708487,15.2814232 C4.30667197,15.5807228 4.47497728,15.9866603 4.47497524,16.4099334 L4.47497524,16.4099334 Z" id="Shape" fill-rule="nonzero"></path>
                <path d="M34.028398,21.9957217 C34.0284,22.4189941 33.8600952,22.824931 33.560509,23.1242305 C33.2609227,23.42353 32.8545956,23.5916749 32.4309156,23.5916749 C32.0072354,23.5916751 31.6009081,23.4235304 31.3013216,23.1242308 C31.0017352,22.8249313 30.8334303,22.4189942 30.8334323,21.9957217 C30.8334303,21.5724492 31.0017352,21.1665121 31.3013216,20.8672126 C31.6009081,20.5679131 32.0072354,20.3997683 32.4309156,20.3997685 C32.8545956,20.3997686 33.2609227,20.5679134 33.560509,20.8672129 C33.8600952,21.1665124 34.0284,21.5724494 34.028398,21.9957217 L34.028398,21.9957217 Z" id="Shape" fill-rule="nonzero"></path>
                <path d="M19.6510567,33.5662867 C19.6510335,34.2273323 19.1146277,34.7632034 18.4529454,34.7632038 C17.7912646,34.7632013 17.2548612,34.2273308 17.254838,33.5662867 C17.2548364,33.2488332 17.3810644,32.9443812 17.6057532,32.7199067 C17.8304419,32.4954322 18.1351861,32.369323 18.4529454,32.3693218 C18.7707054,32.369322 19.0754506,32.4954307 19.3001402,32.7199053 C19.5248298,32.9443799 19.6510583,33.2488326 19.6510567,33.5662867 L19.6510567,33.5662867 Z" id="Shape" fill-rule="nonzero"></path>
                <path d="M17.254838,3.24341514 C17.2548147,3.90446071 16.718409,4.44033182 16.0567267,4.44033219 C15.3950444,4.44033182 14.8586386,3.90446071 14.8586154,3.24341514 C14.8586138,2.92596096 14.9848423,2.62150834 15.2095319,2.39703373 C15.4342215,2.17255912 15.7389667,2.04645041 16.0567267,2.04645023 C16.3744866,2.04645041 16.6792318,2.17255912 16.9039214,2.39703373 C17.128611,2.62150834 17.2548395,2.92596096 17.254838,3.24341514 L17.254838,3.24341514 Z" id="Shape" fill-rule="nonzero"></path>
                <path d="M34.0283965,10.0261206 C34.0283733,10.6871665 33.491967,11.2230378 32.8302843,11.2230376 C32.168602,11.2230372 31.6321962,10.6871661 31.632173,10.0261206 C31.6321715,9.70866637 31.7584,9.40421376 31.9830896,9.17973914 C32.2077792,8.95526453 32.5125243,8.82915583 32.8302843,8.82915565 C33.1480444,8.82915557 33.4527898,8.95526417 33.6774796,9.17973881 C33.9021694,9.40421344 34.0283981,9.70866621 34.0283965,10.0261206 L34.0283965,10.0261206 Z" id="Shape" fill-rule="nonzero"></path>
            </g>
        </g>
    </g>
</svg>