<?xml version="1.0" encoding="UTF-8"?>
<svg width="30px" height="32px" viewBox="0 0 30 32" version="1.1" xmlns="http://www.w3.org/2000/svg" xmlns:xlink="http://www.w3.org/1999/xlink">
    <!-- Generator: Sketch 45.2 (43514) - http://www.bohemiancoding.com/sketch -->
    <title>Shape</title>
    <desc>Created with Sketch.</desc>
    <defs></defs>
    <g id="Page-1" stroke="none" stroke-width="1" fill="none" fill-rule="evenodd">
        <g id="Home-Connexion-Page" transform="translate(-151.000000, -705.000000)" stroke="#979797" stroke-width="2" fill="#979797" fill-rule="nonzero">
            <g id="notification" transform="translate(152.000000, 706.000000)">
                <path d="M27.7395349,23.7348837 C27.7395349,24.9069767 23.8,25.7534884 17.6139535,26.0139535 C17.4837209,26.6325581 16.7348837,29.3023256 14,29.3023256 C11.2651163,29.3023256 10.5162791,26.6325581 10.3534884,25.9813953 C4.16744186,25.7534884 0.227906977,24.9069767 0.227906977,23.7023256 C0.227906977,22.5627907 1.88837209,22.1395349 1.95348837,22.1069767 C1.95348837,22.1069767 1.98604651,22.1069767 1.98604651,22.1069767 C4.06976744,21.8790698 4.2,20.0232558 4.42790698,16.6697674 C4.55813953,14.8465116 4.72093023,12.5674419 5.2744186,9.89767442 C6.31627907,4.85116279 9.76744186,3.19069767 11.8511628,2.6372093 C11.9813953,0.879069767 12.6976744,0 14,0 C15.2697674,0 15.9534884,0.879069767 16.0186047,2.6372093 C18.1348837,3.19069767 21.6511628,4.81860465 22.6930233,9.93023256 C23.2465116,12.5674419 23.4093023,14.8790698 23.5395349,16.7023256 C23.7674419,20.055814 23.8976744,21.8790698 25.9813953,22.1395349 C25.9813953,22.1395349 26.0139535,22.1395349 26.0139535,22.1395349 C26.0790698,22.172093 27.7395349,22.5953488 27.7395349,23.7348837 Z" id="Shape"></path>
            </g>
        </g>
    </g>
</svg>