<?xml version="1.0" encoding="UTF-8"?>
<svg width="84px" height="96px" viewBox="0 0 84 96" version="1.1" xmlns="http://www.w3.org/2000/svg" xmlns:xlink="http://www.w3.org/1999/xlink">
    <!-- Generator: Sketch 63.1 (92452) - https://sketch.com -->
    <title>Group</title>
    <desc>Created with Sketch.</desc>
    <g id="Page-1" stroke="none" stroke-width="1" fill="none" fill-rule="evenodd">
        <g id="Group" fill="rgba(255, 255, 255, 0.5)" fill-rule="nonzero">
            <path d="M78.1,23.6 L46.9,23.6 L46.9,37.3 L78.2,37.3 L78.2,23.6 L78.1,23.6 Z M76.1,35.3 L48.9,35.3 L48.9,25.6 L76.2,25.6 L76.2,35.3 L76.1,35.3 Z" id="Shape"></path>
            <path d="M78.1,6 L46.9,6 L46.9,19.7 L78.2,19.7 L78.2,6 L78.1,6 Z M76.1,17.7 L48.9,17.7 L48.9,8 L76.2,8 L76.2,17.7 L76.1,17.7 Z" id="Shape"></path>
            <path d="M78.1,41.1 L46.9,41.1 L46.9,54.8 L78.2,54.8 L78.2,41.1 L78.1,41.1 Z M76.1,52.9 L48.9,52.9 L48.9,43.2 L76.2,43.2 L76.2,52.9 L76.1,52.9 Z" id="Shape"></path>
            <path d="M78.1,76.3 L5.9,76.3 L5.9,90 L78.1,90 L78.1,76.3 L78.1,76.3 Z M76.1,88 L7.9,88 L7.9,78.3 L76.1,78.3 L76.1,88 L76.1,88 Z" id="Shape"></path>
            <path d="M78.1,58.7 L5.9,58.7 L5.9,72.4 L78.1,72.4 L78.1,58.7 L78.1,58.7 Z M76.1,70.4 L7.9,70.4 L7.9,60.7 L76.1,60.7 L76.1,70.4 L76.1,70.4 Z" id="Shape"></path>
            <path d="M0,0.2 L0,95.9 L84,95.9 L84,0.2 L0,0.2 Z M82,93.8 L2,93.8 L2,2.2 L82,2.2 L82,93.8 Z" id="Shape"></path>
            <path d="M43,6 L5.9,6 L5.9,54.8 L43,54.8 L43,6 Z M41,52.9 L7.9,52.9 L7.9,8 L41,8 L41,52.9 Z" id="Shape"></path>
        </g>
    </g>
</svg>