<?xml version="1.0" encoding="UTF-8"?>
<svg width="42px" height="48px" viewBox="0 0 42 48" version="1.1" xmlns="http://www.w3.org/2000/svg" xmlns:xlink="http://www.w3.org/1999/xlink">
    <!-- Generator: Sketch 63.1 (92452) - https://sketch.com -->
    <title>path-2</title>
    <desc>Created with Sketch.</desc>
    <g id="Page-1" stroke="none" stroke-width="1" fill="none" fill-rule="evenodd">
        <path d="M36.5046848,24.6343349 C33.4372935,23.4118062 29.9406735,24.1317647 27.598732,26.468082 C25.2567905,28.8043992 24.5144955,32.3131759 25.7080934,35.4049981 C26.9016914,38.4968203 29.8043992,40.5842431 33.1013414,40.7217008 C37.8527927,40.8658981 41.7871806,37.2394289 41.7871806,32.5249253 C41.8207203,21.944212 41.7871806,11.358817 41.7871806,0.772485702 C41.7871806,0.537462779 41.7489827,0.297758125 41.7247596,0 C41.4666906,0.0571171246 41.2663843,0.0936346305 41.0725996,0.148879063 C31.8762123,2.80154815 22.7189546,5.47294415 13.5179091,8.09190477 C12.6794177,8.33160942 12.6980508,8.81101873 12.6980508,9.45897037 L12.6980508,32.3975822 C12.0458908,32.148514 11.6946561,31.9518813 11.2744788,31.8030023 C7.93821463,30.6419328 4.95318526,31.2898845 2.43771107,33.7459208 C0.0615346678,36.095799 -0.653994536,39.6617971 0.630296282,42.7535723 C2.140893,46.4630053 6.06127155,48.5700391 9.96966257,47.7730773 C13.8780536,46.9761156 16.6713623,43.5000909 16.6240539,39.4922781 C16.6656679,32.4066335 16.6656679,25.3216131 16.6240539,18.237217 C16.6193956,17.3111705 16.9147309,16.9516135 17.778377,16.7119089 C22.2885291,15.4843588 26.7781847,14.1697286 31.2743618,12.872889 L37.759627,11.0001964 L37.759627,25.167116 C37.2006327,24.9414565 36.8726894,24.7925775 36.5046848,24.6343349 Z" id="path-2" fill="rgba(255, 255, 255, 0.5)"></path>
    </g>
</svg>