<?xml version="1.0" encoding="UTF-8"?>
<svg width="280px" height="313px" viewBox="0 0 280 313" version="1.1" xmlns="http://www.w3.org/2000/svg" xmlns:xlink="http://www.w3.org/1999/xlink">
    <!-- Generator: Sketch 63.1 (92452) - https://sketch.com -->
    <title>noun_effect sparkle_2360037</title>
    <desc>Created with Sketch.</desc>
    <g id="Page-1" stroke="none" stroke-width="1" fill="none" fill-rule="evenodd">
        <g id="noun_effect-sparkle_2360037" fill="rgba(255, 255, 255, 0.5)" fill-rule="nonzero">
            <path d="M5.33107918,142.718672 C28.7183995,149.874399 60.4106321,161.091665 64.9135343,170.546502 C70.3024702,181.810148 73.8730534,229.568005 80.2141448,264.485306 C81.7944585,273.171565 94.2055415,273.171565 95.779243,264.485306 C102.120334,229.568005 105.69753,181.83665 111.079853,170.546502 C115.582756,161.118168 147.274988,149.900902 170.668921,142.718672 C177.777026,140.545451 177.777026,130.454549 170.668921,128.281328 C147.274988,121.125601 115.582756,109.91496 111.079853,100.453498 C105.690918,89.1898525 102.120334,41.4319952 95.779243,6.51469384 C94.2055415,-2.17156461 81.7944585,-2.17156461 80.2141448,6.51469384 C73.8730534,41.4319952 70.295858,89.1633498 64.9135343,100.453498 C60.4106321,109.888458 28.7183995,121.099098 5.33107918,128.281328 C-1.77702639,130.454549 -1.77702639,140.545451 5.33107918,142.718672 Z" id="Path"></path>
            <path d="M276.361903,216.096742 C260.40101,211.243279 238.813902,203.621153 235.748081,197.214051 C232.077076,189.552087 229.643039,157.13813 225.320298,133.421896 C224.242937,127.526035 215.783664,127.526035 214.679702,133.421896 C210.363611,157.13813 207.929575,189.552087 204.258569,197.214051 C201.186098,203.621153 179.585689,211.243279 163.638097,216.096742 C161.476884,216.753973 160,218.744448 160,221 C160,223.255552 161.476884,225.246027 163.638097,225.903258 C179.59899,230.756721 201.186098,238.378847 204.258569,244.785949 C207.929575,252.447913 210.363611,284.86187 214.679702,308.578104 C215.757063,314.473965 224.216336,314.473965 225.320298,308.578104 C229.643039,284.86187 232.077076,252.447913 235.748081,244.785949 C238.813902,238.378847 260.420961,230.756721 276.361903,225.903258 C278.523116,225.246027 280,223.255552 280,221 C280,218.744448 278.523116,216.753973 276.361903,216.096742 L276.361903,216.096742 Z" id="Path"></path>
        </g>
    </g>
</svg>