<?xml version="1.0" encoding="UTF-8"?>
<svg width="24px" height="24px" viewBox="0 0 24 24" version="1.1" xmlns="http://www.w3.org/2000/svg" xmlns:xlink="http://www.w3.org/1999/xlink">
    <!-- Generator: Sketch 63.1 (92452) - https://sketch.com -->
    <title>Shape</title>
    <desc>Created with Sketch.</desc>
    <g id="Page-1" stroke="none" stroke-width="1" fill="none" fill-rule="evenodd">
        <path d="M2.87821944,24 C3.00238587,23.8469679 3.12619457,23.6983889 3.23941319,23.554802 C4.43162956,22.7022096 4.27672242,22.9389642 6.54725792,23.5485988 C6.87986469,23.6379031 7.11156826,23.7956976 7.26479354,24 L2.87821944,24 Z M2.87821944,-1.10844667e-12 C2.04551739,1.02628494 1.19672624,2.25284579 3.41809918,3.517082 C5.97070698,4.96983186 6.3861476,3.95957537 6.3861476,3.95957537 C6.3861476,3.95957537 8.15755857,1.19036496 7.26479354,-1.10844667e-12 L2.87821944,-1.10844667e-12 Z M23.3729789,24 C23.4554552,23.2359956 23.0553693,23.0632477 23.0553693,23.0632477 C23.0553693,23.0632477 19.2970443,20.5656296 18.6478763,22.8251797 C18.5059377,23.3192235 18.3838461,23.6976441 18.2884012,24 L23.3729789,24 Z M23.3729789,-5.48450174e-14 C23.3248769,0.445584267 23.1126323,1.09228326 22.5611437,2.02312147 C21.064066,4.54998651 19.687482,3.02430855 18.5963487,2.13262892 C17.9465322,1.18960256 17.9473209,1.08049365 18.2884012,-5.48450174e-14 L23.3729789,-5.48450174e-14 L23.3729789,-5.48450174e-14 Z M9.67002732,24 C8.2145715,22.7339949 9.47093807,21.5294028 10.2394132,20.554802 C11.4316296,19.7022096 11.2767224,19.9389642 13.5472579,20.5485988 C15.0820193,20.9606794 14.4683343,22.8310645 13.9094354,24 L9.67002732,24 Z M9.67002732,-4.48530102e-14 C9.86704732,0.171374713 10.113759,0.343874764 10.4180992,0.517082001 C12.970707,1.96983186 13.3861476,0.959575373 13.3861476,0.959575373 C13.3861476,0.959575373 13.6414957,0.560394869 13.9094354,-4.48530102e-14 L9.67002732,-4.48530102e-14 L9.67002732,-4.48530102e-14 Z M4.4408921e-16,19.8043059 C2.59221449,20.6253271 2.79678465,19.6065135 2.79678465,19.6065135 C2.79678465,19.6065135 4.45842404,15.411033 2.11328091,15.2458377 C0.951850385,15.1640249 0.391833697,15.0584778 4.4408921e-16,15.1020666 L4.4408921e-16,19.8043059 Z M24,19.8043059 C23.9344823,19.7835547 23.8674394,19.7616283 23.7988359,19.7384803 C21.015929,18.7994821 22.2220593,17.1357735 22.8673942,15.8830935 C23.375996,15.34583 23.600649,15.1464917 24,15.1020666 L24,19.8043059 Z M0,7.74939201 C0.423100972,7.4857523 0.928625641,7.2909526 1.356474,7.09376491 C2.80581541,6.87535445 2.56030778,7.015978 4.30660143,8.58996792 C6.05289507,10.1639578 2.16050962,12.4470343 2.16050962,12.4470343 C2.16050962,12.4470343 1.4285096,13.0754634 0,11.1148919 L0,7.74939201 Z M24,7.74939201 C23.1575434,8.27433767 22.6418695,9.07221125 23.7168469,10.705304 C23.8140844,10.8530261 23.9084719,10.9892733 24,11.1148919 L24,7.74939201 Z M9.23941319,3.55480197 C8.36691227,4.66133109 6.86549138,6.06433215 9.41809918,7.517082 C11.970707,8.96983186 12.3861476,7.95957537 12.3861476,7.95957537 C12.3861476,7.95957537 14.8177934,4.15823336 12.5472579,3.5485988 C10.2767224,2.93896423 10.4316296,2.7022096 9.23941319,3.55480197 Z M11.3515468,14.8035427 C10.5583588,15.9682389 9.15846373,17.4725562 11.8061922,18.7437063 C14.4539207,20.0148564 14.7978774,18.9780812 14.7978774,18.9780812 C14.7978774,18.9780812 16.9584316,15.016376 14.6509011,14.566611 C12.3433705,14.116846 12.4813852,13.8698624 11.3515468,14.8035427 Z M16.152228,19.2441157 C16.5345857,20.6003852 16.7871243,22.6397236 19.4628088,21.4285254 C22.1384934,20.2173273 21.5653686,19.2874149 21.5653686,19.2874149 C21.5653686,19.2874149 19.9193039,15.0857993 18.0915119,16.5643669 C16.2637198,18.0429345 16.1632335,17.7784511 16.152228,19.2441157 Z M12.2704469,9.39465902 C11.8996609,10.7541377 11.0657919,12.6322589 13.9831144,12.9721388 C16.9004368,13.3120188 16.8881133,12.2197472 16.8881133,12.2197472 C16.8881133,12.2197472 17.6411524,7.77047373 15.3129103,8.09647106 C12.9846681,8.42246839 13.0347535,8.14400756 12.2704469,9.39465902 Z M18.5341188,11.4442196 C18.1633328,12.8036983 17.3294638,14.6818194 20.2467863,15.0216994 C23.1641087,15.3615794 23.1517852,14.2693078 23.1517852,14.2693078 C23.1517852,14.2693078 23.9048243,9.82003428 21.5765821,10.1460316 C19.24834,10.4720289 19.2984254,10.1935681 18.5341188,11.4442196 Z M4.02130931,18.8550708 C4.08877292,20.2625911 3.87608771,22.3064701 6.75565493,21.728213 C9.63522214,21.1499558 9.28597128,20.114952 9.28597128,20.114952 C9.28597128,20.114952 8.62725292,15.6507396 6.51370177,16.6802478 C4.40015061,17.7097561 4.3617355,17.4294469 4.02130931,18.8550708 Z M19.7614164,3.68735301 C18.4051469,4.06971069 16.3658085,4.32224934 17.5770067,6.99793388 C18.7882048,9.67361842 19.7181172,9.10049363 19.7181172,9.10049363 C19.7181172,9.10049363 23.9197328,7.45442889 22.4411652,5.62663688 C20.9625976,3.79884488 21.227081,3.69835849 19.7614164,3.68735301 Z M5.38220309,12.0834232 C5.27763027,13.4886738 4.81744418,15.4913983 7.74601936,15.2683823 C10.6745945,15.0453664 10.4540822,13.9755143 10.4540822,13.9755143 C10.4540822,13.9755143 10.3443244,9.46429989 8.12106188,10.2285573 C5.89779932,10.9928147 5.89383165,10.7099132 5.38220309,12.0834232 Z" id="Shape" fill="rgba(255, 255, 255, 0.5)" fill-rule="nonzero"></path>
    </g>
</svg>