<?xml version="1.0" encoding="UTF-8"?>
<svg width="42px" height="42px" viewBox="0 0 42 42" version="1.1" xmlns="http://www.w3.org/2000/svg" xmlns:xlink="http://www.w3.org/1999/xlink">
    <!-- Generator: Sketch 45.2 (43514) - http://www.bohemiancoding.com/sketch -->
    <title>Shape</title>
    <desc>Created with Sketch.</desc>
    <defs></defs>
    <g id="Page-1" stroke="none" stroke-width="1" fill="none" fill-rule="evenodd" fill-opacity="0.90271173">
        <g id="Creation-Page" transform="translate(-57.000000, -740.000000)" fill-rule="nonzero" fill="#636C72">
            <g id="noun_1343832_cc" transform="translate(57.000000, 740.000000)">
                <g id="Group">
                    <g id="Shape">
                        <path d="M4,0 L33.3431458,0 L33.3431458,0 C34.4040117,0 35.4214274,0.4214274 36.1715729,1.1715729 L40.8284271,5.8284271 L40.8284271,5.8284271 C41.5785726,6.5785726 42,7.5959883 42,8.6568542 L42,38 C42,40.209139 40.209139,42 38,42 L4,42 C1.790861,42 0,40.209139 0,38 L0,4 L0,4 C0,1.790861 1.790861,0 4,0 L4,0 Z M9,4 L5,4 C4.4477153,4 4,4.4477153 4,5 L4,37 L4,37 C4,37.5522847 4.4477153,38 5,38 L37,38 C37.5522847,38 38,37.5522847 38,37 L38,9.0710678 L38,9.0710678 C38,8.8058513 37.8946432,8.5514974 37.7071068,8.363961 L33.636039,4.2928932 L33.636039,4.2928932 C33.4485026,4.1053568 33.1941487,4 32.9289322,4 L32.6715729,4 C32.3006734,4 32,4.3006734 32,4.6715729 L32,12 C32,13.1045695 31.1045695,14 30,14 L12,14 L12,14 C10.8954305,14 10,13.1045695 10,12 L10,5 C10,4.4477153 9.5522847,4 9,4 Z M23,4 C22.4477153,4 22,4.4477153 22,5 L22,10 C22,10.5522847 22.4477153,11 23,11 L26,11 C26.5522847,11 27,10.5522847 27,10 L27,5 C27,4.4477153 26.5522847,4 26,4 L23,4 Z M10,19 L32,19 C33.1045695,19 34,19.8954305 34,21 L34,32 C34,33.1045695 33.1045695,34 32,34 L10,34 C8.8954305,34 8,33.1045695 8,32 L8,21 C8,19.8954305 8.8954305,19 10,19 Z"></path>
                    </g>
                </g>
            </g>
        </g>
    </g>
</svg>