<?xml version="1.0" encoding="UTF-8"?>
<svg width="83px" height="82px" viewBox="0 0 83 82" version="1.1" xmlns="http://www.w3.org/2000/svg" xmlns:xlink="http://www.w3.org/1999/xlink">
    <!-- Generator: Sketch 45.2 (43514) - http://www.bohemiancoding.com/sketch -->
    <title>noun_972105_cc</title>
    <desc>Created with Sketch.</desc>
    <defs></defs>
    <g id="Page-1" stroke="none" stroke-width="1" fill="none" fill-rule="evenodd" fill-opacity="0.75">
        <g id="Home-Connexion-Page" transform="translate(-231.000000, -679.000000)" fill-rule="nonzero" fill="#FFFFFF">
            <g id="Menu-bar" transform="translate(229.718750, 21.000000)">
                <g id="noun_972105_cc" transform="translate(0.281250, 658.000000)">
                    <path d="M33.5951404,0.01033307 C15.6358093,0.01033307 0.992619,14.6162633 0.992619,32.5755945 C0.992619,50.5721867 15.6358093,65.178117 33.5951404,65.178117 C41.419746,65.178117 48.6481912,62.3836154 54.3117143,57.763372 L77.63649,81.0881477 C78.8660716,82.3177282 80.8781132,82.3177282 82.1076937,81.0881477 C83.3372741,79.8585672 83.3372741,77.8465256 82.1076937,76.6169441 L58.745658,53.2921684 C63.4031613,47.6659052 66.1976629,40.43746 66.1976629,32.5755945 C66.1976629,14.6162633 51.5544727,0.01033307 33.5951404,0.01033307 Z M33.5951404,6.30727726 C48.1638108,6.30727726 59.8634586,18.0441851 59.8634586,32.5755945 C59.8634586,47.1442649 48.1638108,58.8811726 33.5951404,58.8811726 C19.0264711,58.8811726 7.28956327,47.1442649 7.28956327,32.5755945 C7.28956327,18.0441851 19.0264711,6.30727726 33.5951404,6.30727726 Z" id="Shape"></path>
                </g>
            </g>
        </g>
    </g>
</svg>