<svg xmlns="http://www.w3.org/2000/svg" viewBox="0 0 800 800" width="800" height="800" preserveAspectRatio="xMidYMid slice" style="width: 100%; height: 100%; transform: translate3d(0px, 0px, 0px);"><defs><clipPath id="animationMask_kH536dLxBi"><rect width="800" height="800" x="0" y="0"></rect></clipPath><linearGradient id="gr_P7b3MIpVPq" spreadMethod="pad" gradientUnits="userSpaceOnUse" x1="0.5820000171661377" y1="124.94499969482422" x2="1.315999984741211" y2="-125.69100189208984"><stop offset="0%" stop-color="rgb(0,229,99)"></stop><stop offset="50%" stop-color="rgb(0,227,141)"></stop><stop offset="100%" stop-color="rgb(0,226,183)"></stop></linearGradient><mask id="mk_R72Ileg1lO"><path fill="url(#op_JAxTCAIhmQ)" d=" M-52.49599838256836,-73.49299621582031 C-65.2040023803711,-51.946998596191406 -72.49700164794922,-26.827999114990234 -72.49700164794922,0.0010000000474974513 C-72.49700164794922,26.829999923706055 -65.2040023803711,51.95100021362305 -52.494998931884766,73.49700164794922 C-39.7869987487793,95.04299926757812 -21.660999298095703,113.01499938964844 0.004000000189989805,125.5510025024414 C21.666000366210938,113.01499938964844 39.78900146484375,95.04199981689453 52.49599838256836,73.49500274658203 C65.2030029296875,51.94900131225586 72.49500274658203,26.82900047302246 72.49500274658203,0.0010000000474974513 C72.49700164794922,-26.827999114990234 65.20600128173828,-51.94900131225586 52.49700164794922,-73.49500274658203 C39.78799819946289,-95.04199981689453 21.663000106811523,-113.01499938964844 -0.003000000026077032,-125.5510025024414 C-21.665000915527344,-113.01200103759766 -39.78799819946289,-95.04000091552734 -52.49599838256836,-73.49299621582031z"></path></mask><linearGradient id="op_JAxTCAIhmQ" spreadMethod="pad" gradientUnits="userSpaceOnUse" x1="0.5820000171661377" y1="124.94499969482422" x2="1.315999984741211" y2="-125.69100189208984"><stop stop-color="rgb(255,255,255)" offset="0%" stop-opacity="0.9900000095367432"></stop><stop stop-color="rgb(255,255,255)" offset="57%" stop-opacity="0.9950000047683716"></stop><stop stop-color="rgb(255,255,255)" offset="100%" stop-opacity="1"></stop></linearGradient><linearGradient id="gr_aNCCnZrnmd" spreadMethod="pad" gradientUnits="userSpaceOnUse" x1="-41.672000885009766" y1="104.79299926757812" x2="45.94900131225586" y2="-101.39099884033203"><stop offset="0%" stop-color="rgb(0,0,0)"></stop><stop offset="50%" stop-color="rgb(0,0,0)"></stop><stop offset="100%" stop-color="rgb(0,0,0)"></stop></linearGradient><mask id="mk_Rxr5GVlYzD"><path fill="url(#op_tcXeSDEVRI)" d=" M20.073999404907227,69.54299926757812 C37.92499923706055,52.02000045776367 51.470001220703125,29.64299964904785 58.41299819946289,3.7279999256134033 C65.35900115966797,-22.18600082397461 64.81700134277344,-48.33700180053711 58.11800003051758,-72.43900299072266 C54.82699966430664,-84.28099822998047 50.03300094604492,-95.61799621582031 43.926998138427734,-106.1989974975586 C32.1609992980957,-103.03399658203125 20.785999298095703,-98.41799926757812 10.11299991607666,-92.38899993896484 C-11.664999961853027,-80.08300018310547 -30.540000915527344,-61.97700119018555 -43.95399856567383,-38.742000579833984 C-57.36899948120117,-15.505000114440918 -63.61399841308594,9.895000457763672 -63.38100051879883,34.909000396728516 C-63.14799880981445,59.90700149536133 -56.444000244140625,84.51899719238281 -43.9640007019043,106.197998046875 C-19.850000381469727,99.68499755859375 2.257999897003174,87.03299713134766 20.073999404907227,69.54299926757812z"></path></mask><linearGradient id="op_tcXeSDEVRI" spreadMethod="pad" gradientUnits="userSpaceOnUse" x1="-41.672000885009766" y1="104.79299926757812" x2="45.94900131225586" y2="-101.39099884033203"><stop stop-color="rgb(255,255,255)" offset="0%" stop-opacity="0.10000000149011612"></stop><stop stop-color="rgb(255,255,255)" offset="57%" stop-opacity="0.05000000074505806"></stop><stop stop-color="rgb(255,255,255)" offset="100%" stop-opacity="0"></stop></linearGradient><linearGradient id="gr_hLVeGTqS3W" spreadMethod="pad" gradientUnits="userSpaceOnUse" x1="0" y1="0" x2="100" y2="0"><stop offset="0%" stop-color="rgb(51,234,130)"></stop><stop offset="50%" stop-color="rgb(51,233,164)"></stop><stop offset="100%" stop-color="rgb(51,232,197)"></stop></linearGradient><mask id="mk_Kh6RcDyBHR"><path fill="url(#op_YFHHLTZUNX)" d=""></path></mask><linearGradient id="op_YFHHLTZUNX" spreadMethod="pad" gradientUnits="userSpaceOnUse" x1="0" y1="0" x2="100" y2="0"><stop stop-color="rgb(255,255,255)" offset="0%" stop-opacity="0.9900000095367432"></stop><stop stop-color="rgb(255,255,255)" offset="57%" stop-opacity="0.9950000047683716"></stop><stop stop-color="rgb(255,255,255)" offset="100%" stop-opacity="1"></stop></linearGradient><linearGradient id="gr_Qynl1fhsDG" spreadMethod="pad" gradientUnits="userSpaceOnUse" x1="-61.06999969482422" y1="107.83200073242188" x2="82.53099822998047" y2="-107.2229995727539"><stop offset="0%" stop-color="rgb(0,229,99)"></stop><stop offset="50%" stop-color="rgb(0,227,141)"></stop><stop offset="100%" stop-color="rgb(0,226,183)"></stop></linearGradient><mask id="mk_YKpw3h0qmE"><path fill="url(#op_Q1BAgryzQf)" d=" M-8.715999603271484,-89.8949966430664 C-30.493999481201172,-77.58999633789062 -49.369998931884766,-59.483001708984375 -62.784000396728516,-36.249000549316406 C-76.20099639892578,-13.01200008392334 -82.44499969482422,12.38700008392334 -82.21099853515625,37.402000427246094 C-81.97799682617188,62.41600036621094 -75.26599884033203,87.04399871826172 -62.77199935913086,108.73300170898438 C-37.744998931884766,108.70800018310547 -13.062999725341797,102.2040023803711 8.71500015258789,89.89700317382812 C30.493000030517578,77.59100341796875 49.36899948120117,59.481998443603516 62.78300094604492,36.24599838256836 C76.19999694824219,13.012999534606934 82.44499969482422,-12.38599967956543 82.21199798583984,-37.400001525878906 C81.97899627685547,-62.41400146484375 75.26899719238281,-87.04399871826172 62.775001525878906,-108.73300170898438 C37.744998931884766,-108.70500183105469 13.062000274658203,-102.19999694824219 -8.715999603271484,-89.8949966430664z"></path></mask><linearGradient id="op_Q1BAgryzQf" spreadMethod="pad" gradientUnits="userSpaceOnUse" x1="-61.06999969482422" y1="107.83200073242188" x2="82.53099822998047" y2="-107.2229995727539"><stop stop-color="rgb(255,255,255)" offset="0%" stop-opacity="0.9900000095367432"></stop><stop stop-color="rgb(255,255,255)" offset="57%" stop-opacity="0.9950000047683716"></stop><stop stop-color="rgb(255,255,255)" offset="100%" stop-opacity="1"></stop></linearGradient><linearGradient id="gr_tEG2X3Dksk" spreadMethod="pad" gradientUnits="userSpaceOnUse" x1="-73.25800323486328" y1="79.4489974975586" x2="91.80500030517578" y2="-15.241999626159668"><stop offset="0%" stop-color="rgb(245,0,107)"></stop><stop offset="50%" stop-color="rgb(249,0,107)"></stop><stop offset="100%" stop-color="rgb(253,0,108)"></stop></linearGradient><mask id="mk_rBnLUuLAti"><path fill="url(#op_7xbMRv8n3y)" d=" M75.33699798583984,-25.67799949645996 C75.33699798583984,-25.67799949645996 -14.609999656677246,-84.87899780273438 -14.609999656677246,-84.87899780273438 C-26.520000457763672,-78.39199829101562 -37.736000061035156,-70.16600036621094 -47.814998626708984,-60.08700180053711 C-66.78800201416016,-41.11399841308594 -79.39299774169922,-18.19499969482422 -85.64199829101562,6.0269999504089355 C-91.89099884033203,30.249000549316406 -91.78299713134766,55.77399826049805 -85.3270034790039,79.95800018310547 C-61.14500045776367,86.41200256347656 -35.62200164794922,86.51699829101562 -11.401000022888184,80.26599884033203 C12.821000099182129,74.01599884033203 35.73899841308594,61.409000396728516 54.70899963378906,42.43899917602539 C71.62799835205078,25.523000717163086 83.45099639892578,5.458000183105469 90.25,-15.86299991607666 C90.25,-15.86299991607666 75.33699798583984,-25.67799949645996 75.33699798583984,-25.67799949645996z"></path></mask><linearGradient id="op_7xbMRv8n3y" spreadMethod="pad" gradientUnits="userSpaceOnUse" x1="-73.25800323486328" y1="79.4489974975586" x2="91.80500030517578" y2="-15.241999626159668"><stop stop-color="rgb(255,255,255)" offset="0%" stop-opacity="0.15000000596046448"></stop><stop stop-color="rgb(255,255,255)" offset="57%" stop-opacity="0.07500000298023224"></stop><stop stop-color="rgb(255,255,255)" offset="100%" stop-opacity="0"></stop></linearGradient><linearGradient id="gr_uyWJneQB9L" spreadMethod="pad" gradientUnits="userSpaceOnUse" x1="-276.2659912109375" y1="0" x2="277.7030029296875" y2="0"><stop offset="0%" stop-color="rgb(252,104,161)"></stop><stop offset="50%" stop-color="rgb(252,116,142)"></stop><stop offset="100%" stop-color="rgb(253,127,122)"></stop></linearGradient><linearGradient id="gr_B14mWxQmB8" spreadMethod="pad" gradientUnits="userSpaceOnUse" x1="-278.82000732421875" y1="0" x2="274.69500732421875" y2="0"><stop offset="0%" stop-color="rgb(252,104,161)"></stop><stop offset="50%" stop-color="rgb(252,116,142)"></stop><stop offset="100%" stop-color="rgb(253,127,122)"></stop></linearGradient><linearGradient id="gr_GG46OVMrBv" spreadMethod="pad" gradientUnits="userSpaceOnUse" x1="-277.5" y1="0" x2="278.72698974609375" y2="0"><stop offset="0%" stop-color="rgb(252,104,161)"></stop><stop offset="50%" stop-color="rgb(252,116,142)"></stop><stop offset="100%" stop-color="rgb(253,127,122)"></stop></linearGradient><clipPath id="cp_BCEtgp1e"><path d="M0,0 L1920,0 L1920,1080 L0,1080z"></path></clipPath><clipPath id="cp_axljHkK4"><path d="M0,0 L1920,0 L1920,1080 L0,1080z"></path></clipPath><clipPath id="cp_4FCtW8Qk"><path d="M0,0 L1920,0 L1920,1080 L0,1080z"></path></clipPath><clipPath id="cp_rLLhlZZw"><path d="M0,0 L1920,0 L1920,1080 L0,1080z"></path></clipPath><clipPath id="cp_X6zA2hvt"><path d="M0,0 L1920,0 L1920,1080 L0,1080z"></path></clipPath><clipPath id="cp_2O2t4J4s"><path d="M0,0 L1920,0 L1920,1080 L0,1080z"></path></clipPath></defs><g clip-path="url(#animationMask_kH536dLxBi)"><g clip-path="url(#cp_X6zA2hvt)" style="display: none;" transform="matrix(0.32941994071006775,-0.715289294719696,0.715289294719696,0.32941994071006775,-302.49932861328125,908.7909545898438)" opacity="1"><g clip-path="url(#cp_2O2t4J4s)" style="display: block;" transform="matrix(1,0,0,1,0,0)" opacity="1"><g style="display: block;" transform="matrix(-0.05775241181254387,1.406084418296814,-1.406084418296814,-0.05775241181254387,960,540)" opacity="1"><g opacity="1" transform="matrix(1,0,0,1,0,0)"><path fill="rgb(58,255,133)" fill-opacity="1" d=" M19.088720321655273,-293.81634521484375 C17.530473709106445,-293.6484375 17.39310073852539,-292.6845703125 17.469867706298828,-291.6515808105469 C17.55022621154785,-290.56561279296875 18.312963485717773,-289.6847839355469 20.327327728271484,-289.8805236816406 C22.04315185546875,-290.04754638671875 22.10689926147461,-291.03338623046875 21.97356605529785,-291.8957824707031 C21.815990447998047,-292.9130859375 21.341917037963867,-294.0587463378906 19.088720321655273,-293.81634521484375z"></path></g></g><g style="display: block;" transform="matrix(-0.47033271193504333,-1.1671042442321777,1.497153878211975,-0.6033398509025574,960,540)" opacity="1"><g opacity="1" transform="matrix(1,0,0,1,0,0)"><path fill="rgb(58,255,133)" fill-opacity="1" d=" M19.579721450805664,-292.3726501464844 C19.17847442626953,-292.3294372558594 19.14310073852539,-292.08123779296875 19.16286849975586,-291.81524658203125 C19.18355941772461,-291.5356140136719 19.37996482849121,-291.3088073730469 19.89866065979004,-291.35919189453125 C20.340484619140625,-291.4021911621094 20.35689926147461,-291.65606689453125 20.322566986083984,-291.87811279296875 C20.281991958618164,-292.14007568359375 20.1599178314209,-292.4350891113281 19.579721450805664,-292.3726501464844z"></path></g></g><g style="display: block;" transform="matrix(1.116912841796875,-0.7917552590370178,0.9519765973091125,1.3429336547851562,960,540)" opacity="1"><g opacity="1" transform="matrix(1,0,0,1,0,0)"><path fill="rgb(58,255,133)" fill-opacity="1" d=" M19.088720321655273,-293.81634521484375 C17.530473709106445,-293.6484375 17.39310073852539,-292.6845703125 17.469867706298828,-291.6515808105469 C17.55022621154785,-290.56561279296875 18.312963485717773,-289.6847839355469 20.327327728271484,-289.8805236816406 C22.04315185546875,-290.04754638671875 22.10689926147461,-291.03338623046875 21.97356605529785,-291.8957824707031 C21.815990447998047,-292.9130859375 21.341917037963867,-294.0587463378906 19.088720321655273,-293.81634521484375z"></path></g></g><g style="display: block;" transform="matrix(-1.4526829719543457,0.4444347620010376,-0.4320424497127533,-1.412177562713623,960,540)" opacity="1"><g opacity="1" transform="matrix(1,0,0,1,0,0)"><path fill="rgb(58,255,133)" fill-opacity="1" d=" M19.579721450805664,-292.3726501464844 C19.17847442626953,-292.3294372558594 19.14310073852539,-292.08123779296875 19.16286849975586,-291.81524658203125 C19.18355941772461,-291.5356140136719 19.37996482849121,-291.3088073730469 19.89866065979004,-291.35919189453125 C20.340484619140625,-291.4021911621094 20.35689926147461,-291.65606689453125 20.322566986083984,-291.87811279296875 C20.281991958618164,-292.14007568359375 20.1599178314209,-292.4350891113281 19.579721450805664,-292.3726501464844z"></path></g></g><g style="display: block;" transform="matrix(1.1871598958969116,0.9308856725692749,-0.7867560386657715,1.003351092338562,960,540)" opacity="1"><g opacity="1" transform="matrix(1,0,0,1,0,0)"><path fill="rgb(58,255,133)" fill-opacity="1" d=" M19.579721450805664,-292.3726501464844 C19.17847442626953,-292.3294372558594 19.14310073852539,-292.08123779296875 19.16286849975586,-291.81524658203125 C19.18355941772461,-291.5356140136719 19.37996482849121,-291.3088073730469 19.89866065979004,-291.35919189453125 C20.340484619140625,-291.4021911621094 20.35689926147461,-291.65606689453125 20.322566986083984,-291.87811279296875 C20.281991958618164,-292.14007568359375 20.1599178314209,-292.4350891113281 19.579721450805664,-292.3726501464844z"></path></g></g><g style="display: block;" transform="matrix(-0.3444667458534241,0.84989333152771,-0.7632019519805908,-0.3093302249908447,960,540)" opacity="1"><g opacity="1" transform="matrix(1,0,0,1,0,0)"><path fill="rgb(58,255,133)" fill-opacity="1" d=" M19.579721450805664,-292.3726501464844 C19.17847442626953,-292.3294372558594 19.14310073852539,-292.08123779296875 19.16286849975586,-291.81524658203125 C19.18355941772461,-291.5356140136719 19.37996482849121,-291.3088073730469 19.89866065979004,-291.35919189453125 C20.340484619140625,-291.4021911621094 20.35689926147461,-291.65606689453125 20.322566986083984,-291.87811279296875 C20.281991958618164,-292.14007568359375 20.1599178314209,-292.4350891113281 19.579721450805664,-292.3726501464844z"></path></g></g><g style="display: block;" transform="matrix(0.6354153156280518,-0.9302628040313721,0.6445939540863037,0.4402894079685211,960,540)" opacity="1"><g opacity="1" transform="matrix(1,0,0,1,0,0)"><path fill="rgb(58,255,133)" fill-opacity="1" d=" M19.579721450805664,-292.3726501464844 C19.17847442626953,-292.3294372558594 19.14310073852539,-292.08123779296875 19.16286849975586,-291.81524658203125 C19.18355941772461,-291.5356140136719 19.37996482849121,-291.3088073730469 19.89866065979004,-291.35919189453125 C20.340484619140625,-291.4021911621094 20.35689926147461,-291.65606689453125 20.322566986083984,-291.87811279296875 C20.281991958618164,-292.14007568359375 20.1599178314209,-292.4350891113281 19.579721450805664,-292.3726501464844z"></path></g></g><g style="display: block;" transform="matrix(-0.7022479772567749,-0.9834983944892883,0.7785618305206299,-0.5559170246124268,960,540)" opacity="1"><g opacity="1" transform="matrix(1,0,0,1,0,0)"><path fill="rgb(58,255,133)" fill-opacity="1" d=" M19.088720321655273,-293.81634521484375 C17.530473709106445,-293.6484375 17.39310073852539,-292.6845703125 17.469867706298828,-291.6515808105469 C17.55022621154785,-290.56561279296875 18.312963485717773,-289.6847839355469 20.327327728271484,-289.8805236816406 C22.04315185546875,-290.04754638671875 22.10689926147461,-291.03338623046875 21.97356605529785,-291.8957824707031 C21.815990447998047,-292.9130859375 21.341917037963867,-294.0587463378906 19.088720321655273,-293.81634521484375z"></path></g></g><g style="display: block;" transform="matrix(0.8844980001449585,0.39721232652664185,-0.3592892289161682,0.800052285194397,954.2457275390625,535.6974487304688)" opacity="1"><g opacity="1" transform="matrix(1,0,0,1,0,0)"><path fill="rgb(58,255,133)" fill-opacity="1" d=" M19.088720321655273,-293.81634521484375 C17.530473709106445,-293.6484375 17.39310073852539,-292.6845703125 17.469867706298828,-291.6515808105469 C17.55022621154785,-290.56561279296875 18.312963485717773,-289.6847839355469 20.327327728271484,-289.8805236816406 C22.04315185546875,-290.04754638671875 22.10689926147461,-291.03338623046875 21.97356605529785,-291.8957824707031 C21.815990447998047,-292.9130859375 21.341917037963867,-294.0587463378906 19.088720321655273,-293.81634521484375z"></path></g></g><g style="display: none;" transform="matrix(1.795283555984497,0.9573442935943604,-1.0504915714263916,1.9699604511260986,1345.397216796875,694.718994140625)" opacity="1"><g opacity="1" transform="matrix(1,0,0,1,0,0)"><path fill="rgb(58,255,133)" fill-opacity="1" d=" M-154.331787109375,68.92921447753906 C-155.30628967285156,68.4405746459961 -157.01626586914062,68.56637573242188 -157.45794677734375,70.2057876586914 C-158.1371612548828,72.72830200195312 -157.34771728515625,74.05057525634766 -154.72776794433594,73.8077621459961 C-152.64141845703125,73.61441802978516 -152.4912567138672,72.78755950927734 -152.4262237548828,71.26817321777344 C-152.3903045654297,70.43478393554688 -152.94297790527344,69.62525177001953 -154.331787109375,68.92921447753906z"></path></g></g><g style="display: none;" transform="matrix(0.29579028487205505,-0.3474172353744507,0.22625036537647247,0.19262908399105072,1077.8890380859375,481.1212158203125)" opacity="1"><g opacity="1" transform="matrix(1,0,0,1,0,0)"><path fill="rgb(58,255,133)" fill-opacity="1" d=" M-154.331787109375,68.92921447753906 C-155.30628967285156,68.4405746459961 -157.01626586914062,68.56637573242188 -157.45794677734375,70.2057876586914 C-158.1371612548828,72.72830200195312 -157.34771728515625,74.05057525634766 -154.72776794433594,73.8077621459961 C-152.64141845703125,73.61441802978516 -152.4912567138672,72.78755950927734 -152.4262237548828,71.26817321777344 C-152.3903045654297,70.43478393554688 -152.94297790527344,69.62525177001953 -154.331787109375,68.92921447753906z"></path></g></g><g style="display: none;" transform="matrix(-0.8467276096343994,0.29434818029403687,-0.35499680042266846,-1.0211906433105469,776.3092041015625,522.177001953125)" opacity="1"><g opacity="1" transform="matrix(1,0,0,1,0,0)"><path fill="rgb(58,255,133)" fill-opacity="1" d=" M-154.5176239013672,70.10115814208984 C-155.02969360351562,69.84428405761719 -155.9280548095703,69.91053771972656 -156.1604766845703,70.77216339111328 C-156.51747131347656,72.09793853759766 -156.10275268554688,72.79351043701172 -154.72547912597656,72.66566467285156 C-153.62875366210938,72.5638656616211 -153.5499267578125,72.129638671875 -153.51596069335938,71.33078002929688 C-153.49705505371094,70.89278411865234 -153.78749084472656,70.4671630859375 -154.5176239013672,70.10115814208984z"></path></g></g><g style="display: none;" transform="matrix(0.012124491855502129,0.9463817477226257,-0.8566052317619324,0.010974330827593803,811.4942016601562,767.5447387695312)" opacity="1"><g opacity="1" transform="matrix(1,0,0,1,0,0)"><path fill="rgb(58,255,133)" fill-opacity="1" d=" M-154.5176239013672,70.10115814208984 C-155.02969360351562,69.84428405761719 -155.9280548095703,69.91053771972656 -156.1604766845703,70.77216339111328 C-156.51747131347656,72.09793853759766 -156.10275268554688,72.79351043701172 -154.72547912597656,72.66566467285156 C-153.62875366210938,72.5638656616211 -153.5499267578125,72.129638671875 -153.51596069335938,71.33078002929688 C-153.49705505371094,70.89278411865234 -153.78749084472656,70.4671630859375 -154.5176239013672,70.10115814208984z"></path></g></g><g style="display: none;" transform="matrix(0.37684962153434753,0.10246548056602478,-0.12734800577163696,0.4683631360530853,1077.1973876953125,739.6414794921875)" opacity="1"><g opacity="1" transform="matrix(1,0,0,1,0,0)"><path fill="rgb(58,255,133)" fill-opacity="1" d=" M-154.5176239013672,70.10115814208984 C-155.02969360351562,69.84428405761719 -155.9280548095703,69.91053771972656 -156.1604766845703,70.77216339111328 C-156.51747131347656,72.09793853759766 -156.10275268554688,72.79351043701172 -154.72547912597656,72.66566467285156 C-153.62875366210938,72.5638656616211 -153.5499267578125,72.129638671875 -153.51596069335938,71.33078002929688 C-153.49705505371094,70.89278411865234 -153.78749084472656,70.4671630859375 -154.5176239013672,70.10115814208984z"></path></g></g><g style="display: none;" transform="matrix(0.14527350664138794,0.7682503461837769,-0.6874277591705322,0.12999023497104645,1159.323486328125,491.4732666015625)" opacity="1"><g opacity="1" transform="matrix(1,0,0,1,0,0)"><path fill="rgb(58,255,133)" fill-opacity="1" d=" M-154.5176239013672,70.10115814208984 C-155.02969360351562,69.84428405761719 -155.9280548095703,69.91053771972656 -156.1604766845703,70.77216339111328 C-156.51747131347656,72.09793853759766 -156.10275268554688,72.79351043701172 -154.72547912597656,72.66566467285156 C-153.62875366210938,72.5638656616211 -153.5499267578125,72.129638671875 -153.51596069335938,71.33078002929688 C-153.49705505371094,70.89278411865234 -153.78749084472656,70.4671630859375 -154.5176239013672,70.10115814208984z"></path></g></g><g style="display: none;" transform="matrix(-1.0621713399887085,0.36924293637275696,-0.4075451195240021,-1.1723521947860718,695.7466430664062,461.28240966796875)" opacity="1"><g opacity="1" transform="matrix(1,0,0,1,0,0)"><path fill="rgb(58,255,133)" fill-opacity="1" d=" M-153.7818603515625,65.4611587524414 C-156.12484741210938,64.28670501708984 -160.23654174804688,64.58871459960938 -161.2974395751953,68.52973937988281 C-162.93019104003906,74.59369659423828 -161.03182983398438,77.7704849243164 -154.7345733642578,77.18748474121094 C-149.71966552734375,76.72325897216797 -149.35841369628906,74.73448181152344 -149.201416015625,71.08290100097656 C-149.115234375,69.07945251464844 -150.44386291503906,67.13383483886719 -153.7818603515625,65.4611587524414z"></path></g></g><g style="display: none;" transform="matrix(0.5120206475257874,-0.6290536522865295,0.7414158582687378,0.6034783124923706,1196.919189453125,411.6944580078125)" opacity="1"><g opacity="1" transform="matrix(1,0,0,1,0,0)"><path fill="rgb(58,255,133)" fill-opacity="1" d=" M-153.7818603515625,65.4611587524414 C-156.12484741210938,64.28670501708984 -160.23654174804688,64.58871459960938 -161.2974395751953,68.52973937988281 C-162.93019104003906,74.59369659423828 -161.03182983398438,77.7704849243164 -154.7345733642578,77.18748474121094 C-149.71966552734375,76.72325897216797 -149.35841369628906,74.73448181152344 -149.201416015625,71.08290100097656 C-149.115234375,69.07945251464844 -150.44386291503906,67.13383483886719 -153.7818603515625,65.4611587524414z"></path></g></g><g style="display: none;" transform="matrix(0.564393937587738,0.16493339836597443,-0.18269267678260803,0.6251652240753174,1117.8409423828125,775.7700805664062)" opacity="1"><g opacity="1" transform="matrix(1,0,0,1,0,0)"><path fill="rgb(58,255,133)" fill-opacity="1" d=" M-153.7818603515625,65.4611587524414 C-156.12484741210938,64.28670501708984 -160.23654174804688,64.58871459960938 -161.2974395751953,68.52973937988281 C-162.93019104003906,74.59369659423828 -161.03182983398438,77.7704849243164 -154.7345733642578,77.18748474121094 C-149.71966552734375,76.72325897216797 -149.35841369628906,74.73448181152344 -149.201416015625,71.08290100097656 C-149.115234375,69.07945251464844 -150.44386291503906,67.13383483886719 -153.7818603515625,65.4611587524414z"></path></g></g><g style="display: none;" transform="matrix(0.02663043886423111,0.8459835648536682,-1.086015224456787,0.03418632224202156,773.8305053710938,775.4580688476562)" opacity="1"><g opacity="1" transform="matrix(1,0,0,1,0,0)"><path fill="rgb(58,255,133)" fill-opacity="1" d=" M-153.7818603515625,65.4611587524414 C-156.12484741210938,64.28670501708984 -160.23654174804688,64.58871459960938 -161.2974395751953,68.52973937988281 C-162.93019104003906,74.59369659423828 -161.03182983398438,77.7704849243164 -154.7345733642578,77.18748474121094 C-149.71966552734375,76.72325897216797 -149.35841369628906,74.73448181152344 -149.201416015625,71.08290100097656 C-149.115234375,69.07945251464844 -150.44386291503906,67.13383483886719 -153.7818603515625,65.4611587524414z"></path></g></g><g style="display: none;" transform="matrix(-0.05810685455799103,-1.4087178707122803,1.3402278423309326,-0.05528177693486214,1007.48779296875,132.1926727294922)" opacity="1"><g opacity="1" transform="matrix(1,0,0,1,0,0)"><path fill="rgb(58,255,133)" fill-opacity="1" d=" M-153.7818603515625,65.4611587524414 C-156.12484741210938,64.28670501708984 -160.23654174804688,64.58871459960938 -161.2974395751953,68.52973937988281 C-162.93019104003906,74.59369659423828 -161.03182983398438,77.7704849243164 -154.7345733642578,77.18748474121094 C-149.71966552734375,76.72325897216797 -149.35841369628906,74.73448181152344 -149.201416015625,71.08290100097656 C-149.115234375,69.07945251464844 -150.44386291503906,67.13383483886719 -153.7818603515625,65.4611587524414z"></path></g></g><g style="display: none;" transform="matrix(-0.7204051613807678,0.0349816270172596,-0.03681493550539017,-0.7581599950790405,712.9751586914062,355.12188720703125)" opacity="1"><g opacity="1" transform="matrix(1,0,0,1,0,0)"><path fill="rgb(58,255,133)" fill-opacity="1" d=" M-154.58209228515625,70.50773620605469 C-154.93373107910156,70.33126831054688 -155.55052185058594,70.37686157226562 -155.71034240722656,70.96865844726562 C-155.95555114746094,71.8792495727539 -155.67083740234375,72.35740661621094 -154.7246856689453,72.26943969726562 C-153.97128295898438,72.19939422607422 -153.91720581054688,71.9013900756836 -153.89402770996094,71.35250091552734 C-153.88101196289062,71.05168151855469 -154.08047485351562,70.75924682617188 -154.58209228515625,70.50773620605469z"></path></g></g><g style="display: none;" transform="matrix(-0.2666168212890625,0.012946450151503086,-0.013828295283019543,-0.28477734327316284,1095.732666015625,346.831298828125)" opacity="1"><g opacity="1" transform="matrix(1,0,0,1,0,0)"><path fill="rgb(58,255,133)" fill-opacity="1" d=" M-154.58209228515625,70.50773620605469 C-154.93373107910156,70.33126831054688 -155.55052185058594,70.37686157226562 -155.71034240722656,70.96865844726562 C-155.95555114746094,71.8792495727539 -155.67083740234375,72.35740661621094 -154.7246856689453,72.26943969726562 C-153.97128295898438,72.19939422607422 -153.91720581054688,71.9013900756836 -153.89402770996094,71.35250091552734 C-153.88101196289062,71.05168151855469 -154.08047485351562,70.75924682617188 -154.58209228515625,70.50773620605469z"></path></g></g><g style="display: none;" transform="matrix(-0.2666168212890625,0.012946450151503086,-0.013828295283019543,-0.28477734327316284,588.4892578125,688.9324340820312)" opacity="1"><g opacity="1" transform="matrix(1,0,0,1,0,0)"><path fill="rgb(58,255,133)" fill-opacity="1" d=" M-154.58209228515625,70.50773620605469 C-154.93373107910156,70.33126831054688 -155.55052185058594,70.37686157226562 -155.71034240722656,70.96865844726562 C-155.95555114746094,71.8792495727539 -155.67083740234375,72.35740661621094 -154.7246856689453,72.26943969726562 C-153.97128295898438,72.19939422607422 -153.91720581054688,71.9013900756836 -153.89402770996094,71.35250091552734 C-153.88101196289062,71.05168151855469 -154.08047485351562,70.75924682617188 -154.58209228515625,70.50773620605469z"></path></g></g><g style="display: none;" transform="matrix(-0.8971940279006958,-0.4740378260612488,0.4530135989189148,-0.8574022054672241,850.2978515625,833.349365234375)" opacity="1"><g opacity="1" transform="matrix(1,0,0,1,0,0)"><path fill="rgb(58,255,133)" fill-opacity="1" d=" M-154.58209228515625,70.50773620605469 C-154.93373107910156,70.33126831054688 -155.55052185058594,70.37686157226562 -155.71034240722656,70.96865844726562 C-155.95555114746094,71.8792495727539 -155.67083740234375,72.35740661621094 -154.7246856689453,72.26943969726562 C-153.97128295898438,72.19939422607422 -153.91720581054688,71.9013900756836 -153.89402770996094,71.35250091552734 C-153.88101196289062,71.05168151855469 -154.08047485351562,70.75924682617188 -154.58209228515625,70.50773620605469z"></path></g></g><g style="display: none;" transform="matrix(-0.8344706892967224,0.040520451962947845,-0.0472598671913147,-0.9732610583305359,659.665771484375,300.5172119140625)" opacity="1"><g opacity="1" transform="matrix(1,0,0,1,0,0)"><path fill="rgb(58,255,133)" fill-opacity="1" d=" M-153.84634399414062,65.86773681640625 C-156.02886962890625,64.77368927001953 -159.8590087890625,65.05503845214844 -160.84732055664062,68.72623443603516 C-162.36827087402344,74.375 -160.5999298095703,77.3343734741211 -154.7337646484375,76.791259765625 C-150.06219482421875,76.3587875366211 -149.72569274902344,74.50623321533203 -149.57948303222656,71.10462188720703 C-149.4991912841797,69.23834991455078 -150.73684692382812,67.42591857910156 -153.84634399414062,65.86773681640625z"></path></g></g><g style="display: none;" transform="matrix(1.0748872756958008,-0.47827842831611633,0.49512097239494324,1.1127393245697021,748.2783813476562,522.205078125)" opacity="1"><g opacity="1" transform="matrix(1,0,0,1,0,0)"><path fill="rgb(58,255,133)" fill-opacity="1" d=" M-153.84634399414062,65.86773681640625 C-156.02886962890625,64.77368927001953 -159.8590087890625,65.05503845214844 -160.84732055664062,68.72623443603516 C-162.36827087402344,74.375 -160.5999298095703,77.3343734741211 -154.7337646484375,76.791259765625 C-150.06219482421875,76.3587875366211 -149.72569274902344,74.50623321533203 -149.57948303222656,71.10462188720703 C-149.4991912841797,69.23834991455078 -150.73684692382812,67.42591857910156 -153.84634399414062,65.86773681640625z"></path></g></g><g style="display: none;" transform="matrix(-1.119441032409668,0.37217146158218384,-0.44432106614112854,-1.3364571332931519,1111.8663330078125,723.8662719726562)" opacity="1"><g opacity="1" transform="matrix(1,0,0,1,0,0)"><path fill="rgb(58,255,133)" fill-opacity="1" d=" M-153.84634399414062,65.86773681640625 C-156.02886962890625,64.77368927001953 -159.8590087890625,65.05503845214844 -160.84732055664062,68.72623443603516 C-162.36827087402344,74.375 -160.5999298095703,77.3343734741211 -154.7337646484375,76.791259765625 C-150.06219482421875,76.3587875366211 -149.72569274902344,74.50623321533203 -149.57948303222656,71.10462188720703 C-149.4991912841797,69.23834991455078 -150.73684692382812,67.42591857910156 -153.84634399414062,65.86773681640625z"></path></g></g><g style="display: none;" transform="matrix(-0.3856326639652252,-0.708800733089447,0.711854100227356,-0.38729384541511536,1053.6522216796875,206.8684844970703)" opacity="1"><g opacity="1" transform="matrix(1,0,0,1,0,0)"><path fill="rgb(58,255,133)" fill-opacity="1" d=" M-153.84634399414062,65.86773681640625 C-156.02886962890625,64.77368927001953 -159.8590087890625,65.05503845214844 -160.84732055664062,68.72623443603516 C-162.36827087402344,74.375 -160.5999298095703,77.3343734741211 -154.7337646484375,76.791259765625 C-150.06219482421875,76.3587875366211 -149.72569274902344,74.50623321533203 -149.57948303222656,71.10462188720703 C-149.4991912841797,69.23834991455078 -150.73684692382812,67.42591857910156 -153.84634399414062,65.86773681640625z"></path></g></g><g style="display: none;" transform="matrix(0.1092594787478447,0.07687149196863174,-0.17832760512828827,0.25346171855926514,790.5809326171875,157.13491821289062)" opacity="1"><g opacity="1" transform="matrix(1,0,0,1,0,0)"><path fill="rgb(58,255,133)" fill-opacity="1" d=" M-154.21800231933594,68.21163940429688 C-155.4756622314453,67.58110046386719 -157.6825714111328,67.74335479736328 -158.25238037109375,69.85899353027344 C-159.12889099121094,73.11427307128906 -158.11000061035156,74.82025909423828 -154.7291717529297,74.50706481933594 C-152.036865234375,74.2576675415039 -151.84303283691406,73.19039916992188 -151.75897216796875,71.2298355102539 C-151.71266174316406,70.15435028076172 -152.42588806152344,69.10974884033203 -154.21800231933594,68.21163940429688z"></path></g></g><g style="display: none;" transform="matrix(-0.8549840450286865,-1.0196890830993652,0.8188764452934265,-0.6866075992584229,842.8740234375,806.8062133789062)" opacity="1"><g opacity="1" transform="matrix(1,0,0,1,0,0)"><path fill="rgb(58,255,133)" fill-opacity="1" d=" M-154.21800231933594,68.21163940429688 C-155.4756622314453,67.58110046386719 -157.6825714111328,67.74335479736328 -158.25238037109375,69.85899353027344 C-159.12889099121094,73.11427307128906 -158.11000061035156,74.82025909423828 -154.7291717529297,74.50706481933594 C-152.036865234375,74.2576675415039 -151.84303283691406,73.19039916992188 -151.75897216796875,71.2298355102539 C-151.71266174316406,70.15435028076172 -152.42588806152344,69.10974884033203 -154.21800231933594,68.21163940429688z"></path></g></g><g style="display: none;" transform="matrix(-0.8566914796829224,0.46282491087913513,-0.5601029992103577,-1.0367536544799805,1223.236572265625,727.5038452148438)" opacity="1"><g opacity="1" transform="matrix(1,0,0,1,0,0)"><path fill="rgb(58,255,133)" fill-opacity="1" d=" M-154.21800231933594,68.21163940429688 C-155.4756622314453,67.58110046386719 -157.6825714111328,67.74335479736328 -158.25238037109375,69.85899353027344 C-159.12889099121094,73.11427307128906 -158.11000061035156,74.82025909423828 -154.7291717529297,74.50706481933594 C-152.036865234375,74.2576675415039 -151.84303283691406,73.19039916992188 -151.75897216796875,71.2298355102539 C-151.71266174316406,70.15435028076172 -152.42588806152344,69.10974884033203 -154.21800231933594,68.21163940429688z"></path></g></g><g style="display: none;" transform="matrix(-0.033582694828510284,0.3339778482913971,-0.4052344560623169,-0.040747810155153275,1206.57763671875,328.91510009765625)" opacity="1"><g opacity="1" transform="matrix(1,0,0,1,0,0)"><path fill="rgb(58,255,133)" fill-opacity="1" d=" M-154.21800231933594,68.21163940429688 C-155.4756622314453,67.58110046386719 -157.6825714111328,67.74335479736328 -158.25238037109375,69.85899353027344 C-159.12889099121094,73.11427307128906 -158.11000061035156,74.82025909423828 -154.7291717529297,74.50706481933594 C-152.036865234375,74.2576675415039 -151.84303283691406,73.19039916992188 -151.75897216796875,71.2298355102539 C-151.71266174316406,70.15435028076172 -152.42588806152344,69.10974884033203 -154.21800231933594,68.21163940429688z"></path></g></g></g></g><g clip-path="url(#cp_4FCtW8Qk)" style="display: none;" transform="matrix(0.3581664264202118,0.7013366222381592,-0.7013366222381592,0.3581664264202118,434.88201904296875,-466.69305419921875)" opacity="1"><g clip-path="url(#cp_rLLhlZZw)" style="display: block;" transform="matrix(1,0,0,1,0,0)" opacity="1"><g style="display: block;" transform="matrix(-0.05775241181254387,1.406084418296814,-1.406084418296814,-0.05775241181254387,960,540)" opacity="1"><g opacity="1" transform="matrix(1,0,0,1,0,0)"><path fill="rgb(58,255,133)" fill-opacity="1" d=" M18.977386474609375,-294.1436767578125 C17.156789779663086,-293.947509765625 16.996288299560547,-292.8213806152344 17.085979461669922,-291.6144714355469 C17.179868698120117,-290.34564208984375 18.071022033691406,-289.3165588378906 20.424528121948242,-289.5452575683594 C22.429231643676758,-289.7403564453125 22.503711700439453,-290.8922119140625 22.347930908203125,-291.8998107910156 C22.16382598876953,-293.0883483886719 21.609935760498047,-294.4269104003906 18.977386474609375,-294.1436767578125z"></path></g></g><g style="display: block;" transform="matrix(-0.47033271193504333,-1.1671042442321777,1.497153878211975,-0.6033398509025574,960,540)" opacity="1"><g opacity="1" transform="matrix(1,0,0,1,0,0)"><path fill="rgb(58,255,133)" fill-opacity="1" d=" M19.468387603759766,-292.70001220703125 C18.804790496826172,-292.6285095214844 18.746288299560547,-292.2180480957031 18.778980255126953,-291.77813720703125 C18.813201904296875,-291.3156433105469 19.13802146911621,-290.9405517578125 19.995861053466797,-291.02392578125 C20.726564407348633,-291.09503173828125 20.753711700439453,-291.5148620605469 20.696931838989258,-291.88214111328125 C20.629825592041016,-292.31536865234375 20.427936553955078,-292.8032531738281 19.468387603759766,-292.70001220703125z"></path></g></g><g style="display: block;" transform="matrix(1.116912841796875,-0.7917552590370178,0.9519765973091125,1.3429336547851562,960,540)" opacity="1"><g opacity="1" transform="matrix(1,0,0,1,0,0)"><path fill="rgb(58,255,133)" fill-opacity="1" d=" M18.977386474609375,-294.1436767578125 C17.156789779663086,-293.947509765625 16.996288299560547,-292.8213806152344 17.085979461669922,-291.6144714355469 C17.179868698120117,-290.34564208984375 18.071022033691406,-289.3165588378906 20.424528121948242,-289.5452575683594 C22.429231643676758,-289.7403564453125 22.503711700439453,-290.8922119140625 22.347930908203125,-291.8998107910156 C22.16382598876953,-293.0883483886719 21.609935760498047,-294.4269104003906 18.977386474609375,-294.1436767578125z"></path></g></g><g style="display: block;" transform="matrix(-1.4526829719543457,0.4444347620010376,-0.4320424497127533,-1.412177562713623,960,540)" opacity="1"><g opacity="1" transform="matrix(1,0,0,1,0,0)"><path fill="rgb(58,255,133)" fill-opacity="1" d=" M19.468387603759766,-292.70001220703125 C18.804790496826172,-292.6285095214844 18.746288299560547,-292.2180480957031 18.778980255126953,-291.77813720703125 C18.813201904296875,-291.3156433105469 19.13802146911621,-290.9405517578125 19.995861053466797,-291.02392578125 C20.726564407348633,-291.09503173828125 20.753711700439453,-291.5148620605469 20.696931838989258,-291.88214111328125 C20.629825592041016,-292.31536865234375 20.427936553955078,-292.8032531738281 19.468387603759766,-292.70001220703125z"></path></g></g><g style="display: block;" transform="matrix(1.1871598958969116,0.9308856725692749,-0.7867560386657715,1.003351092338562,960,540)" opacity="1"><g opacity="1" transform="matrix(1,0,0,1,0,0)"><path fill="rgb(58,255,133)" fill-opacity="1" d=" M19.468387603759766,-292.70001220703125 C18.804790496826172,-292.6285095214844 18.746288299560547,-292.2180480957031 18.778980255126953,-291.77813720703125 C18.813201904296875,-291.3156433105469 19.13802146911621,-290.9405517578125 19.995861053466797,-291.02392578125 C20.726564407348633,-291.09503173828125 20.753711700439453,-291.5148620605469 20.696931838989258,-291.88214111328125 C20.629825592041016,-292.31536865234375 20.427936553955078,-292.8032531738281 19.468387603759766,-292.70001220703125z"></path></g></g><g style="display: block;" transform="matrix(-0.3444667458534241,0.84989333152771,-0.7632019519805908,-0.3093302249908447,960,540)" opacity="1"><g opacity="1" transform="matrix(1,0,0,1,0,0)"><path fill="rgb(58,255,133)" fill-opacity="1" d=" M19.468387603759766,-292.70001220703125 C18.804790496826172,-292.6285095214844 18.746288299560547,-292.2180480957031 18.778980255126953,-291.77813720703125 C18.813201904296875,-291.3156433105469 19.13802146911621,-290.9405517578125 19.995861053466797,-291.02392578125 C20.726564407348633,-291.09503173828125 20.753711700439453,-291.5148620605469 20.696931838989258,-291.88214111328125 C20.629825592041016,-292.31536865234375 20.427936553955078,-292.8032531738281 19.468387603759766,-292.70001220703125z"></path></g></g><g style="display: block;" transform="matrix(0.6354153156280518,-0.9302628040313721,0.6445939540863037,0.4402894079685211,960,540)" opacity="1"><g opacity="1" transform="matrix(1,0,0,1,0,0)"><path fill="rgb(58,255,133)" fill-opacity="1" d=" M19.468387603759766,-292.70001220703125 C18.804790496826172,-292.6285095214844 18.746288299560547,-292.2180480957031 18.778980255126953,-291.77813720703125 C18.813201904296875,-291.3156433105469 19.13802146911621,-290.9405517578125 19.995861053466797,-291.02392578125 C20.726564407348633,-291.09503173828125 20.753711700439453,-291.5148620605469 20.696931838989258,-291.88214111328125 C20.629825592041016,-292.31536865234375 20.427936553955078,-292.8032531738281 19.468387603759766,-292.70001220703125z"></path></g></g><g style="display: block;" transform="matrix(-0.7022479772567749,-0.9834983944892883,0.7785618305206299,-0.5559170246124268,960,540)" opacity="1"><g opacity="1" transform="matrix(1,0,0,1,0,0)"><path fill="rgb(58,255,133)" fill-opacity="1" d=" M18.977386474609375,-294.1436767578125 C17.156789779663086,-293.947509765625 16.996288299560547,-292.8213806152344 17.085979461669922,-291.6144714355469 C17.179868698120117,-290.34564208984375 18.071022033691406,-289.3165588378906 20.424528121948242,-289.5452575683594 C22.429231643676758,-289.7403564453125 22.503711700439453,-290.8922119140625 22.347930908203125,-291.8998107910156 C22.16382598876953,-293.0883483886719 21.609935760498047,-294.4269104003906 18.977386474609375,-294.1436767578125z"></path></g></g><g style="display: block;" transform="matrix(0.8844980001449585,0.39721232652664185,-0.3592892289161682,0.800052285194397,954.2457275390625,535.6974487304688)" opacity="1"><g opacity="1" transform="matrix(1,0,0,1,0,0)"><path fill="rgb(58,255,133)" fill-opacity="1" d=" M18.977386474609375,-294.1436767578125 C17.156789779663086,-293.947509765625 16.996288299560547,-292.8213806152344 17.085979461669922,-291.6144714355469 C17.179868698120117,-290.34564208984375 18.071022033691406,-289.3165588378906 20.424528121948242,-289.5452575683594 C22.429231643676758,-289.7403564453125 22.503711700439453,-290.8922119140625 22.347930908203125,-291.8998107910156 C22.16382598876953,-293.0883483886719 21.609935760498047,-294.4269104003906 18.977386474609375,-294.1436767578125z"></path></g></g><g style="display: none;" transform="matrix(1.795283555984497,0.9573442935943604,-1.0504915714263916,1.9699604511260986,1345.397216796875,694.718994140625)" opacity="1"><g opacity="1" transform="matrix(1,0,0,1,0,0)"><path fill="rgb(58,255,133)" fill-opacity="1" d=" M-154.47215270996094,69.81440734863281 C-155.0973663330078,69.50082397460938 -156.19432067871094,69.58164978027344 -156.47793579101562,70.63358306884766 C-156.9137725830078,72.2521743774414 -156.40736389160156,73.10108947753906 -154.72604370117188,72.94511413574219 C-153.3871612548828,72.82091522216797 -153.2908935546875,72.29061889648438 -153.24932861328125,71.31546020507812 C-153.22625732421875,70.78072357177734 -153.5808563232422,70.26116943359375 -154.47215270996094,69.81440734863281z"></path></g></g><g style="display: none;" transform="matrix(0.29579028487205505,-0.3474172353744507,0.22625036537647247,0.19262908399105072,1077.8890380859375,481.1212158203125)" opacity="1"><g opacity="1" transform="matrix(1,0,0,1,0,0)"><path fill="rgb(58,255,133)" fill-opacity="1" d=" M-154.47215270996094,69.81440734863281 C-155.0973663330078,69.50082397460938 -156.19432067871094,69.58164978027344 -156.47793579101562,70.63358306884766 C-156.9137725830078,72.2521743774414 -156.40736389160156,73.10108947753906 -154.72604370117188,72.94511413574219 C-153.3871612548828,72.82091522216797 -153.2908935546875,72.29061889648438 -153.24932861328125,71.31546020507812 C-153.22625732421875,70.78072357177734 -153.5808563232422,70.26116943359375 -154.47215270996094,69.81440734863281z"></path></g></g><g style="display: none;" transform="matrix(-0.8467276096343994,0.29434818029403687,-0.35499680042266846,-1.0211906433105469,776.3092041015625,522.177001953125)" opacity="1"><g opacity="1" transform="matrix(1,0,0,1,0,0)"><path fill="rgb(58,255,133)" fill-opacity="1" d=" M-154.3507843017578,69.04904174804688 C-155.27801513671875,68.5841064453125 -156.90499877929688,68.70381164550781 -157.32528686523438,70.2636947631836 C-157.9715576171875,72.66384887695312 -157.2204132080078,73.92204284667969 -154.7275390625,73.69098663330078 C-152.74237060546875,73.50700378417969 -152.59950256347656,72.72028350830078 -152.5376434326172,71.27457427978516 C-152.50347900390625,70.48161315917969 -153.02932739257812,69.71133422851562 -154.3507843017578,69.04904174804688z"></path></g></g><g style="display: none;" transform="matrix(0.012124491855502129,0.9463817477226257,-0.8566052317619324,0.010974330827593803,811.4942016601562,767.5447387695312)" opacity="1"><g opacity="1" transform="matrix(1,0,0,1,0,0)"><path fill="rgb(58,255,133)" fill-opacity="1" d=" M-154.3507843017578,69.04904174804688 C-155.27801513671875,68.5841064453125 -156.90499877929688,68.70381164550781 -157.32528686523438,70.2636947631836 C-157.9715576171875,72.66384887695312 -157.2204132080078,73.92204284667969 -154.7275390625,73.69098663330078 C-152.74237060546875,73.50700378417969 -152.59950256347656,72.72028350830078 -152.5376434326172,71.27457427978516 C-152.50347900390625,70.48161315917969 -153.02932739257812,69.71133422851562 -154.3507843017578,69.04904174804688z"></path></g></g><g style="display: none;" transform="matrix(0.37684962153434753,0.10246548056602478,-0.12734800577163696,0.4683631360530853,1077.1973876953125,739.6414794921875)" opacity="1"><g opacity="1" transform="matrix(1,0,0,1,0,0)"><path fill="rgb(58,255,133)" fill-opacity="1" d=" M-154.3507843017578,69.04904174804688 C-155.27801513671875,68.5841064453125 -156.90499877929688,68.70381164550781 -157.32528686523438,70.2636947631836 C-157.9715576171875,72.66384887695312 -157.2204132080078,73.92204284667969 -154.7275390625,73.69098663330078 C-152.74237060546875,73.50700378417969 -152.59950256347656,72.72028350830078 -152.5376434326172,71.27457427978516 C-152.50347900390625,70.48161315917969 -153.02932739257812,69.71133422851562 -154.3507843017578,69.04904174804688z"></path></g></g><g style="display: none;" transform="matrix(0.14527350664138794,0.7682503461837769,-0.6874277591705322,0.12999023497104645,1159.323486328125,491.4732666015625)" opacity="1"><g opacity="1" transform="matrix(1,0,0,1,0,0)"><path fill="rgb(58,255,133)" fill-opacity="1" d=" M-154.3507843017578,69.04904174804688 C-155.27801513671875,68.5841064453125 -156.90499877929688,68.70381164550781 -157.32528686523438,70.2636947631836 C-157.9715576171875,72.66384887695312 -157.2204132080078,73.92204284667969 -154.7275390625,73.69098663330078 C-152.74237060546875,73.50700378417969 -152.59950256347656,72.72028350830078 -152.5376434326172,71.27457427978516 C-152.50347900390625,70.48161315917969 -153.02932739257812,69.71133422851562 -154.3507843017578,69.04904174804688z"></path></g></g><g style="display: none;" transform="matrix(-1.0621713399887085,0.36924293637275696,-0.4075451195240021,-1.1723521947860718,695.7466430664062,461.28240966796875)" opacity="1"><g opacity="1" transform="matrix(1,0,0,1,0,0)"><path fill="rgb(58,255,133)" fill-opacity="1" d=" M-154.53662109375,70.22098541259766 C-155.00140380859375,69.98780822753906 -155.81678771972656,70.0479736328125 -156.02781677246094,70.830078125 C-156.3518524169922,72.03348541259766 -155.97544860839844,72.66498565673828 -154.72523498535156,72.54888916015625 C-153.72970581054688,72.4564437866211 -153.65817260742188,72.06237030029297 -153.62738037109375,71.3371810913086 C-153.61021423339844,70.93961334228516 -153.87384033203125,70.55325317382812 -154.53662109375,70.22098541259766z"></path></g></g><g style="display: none;" transform="matrix(0.5120206475257874,-0.6290536522865295,0.7414158582687378,0.6034783124923706,1196.919189453125,411.6944580078125)" opacity="1"><g opacity="1" transform="matrix(1,0,0,1,0,0)"><path fill="rgb(58,255,133)" fill-opacity="1" d=" M-154.53662109375,70.22098541259766 C-155.00140380859375,69.98780822753906 -155.81678771972656,70.0479736328125 -156.02781677246094,70.830078125 C-156.3518524169922,72.03348541259766 -155.97544860839844,72.66498565673828 -154.72523498535156,72.54888916015625 C-153.72970581054688,72.4564437866211 -153.65817260742188,72.06237030029297 -153.62738037109375,71.3371810913086 C-153.61021423339844,70.93961334228516 -153.87384033203125,70.55325317382812 -154.53662109375,70.22098541259766z"></path></g></g><g style="display: none;" transform="matrix(0.564393937587738,0.16493339836597443,-0.18269267678260803,0.6251652240753174,1117.8409423828125,775.7700805664062)" opacity="1"><g opacity="1" transform="matrix(1,0,0,1,0,0)"><path fill="rgb(58,255,133)" fill-opacity="1" d=" M-154.53662109375,70.22098541259766 C-155.00140380859375,69.98780822753906 -155.81678771972656,70.0479736328125 -156.02781677246094,70.830078125 C-156.3518524169922,72.03348541259766 -155.97544860839844,72.66498565673828 -154.72523498535156,72.54888916015625 C-153.72970581054688,72.4564437866211 -153.65817260742188,72.06237030029297 -153.62738037109375,71.3371810913086 C-153.61021423339844,70.93961334228516 -153.87384033203125,70.55325317382812 -154.53662109375,70.22098541259766z"></path></g></g><g style="display: none;" transform="matrix(0.02663043886423111,0.8459835648536682,-1.086015224456787,0.03418632224202156,773.8305053710938,775.4580688476562)" opacity="1"><g opacity="1" transform="matrix(1,0,0,1,0,0)"><path fill="rgb(58,255,133)" fill-opacity="1" d=" M-154.53662109375,70.22098541259766 C-155.00140380859375,69.98780822753906 -155.81678771972656,70.0479736328125 -156.02781677246094,70.830078125 C-156.3518524169922,72.03348541259766 -155.97544860839844,72.66498565673828 -154.72523498535156,72.54888916015625 C-153.72970581054688,72.4564437866211 -153.65817260742188,72.06237030029297 -153.62738037109375,71.3371810913086 C-153.61021423339844,70.93961334228516 -153.87384033203125,70.55325317382812 -154.53662109375,70.22098541259766z"></path></g></g><g style="display: none;" transform="matrix(-0.05810685455799103,-1.4087178707122803,1.3402278423309326,-0.05528177693486214,1007.48779296875,132.1926727294922)" opacity="1"><g opacity="1" transform="matrix(1,0,0,1,0,0)"><path fill="rgb(58,255,133)" fill-opacity="1" d=" M-154.53662109375,70.22098541259766 C-155.00140380859375,69.98780822753906 -155.81678771972656,70.0479736328125 -156.02781677246094,70.830078125 C-156.3518524169922,72.03348541259766 -155.97544860839844,72.66498565673828 -154.72523498535156,72.54888916015625 C-153.72970581054688,72.4564437866211 -153.65817260742188,72.06237030029297 -153.62738037109375,71.3371810913086 C-153.61021423339844,70.93961334228516 -153.87384033203125,70.55325317382812 -154.53662109375,70.22098541259766z"></path></g></g><g style="display: none;" transform="matrix(-0.7204051613807678,0.0349816270172596,-0.03681493550539017,-0.7581599950790405,712.9751586914062,355.12188720703125)" opacity="1"><g opacity="1" transform="matrix(1,0,0,1,0,0)"><path fill="rgb(58,255,133)" fill-opacity="1" d=" M-154.10806274414062,67.51830291748047 C-155.63929748535156,66.75065612792969 -158.3263702392578,66.9481430053711 -159.0199737548828,69.52391815185547 C-160.0871124267578,73.48719787597656 -158.84652709960938,75.5639419555664 -154.73052978515625,75.18273162841797 C-151.4527587890625,74.87918853759766 -151.2167205810547,73.57962799072266 -151.11427307128906,71.19280242919922 C-151.0579071044922,69.88339233398438 -151.92625427246094,68.61166381835938 -154.10806274414062,67.51830291748047z"></path></g></g><g style="display: none;" transform="matrix(-0.2666168212890625,0.012946450151503086,-0.013828295283019543,-0.28477734327316284,1095.732666015625,346.831298828125)" opacity="1"><g opacity="1" transform="matrix(1,0,0,1,0,0)"><path fill="rgb(58,255,133)" fill-opacity="1" d=" M-154.10806274414062,67.51830291748047 C-155.63929748535156,66.75065612792969 -158.3263702392578,66.9481430053711 -159.0199737548828,69.52391815185547 C-160.0871124267578,73.48719787597656 -158.84652709960938,75.5639419555664 -154.73052978515625,75.18273162841797 C-151.4527587890625,74.87918853759766 -151.2167205810547,73.57962799072266 -151.11427307128906,71.19280242919922 C-151.0579071044922,69.88339233398438 -151.92625427246094,68.61166381835938 -154.10806274414062,67.51830291748047z"></path></g></g><g style="display: none;" transform="matrix(-0.2666168212890625,0.012946450151503086,-0.013828295283019543,-0.28477734327316284,588.4892578125,688.9324340820312)" opacity="1"><g opacity="1" transform="matrix(1,0,0,1,0,0)"><path fill="rgb(58,255,133)" fill-opacity="1" d=" M-154.10806274414062,67.51830291748047 C-155.63929748535156,66.75065612792969 -158.3263702392578,66.9481430053711 -159.0199737548828,69.52391815185547 C-160.0871124267578,73.48719787597656 -158.84652709960938,75.5639419555664 -154.73052978515625,75.18273162841797 C-151.4527587890625,74.87918853759766 -151.2167205810547,73.57962799072266 -151.11427307128906,71.19280242919922 C-151.0579071044922,69.88339233398438 -151.92625427246094,68.61166381835938 -154.10806274414062,67.51830291748047z"></path></g></g><g style="display: none;" transform="matrix(-0.8971940279006958,-0.4740378260612488,0.4530135989189148,-0.8574022054672241,850.2978515625,833.349365234375)" opacity="1"><g opacity="1" transform="matrix(1,0,0,1,0,0)"><path fill="rgb(58,255,133)" fill-opacity="1" d=" M-154.10806274414062,67.51830291748047 C-155.63929748535156,66.75065612792969 -158.3263702392578,66.9481430053711 -159.0199737548828,69.52391815185547 C-160.0871124267578,73.48719787597656 -158.84652709960938,75.5639419555664 -154.73052978515625,75.18273162841797 C-151.4527587890625,74.87918853759766 -151.2167205810547,73.57962799072266 -151.11427307128906,71.19280242919922 C-151.0579071044922,69.88339233398438 -151.92625427246094,68.61166381835938 -154.10806274414062,67.51830291748047z"></path></g></g><g style="display: none;" transform="matrix(-0.8344706892967224,0.040520451962947845,-0.0472598671913147,-0.9732610583305359,659.665771484375,300.5172119140625)" opacity="1"><g opacity="1" transform="matrix(1,0,0,1,0,0)"><path fill="rgb(58,255,133)" fill-opacity="1" d=" M-153.9866943359375,66.75293731689453 C-155.8199462890625,65.83393859863281 -159.03704833984375,66.0703125 -159.8673095703125,69.1540298461914 C-161.14488220214844,73.89887237548828 -159.65957641601562,76.38489532470703 -154.73204040527344,75.9286117553711 C-150.80795288085938,75.56527709960938 -150.52532958984375,74.00929260253906 -150.402587890625,71.15190887451172 C-150.3351287841797,69.58428192138672 -151.37472534179688,68.06183624267578 -153.9866943359375,66.75293731689453z"></path></g></g><g style="display: none;" transform="matrix(1.0748872756958008,-0.47827842831611633,0.49512097239494324,1.1127393245697021,748.2783813476562,522.205078125)" opacity="1"><g opacity="1" transform="matrix(1,0,0,1,0,0)"><path fill="rgb(58,255,133)" fill-opacity="1" d=" M-153.9866943359375,66.75293731689453 C-155.8199462890625,65.83393859863281 -159.03704833984375,66.0703125 -159.8673095703125,69.1540298461914 C-161.14488220214844,73.89887237548828 -159.65957641601562,76.38489532470703 -154.73204040527344,75.9286117553711 C-150.80795288085938,75.56527709960938 -150.52532958984375,74.00929260253906 -150.402587890625,71.15190887451172 C-150.3351287841797,69.58428192138672 -151.37472534179688,68.06183624267578 -153.9866943359375,66.75293731689453z"></path></g></g><g style="display: none;" transform="matrix(-1.119441032409668,0.37217146158218384,-0.44432106614112854,-1.3364571332931519,1111.8663330078125,723.8662719726562)" opacity="1"><g opacity="1" transform="matrix(1,0,0,1,0,0)"><path fill="rgb(58,255,133)" fill-opacity="1" d=" M-153.9866943359375,66.75293731689453 C-155.8199462890625,65.83393859863281 -159.03704833984375,66.0703125 -159.8673095703125,69.1540298461914 C-161.14488220214844,73.89887237548828 -159.65957641601562,76.38489532470703 -154.73204040527344,75.9286117553711 C-150.80795288085938,75.56527709960938 -150.52532958984375,74.00929260253906 -150.402587890625,71.15190887451172 C-150.3351287841797,69.58428192138672 -151.37472534179688,68.06183624267578 -153.9866943359375,66.75293731689453z"></path></g></g><g style="display: none;" transform="matrix(-0.3856326639652252,-0.708800733089447,0.711854100227356,-0.38729384541511536,1053.6522216796875,206.8684844970703)" opacity="1"><g opacity="1" transform="matrix(1,0,0,1,0,0)"><path fill="rgb(58,255,133)" fill-opacity="1" d=" M-153.9866943359375,66.75293731689453 C-155.8199462890625,65.83393859863281 -159.03704833984375,66.0703125 -159.8673095703125,69.1540298461914 C-161.14488220214844,73.89887237548828 -159.65957641601562,76.38489532470703 -154.73204040527344,75.9286117553711 C-150.80795288085938,75.56527709960938 -150.52532958984375,74.00929260253906 -150.402587890625,71.15190887451172 C-150.3351287841797,69.58428192138672 -151.37472534179688,68.06183624267578 -153.9866943359375,66.75293731689453z"></path></g></g><g style="display: none;" transform="matrix(0.1092594787478447,0.07687149196863174,-0.17832760512828827,0.25346171855926514,790.5809326171875,157.13491821289062)" opacity="1"><g opacity="1" transform="matrix(1,0,0,1,0,0)"><path fill="rgb(58,255,133)" fill-opacity="1" d=" M-154.05117797851562,67.15951538085938 C-155.72398376464844,66.32091522216797 -158.65953063964844,66.53663635253906 -159.4171905517578,69.35052490234375 C-160.58297729492188,73.68018341064453 -159.2276611328125,75.94879150390625 -154.73123168945312,75.53238677978516 C-151.15048217773438,75.20081329345703 -150.89260864257812,73.78104400634766 -150.78065490722656,71.17362976074219 C-150.71908569335938,69.74317932128906 -151.66770935058594,68.35391998291016 -154.05117797851562,67.15951538085938z"></path></g></g><g style="display: none;" transform="matrix(-0.8549840450286865,-1.0196890830993652,0.8188764452934265,-0.6866075992584229,842.8740234375,806.8062133789062)" opacity="1"><g opacity="1" transform="matrix(1,0,0,1,0,0)"><path fill="rgb(58,255,133)" fill-opacity="1" d=" M-154.05117797851562,67.15951538085938 C-155.72398376464844,66.32091522216797 -158.65953063964844,66.53663635253906 -159.4171905517578,69.35052490234375 C-160.58297729492188,73.68018341064453 -159.2276611328125,75.94879150390625 -154.73123168945312,75.53238677978516 C-151.15048217773438,75.20081329345703 -150.89260864257812,73.78104400634766 -150.78065490722656,71.17362976074219 C-150.71908569335938,69.74317932128906 -151.66770935058594,68.35391998291016 -154.05117797851562,67.15951538085938z"></path></g></g><g style="display: none;" transform="matrix(-0.8566914796829224,0.46282491087913513,-0.5601029992103577,-1.0367536544799805,1223.236572265625,727.5038452148438)" opacity="1"><g opacity="1" transform="matrix(1,0,0,1,0,0)"><path fill="rgb(58,255,133)" fill-opacity="1" d=" M-154.05117797851562,67.15951538085938 C-155.72398376464844,66.32091522216797 -158.65953063964844,66.53663635253906 -159.4171905517578,69.35052490234375 C-160.58297729492188,73.68018341064453 -159.2276611328125,75.94879150390625 -154.73123168945312,75.53238677978516 C-151.15048217773438,75.20081329345703 -150.89260864257812,73.78104400634766 -150.78065490722656,71.17362976074219 C-150.71908569335938,69.74317932128906 -151.66770935058594,68.35391998291016 -154.05117797851562,67.15951538085938z"></path></g></g><g style="display: none;" transform="matrix(-0.033582694828510284,0.3339778482913971,-0.4052344560623169,-0.040747810155153275,1206.57763671875,328.91510009765625)" opacity="1"><g opacity="1" transform="matrix(1,0,0,1,0,0)"><path fill="rgb(58,255,133)" fill-opacity="1" d=" M-154.05117797851562,67.15951538085938 C-155.72398376464844,66.32091522216797 -158.65953063964844,66.53663635253906 -159.4171905517578,69.35052490234375 C-160.58297729492188,73.68018341064453 -159.2276611328125,75.94879150390625 -154.73123168945312,75.53238677978516 C-151.15048217773438,75.20081329345703 -150.89260864257812,73.78104400634766 -150.78065490722656,71.17362976074219 C-150.71908569335938,69.74317932128906 -151.66770935058594,68.35391998291016 -154.05117797851562,67.15951538085938z"></path></g></g></g></g><g clip-path="url(#cp_BCEtgp1e)" style="display: none;" transform="matrix(0.7875000238418579,0,0,0.7875000238418579,-356,-25.25)" opacity="1"><g clip-path="url(#cp_axljHkK4)" style="display: block;" transform="matrix(1,0,0,1,0,0)" opacity="1"><g style="display: block;" transform="matrix(-0.05775241181254387,1.406084418296814,-1.406084418296814,-0.05775241181254387,960,540)" opacity="1"><g opacity="1" transform="matrix(1,0,0,1,0,0)"><path fill="rgb(58,255,133)" fill-opacity="1" d=" M19.152048110961914,-293.630126953125 C17.743024826049805,-293.4783020019531 17.618806838989258,-292.60675048828125 17.688222885131836,-291.67266845703125 C17.76088523864746,-290.6907043457031 18.450580596923828,-289.8942565917969 20.27204132080078,-290.07122802734375 C21.823549270629883,-290.2222595214844 21.881193161010742,-291.11370849609375 21.760629653930664,-291.8935241699219 C21.61814308166504,-292.8133850097656 21.189468383789062,-293.8493347167969 19.152048110961914,-293.630126953125z"></path></g></g><g style="display: block;" transform="matrix(-0.47033271193504333,-1.1671042442321777,1.497153878211975,-0.6033398509025574,960,540)" opacity="1"><g opacity="1" transform="matrix(1,0,0,1,0,0)"><path fill="rgb(58,255,133)" fill-opacity="1" d=" M19.643047332763672,-292.18646240234375 C19.391023635864258,-292.1593017578125 19.368806838989258,-292.00341796875 19.381221771240234,-291.8363342285156 C19.39421844482422,-291.66070556640625 19.517580032348633,-291.51824951171875 19.843374252319336,-291.5498962402344 C20.12088394165039,-291.5769348144531 20.131193161010742,-291.7363586425781 20.109628677368164,-291.8758544921875 C20.084142684936523,-292.0403747558594 20.007469177246094,-292.2256774902344 19.643047332763672,-292.18646240234375z"></path></g></g><g style="display: block;" transform="matrix(1.116912841796875,-0.7917552590370178,0.9519765973091125,1.3429336547851562,960,540)" opacity="1"><g opacity="1" transform="matrix(1,0,0,1,0,0)"><path fill="rgb(58,255,133)" fill-opacity="1" d=" M19.152048110961914,-293.630126953125 C17.743024826049805,-293.4783020019531 17.618806838989258,-292.60675048828125 17.688222885131836,-291.67266845703125 C17.76088523864746,-290.6907043457031 18.450580596923828,-289.8942565917969 20.27204132080078,-290.07122802734375 C21.823549270629883,-290.2222595214844 21.881193161010742,-291.11370849609375 21.760629653930664,-291.8935241699219 C21.61814308166504,-292.8133850097656 21.189468383789062,-293.8493347167969 19.152048110961914,-293.630126953125z"></path></g></g><g style="display: block;" transform="matrix(-1.4526829719543457,0.4444347620010376,-0.4320424497127533,-1.412177562713623,960,540)" opacity="1"><g opacity="1" transform="matrix(1,0,0,1,0,0)"><path fill="rgb(58,255,133)" fill-opacity="1" d=" M19.643047332763672,-292.18646240234375 C19.391023635864258,-292.1593017578125 19.368806838989258,-292.00341796875 19.381221771240234,-291.8363342285156 C19.39421844482422,-291.66070556640625 19.517580032348633,-291.51824951171875 19.843374252319336,-291.5498962402344 C20.12088394165039,-291.5769348144531 20.131193161010742,-291.7363586425781 20.109628677368164,-291.8758544921875 C20.084142684936523,-292.0403747558594 20.007469177246094,-292.2256774902344 19.643047332763672,-292.18646240234375z"></path></g></g><g style="display: block;" transform="matrix(1.1871598958969116,0.9308856725692749,-0.7867560386657715,1.003351092338562,960,540)" opacity="1"><g opacity="1" transform="matrix(1,0,0,1,0,0)"><path fill="rgb(58,255,133)" fill-opacity="1" d=" M19.643047332763672,-292.18646240234375 C19.391023635864258,-292.1593017578125 19.368806838989258,-292.00341796875 19.381221771240234,-291.8363342285156 C19.39421844482422,-291.66070556640625 19.517580032348633,-291.51824951171875 19.843374252319336,-291.5498962402344 C20.12088394165039,-291.5769348144531 20.131193161010742,-291.7363586425781 20.109628677368164,-291.8758544921875 C20.084142684936523,-292.0403747558594 20.007469177246094,-292.2256774902344 19.643047332763672,-292.18646240234375z"></path></g></g><g style="display: block;" transform="matrix(-0.3444667458534241,0.84989333152771,-0.7632019519805908,-0.3093302249908447,960,540)" opacity="1"><g opacity="1" transform="matrix(1,0,0,1,0,0)"><path fill="rgb(58,255,133)" fill-opacity="1" d=" M19.643047332763672,-292.18646240234375 C19.391023635864258,-292.1593017578125 19.368806838989258,-292.00341796875 19.381221771240234,-291.8363342285156 C19.39421844482422,-291.66070556640625 19.517580032348633,-291.51824951171875 19.843374252319336,-291.5498962402344 C20.12088394165039,-291.5769348144531 20.131193161010742,-291.7363586425781 20.109628677368164,-291.8758544921875 C20.084142684936523,-292.0403747558594 20.007469177246094,-292.2256774902344 19.643047332763672,-292.18646240234375z"></path></g></g><g style="display: block;" transform="matrix(0.6354153156280518,-0.9302628040313721,0.6445939540863037,0.4402894079685211,960,540)" opacity="1"><g opacity="1" transform="matrix(1,0,0,1,0,0)"><path fill="rgb(58,255,133)" fill-opacity="1" d=" M19.643047332763672,-292.18646240234375 C19.391023635864258,-292.1593017578125 19.368806838989258,-292.00341796875 19.381221771240234,-291.8363342285156 C19.39421844482422,-291.66070556640625 19.517580032348633,-291.51824951171875 19.843374252319336,-291.5498962402344 C20.12088394165039,-291.5769348144531 20.131193161010742,-291.7363586425781 20.109628677368164,-291.8758544921875 C20.084142684936523,-292.0403747558594 20.007469177246094,-292.2256774902344 19.643047332763672,-292.18646240234375z"></path></g></g><g style="display: block;" transform="matrix(-0.7022479772567749,-0.9834983944892883,0.7785618305206299,-0.5559170246124268,960,540)" opacity="1"><g opacity="1" transform="matrix(1,0,0,1,0,0)"><path fill="rgb(58,255,133)" fill-opacity="1" d=" M19.152048110961914,-293.630126953125 C17.743024826049805,-293.4783020019531 17.618806838989258,-292.60675048828125 17.688222885131836,-291.67266845703125 C17.76088523864746,-290.6907043457031 18.450580596923828,-289.8942565917969 20.27204132080078,-290.07122802734375 C21.823549270629883,-290.2222595214844 21.881193161010742,-291.11370849609375 21.760629653930664,-291.8935241699219 C21.61814308166504,-292.8133850097656 21.189468383789062,-293.8493347167969 19.152048110961914,-293.630126953125z"></path></g></g><g style="display: block;" transform="matrix(0.8844980001449585,0.39721232652664185,-0.3592892289161682,0.800052285194397,954.2457275390625,535.6974487304688)" opacity="1"><g opacity="1" transform="matrix(1,0,0,1,0,0)"><path fill="rgb(58,255,133)" fill-opacity="1" d=" M19.152048110961914,-293.630126953125 C17.743024826049805,-293.4783020019531 17.618806838989258,-292.60675048828125 17.688222885131836,-291.67266845703125 C17.76088523864746,-290.6907043457031 18.450580596923828,-289.8942565917969 20.27204132080078,-290.07122802734375 C21.823549270629883,-290.2222595214844 21.881193161010742,-291.11370849609375 21.760629653930664,-291.8935241699219 C21.61814308166504,-292.8133850097656 21.189468383789062,-293.8493347167969 19.152048110961914,-293.630126953125z"></path></g></g><g style="display: none;" transform="matrix(1.795283555984497,0.9573442935943604,-1.0504915714263916,1.9699604511260986,1345.397216796875,694.718994140625)" opacity="1"><g opacity="1" transform="matrix(1,0,0,1,0,0)"><path fill="rgb(58,255,133)" fill-opacity="1" d=" M-154.4266815185547,69.52765655517578 C-155.16505432128906,69.15736389160156 -156.46058654785156,69.25275421142578 -156.79541015625,70.49500274658203 C-157.31007385253906,72.40641021728516 -156.71197509765625,73.4086685180664 -154.72659301757812,73.22456359863281 C-153.1455841064453,73.07796478271484 -153.0318603515625,72.45159912109375 -152.98268127441406,71.30014038085938 C-152.95545959472656,70.66865539550781 -153.3742218017578,70.05516815185547 -154.4266815185547,69.52765655517578z"></path></g></g><g style="display: none;" transform="matrix(0.29579028487205505,-0.3474172353744507,0.22625036537647247,0.19262908399105072,1077.8890380859375,481.1212158203125)" opacity="1"><g opacity="1" transform="matrix(1,0,0,1,0,0)"><path fill="rgb(58,255,133)" fill-opacity="1" d=" M-154.4266815185547,69.52765655517578 C-155.16505432128906,69.15736389160156 -156.46058654785156,69.25275421142578 -156.79541015625,70.49500274658203 C-157.31007385253906,72.40641021728516 -156.71197509765625,73.4086685180664 -154.72659301757812,73.22456359863281 C-153.1455841064453,73.07796478271484 -153.0318603515625,72.45159912109375 -152.98268127441406,71.30014038085938 C-152.95545959472656,70.66865539550781 -153.3742218017578,70.05516815185547 -154.4266815185547,69.52765655517578z"></path></g></g><g style="display: none;" transform="matrix(-0.8467276096343994,0.29434818029403687,-0.35499680042266846,-1.0211906433105469,776.3092041015625,522.177001953125)" opacity="1"><g opacity="1" transform="matrix(1,0,0,1,0,0)"><path fill="rgb(58,255,133)" fill-opacity="1" d=" M-153.69093322753906,64.88765716552734 C-156.2602081298828,63.59979248046875 -160.76905822753906,63.930938720703125 -161.932373046875,68.25257873535156 C-163.72280883789062,74.90216827392578 -161.6410675048828,78.38563537597656 -154.73568725585938,77.74638366699219 C-149.2364959716797,77.23735809326172 -148.84034729003906,75.05644226074219 -148.6681365966797,71.05226135253906 C-148.57363891601562,68.8553237915039 -150.03057861328125,66.72183227539062 -153.69093322753906,64.88765716552734z"></path></g></g><g style="display: none;" transform="matrix(0.012124491855502129,0.9463817477226257,-0.8566052317619324,0.010974330827593803,811.4942016601562,767.5447387695312)" opacity="1"><g opacity="1" transform="matrix(1,0,0,1,0,0)"><path fill="rgb(58,255,133)" fill-opacity="1" d=" M-153.69093322753906,64.88765716552734 C-156.2602081298828,63.59979248046875 -160.76905822753906,63.930938720703125 -161.932373046875,68.25257873535156 C-163.72280883789062,74.90216827392578 -161.6410675048828,78.38563537597656 -154.73568725585938,77.74638366699219 C-149.2364959716797,77.23735809326172 -148.84034729003906,75.05644226074219 -148.6681365966797,71.05226135253906 C-148.57363891601562,68.8553237915039 -150.03057861328125,66.72183227539062 -153.69093322753906,64.88765716552734z"></path></g></g><g style="display: none;" transform="matrix(0.37684962153434753,0.10246548056602478,-0.12734800577163696,0.4683631360530853,1077.1973876953125,739.6414794921875)" opacity="1"><g opacity="1" transform="matrix(1,0,0,1,0,0)"><path fill="rgb(58,255,133)" fill-opacity="1" d=" M-153.69093322753906,64.88765716552734 C-156.2602081298828,63.59979248046875 -160.76905822753906,63.930938720703125 -161.932373046875,68.25257873535156 C-163.72280883789062,74.90216827392578 -161.6410675048828,78.38563537597656 -154.73568725585938,77.74638366699219 C-149.2364959716797,77.23735809326172 -148.84034729003906,75.05644226074219 -148.6681365966797,71.05226135253906 C-148.57363891601562,68.8553237915039 -150.03057861328125,66.72183227539062 -153.69093322753906,64.88765716552734z"></path></g></g><g style="display: none;" transform="matrix(0.14527350664138794,0.7682503461837769,-0.6874277591705322,0.12999023497104645,1159.323486328125,491.4732666015625)" opacity="1"><g opacity="1" transform="matrix(1,0,0,1,0,0)"><path fill="rgb(58,255,133)" fill-opacity="1" d=" M-153.69093322753906,64.88765716552734 C-156.2602081298828,63.59979248046875 -160.76905822753906,63.930938720703125 -161.932373046875,68.25257873535156 C-163.72280883789062,74.90216827392578 -161.6410675048828,78.38563537597656 -154.73568725585938,77.74638366699219 C-149.2364959716797,77.23735809326172 -148.84034729003906,75.05644226074219 -148.6681365966797,71.05226135253906 C-148.57363891601562,68.8553237915039 -150.03057861328125,66.72183227539062 -153.69093322753906,64.88765716552734z"></path></g></g><g style="display: none;" transform="matrix(-1.0621713399887085,0.36924293637275696,-0.4075451195240021,-1.1723521947860718,695.7466430664062,461.28240966796875)" opacity="1"><g opacity="1" transform="matrix(1,0,0,1,0,0)"><path fill="rgb(58,255,133)" fill-opacity="1" d=" M-154.1839599609375,67.99691772460938 C-155.52633666992188,67.32392120361328 -157.88194274902344,67.4970932006836 -158.49008178710938,69.7552261352539 C-159.42564392089844,73.2297592163086 -158.3380889892578,75.05056762695312 -154.72959899902344,74.71630859375 C-151.85597229003906,74.45014953613281 -151.64907836914062,73.3109359741211 -151.55931091308594,71.21836853027344 C-151.5098876953125,70.07044219970703 -152.27114868164062,68.95549774169922 -154.1839599609375,67.99691772460938z"></path></g></g><g style="display: none;" transform="matrix(0.5120206475257874,-0.6290536522865295,0.7414158582687378,0.6034783124923706,1196.919189453125,411.6944580078125)" opacity="1"><g opacity="1" transform="matrix(1,0,0,1,0,0)"><path fill="rgb(58,255,133)" fill-opacity="1" d=" M-154.1839599609375,67.99691772460938 C-155.52633666992188,67.32392120361328 -157.88194274902344,67.4970932006836 -158.49008178710938,69.7552261352539 C-159.42564392089844,73.2297592163086 -158.3380889892578,75.05056762695312 -154.72959899902344,74.71630859375 C-151.85597229003906,74.45014953613281 -151.64907836914062,73.3109359741211 -151.55931091308594,71.21836853027344 C-151.5098876953125,70.07044219970703 -152.27114868164062,68.95549774169922 -154.1839599609375,67.99691772460938z"></path></g></g><g style="display: none;" transform="matrix(0.564393937587738,0.16493339836597443,-0.18269267678260803,0.6251652240753174,1117.8409423828125,775.7700805664062)" opacity="1"><g opacity="1" transform="matrix(1,0,0,1,0,0)"><path fill="rgb(58,255,133)" fill-opacity="1" d=" M-154.1839599609375,67.99691772460938 C-155.52633666992188,67.32392120361328 -157.88194274902344,67.4970932006836 -158.49008178710938,69.7552261352539 C-159.42564392089844,73.2297592163086 -158.3380889892578,75.05056762695312 -154.72959899902344,74.71630859375 C-151.85597229003906,74.45014953613281 -151.64907836914062,73.3109359741211 -151.55931091308594,71.21836853027344 C-151.5098876953125,70.07044219970703 -152.27114868164062,68.95549774169922 -154.1839599609375,67.99691772460938z"></path></g></g><g style="display: none;" transform="matrix(0.02663043886423111,0.8459835648536682,-1.086015224456787,0.03418632224202156,773.8305053710938,775.4580688476562)" opacity="1"><g opacity="1" transform="matrix(1,0,0,1,0,0)"><path fill="rgb(58,255,133)" fill-opacity="1" d=" M-154.1839599609375,67.99691772460938 C-155.52633666992188,67.32392120361328 -157.88194274902344,67.4970932006836 -158.49008178710938,69.7552261352539 C-159.42564392089844,73.2297592163086 -158.3380889892578,75.05056762695312 -154.72959899902344,74.71630859375 C-151.85597229003906,74.45014953613281 -151.64907836914062,73.3109359741211 -151.55931091308594,71.21836853027344 C-151.5098876953125,70.07044219970703 -152.27114868164062,68.95549774169922 -154.1839599609375,67.99691772460938z"></path></g></g><g style="display: none;" transform="matrix(-0.05810685455799103,-1.4087178707122803,1.3402278423309326,-0.05528177693486214,1007.48779296875,132.1926727294922)" opacity="1"><g opacity="1" transform="matrix(1,0,0,1,0,0)"><path fill="rgb(58,255,133)" fill-opacity="1" d=" M-154.1839599609375,67.99691772460938 C-155.52633666992188,67.32392120361328 -157.88194274902344,67.4970932006836 -158.49008178710938,69.7552261352539 C-159.42564392089844,73.2297592163086 -158.3380889892578,75.05056762695312 -154.72959899902344,74.71630859375 C-151.85597229003906,74.45014953613281 -151.64907836914062,73.3109359741211 -151.55931091308594,71.21836853027344 C-151.5098876953125,70.07044219970703 -152.27114868164062,68.95549774169922 -154.1839599609375,67.99691772460938z"></path></g></g><g style="display: none;" transform="matrix(-0.7204051613807678,0.0349816270172596,-0.03681493550539017,-0.7581599950790405,712.9751586914062,355.12188720703125)" opacity="1"><g opacity="1" transform="matrix(1,0,0,1,0,0)"><path fill="rgb(58,255,133)" fill-opacity="1" d=" M-154.3697967529297,69.16886901855469 C-155.24972534179688,68.72763061523438 -156.79373168945312,68.84124755859375 -157.19261169433594,70.32160949707031 C-157.80593872070312,72.59939575195312 -157.09312438964844,73.79351043701172 -154.727294921875,73.57421112060547 C-152.84332275390625,73.39958953857422 -152.70774841308594,72.65301513671875 -152.64906311035156,71.28097534179688 C-152.61663818359375,70.5284423828125 -153.1156768798828,69.79741668701172 -154.3697967529297,69.16886901855469z"></path></g></g><g style="display: none;" transform="matrix(-0.2666168212890625,0.012946450151503086,-0.013828295283019543,-0.28477734327316284,1095.732666015625,346.831298828125)" opacity="1"><g opacity="1" transform="matrix(1,0,0,1,0,0)"><path fill="rgb(58,255,133)" fill-opacity="1" d=" M-154.3697967529297,69.16886901855469 C-155.24972534179688,68.72763061523438 -156.79373168945312,68.84124755859375 -157.19261169433594,70.32160949707031 C-157.80593872070312,72.59939575195312 -157.09312438964844,73.79351043701172 -154.727294921875,73.57421112060547 C-152.84332275390625,73.39958953857422 -152.70774841308594,72.65301513671875 -152.64906311035156,71.28097534179688 C-152.61663818359375,70.5284423828125 -153.1156768798828,69.79741668701172 -154.3697967529297,69.16886901855469z"></path></g></g><g style="display: none;" transform="matrix(-0.2666168212890625,0.012946450151503086,-0.013828295283019543,-0.28477734327316284,588.4892578125,688.9324340820312)" opacity="1"><g opacity="1" transform="matrix(1,0,0,1,0,0)"><path fill="rgb(58,255,133)" fill-opacity="1" d=" M-154.3697967529297,69.16886901855469 C-155.24972534179688,68.72763061523438 -156.79373168945312,68.84124755859375 -157.19261169433594,70.32160949707031 C-157.80593872070312,72.59939575195312 -157.09312438964844,73.79351043701172 -154.727294921875,73.57421112060547 C-152.84332275390625,73.39958953857422 -152.70774841308594,72.65301513671875 -152.64906311035156,71.28097534179688 C-152.61663818359375,70.5284423828125 -153.1156768798828,69.79741668701172 -154.3697967529297,69.16886901855469z"></path></g></g><g style="display: none;" transform="matrix(-0.8971940279006958,-0.4740378260612488,0.4530135989189148,-0.8574022054672241,850.2978515625,833.349365234375)" opacity="1"><g opacity="1" transform="matrix(1,0,0,1,0,0)"><path fill="rgb(58,255,133)" fill-opacity="1" d=" M-154.3697967529297,69.16886901855469 C-155.24972534179688,68.72763061523438 -156.79373168945312,68.84124755859375 -157.19261169433594,70.32160949707031 C-157.80593872070312,72.59939575195312 -157.09312438964844,73.79351043701172 -154.727294921875,73.57421112060547 C-152.84332275390625,73.39958953857422 -152.70774841308594,72.65301513671875 -152.64906311035156,71.28097534179688 C-152.61663818359375,70.5284423828125 -153.1156768798828,69.79741668701172 -154.3697967529297,69.16886901855469z"></path></g></g><g style="display: none;" transform="matrix(-0.8344706892967224,0.040520451962947845,-0.0472598671913147,-0.9732610583305359,659.665771484375,300.5172119140625)" opacity="1"><g opacity="1" transform="matrix(1,0,0,1,0,0)"><path fill="rgb(58,255,133)" fill-opacity="1" d=" M-153.634033203125,64.52886962890625 C-156.34487915039062,63.17005157470703 -161.1022186279297,63.519432067871094 -162.32958984375,68.07918548583984 C-164.2186737060547,75.09515380859375 -162.022216796875,78.77047729492188 -154.73638916015625,78.09603118896484 C-148.93421936035156,77.5589828491211 -148.5162353515625,75.25786590576172 -148.3345184326172,71.03309631347656 C-148.2348175048828,68.7151107788086 -149.77203369140625,66.46408081054688 -153.634033203125,64.52886962890625z"></path></g></g><g style="display: none;" transform="matrix(1.0748872756958008,-0.47827842831611633,0.49512097239494324,1.1127393245697021,748.2783813476562,522.205078125)" opacity="1"><g opacity="1" transform="matrix(1,0,0,1,0,0)"><path fill="rgb(58,255,133)" fill-opacity="1" d=" M-153.634033203125,64.52886962890625 C-156.34487915039062,63.17005157470703 -161.1022186279297,63.519432067871094 -162.32958984375,68.07918548583984 C-164.2186737060547,75.09515380859375 -162.022216796875,78.77047729492188 -154.73638916015625,78.09603118896484 C-148.93421936035156,77.5589828491211 -148.5162353515625,75.25786590576172 -148.3345184326172,71.03309631347656 C-148.2348175048828,68.7151107788086 -149.77203369140625,66.46408081054688 -153.634033203125,64.52886962890625z"></path></g></g><g style="display: none;" transform="matrix(-1.119441032409668,0.37217146158218384,-0.44432106614112854,-1.3364571332931519,1111.8663330078125,723.8662719726562)" opacity="1"><g opacity="1" transform="matrix(1,0,0,1,0,0)"><path fill="rgb(58,255,133)" fill-opacity="1" d=" M-153.634033203125,64.52886962890625 C-156.34487915039062,63.17005157470703 -161.1022186279297,63.519432067871094 -162.32958984375,68.07918548583984 C-164.2186737060547,75.09515380859375 -162.022216796875,78.77047729492188 -154.73638916015625,78.09603118896484 C-148.93421936035156,77.5589828491211 -148.5162353515625,75.25786590576172 -148.3345184326172,71.03309631347656 C-148.2348175048828,68.7151107788086 -149.77203369140625,66.46408081054688 -153.634033203125,64.52886962890625z"></path></g></g><g style="display: none;" transform="matrix(-0.3856326639652252,-0.708800733089447,0.711854100227356,-0.38729384541511536,1053.6522216796875,206.8684844970703)" opacity="1"><g opacity="1" transform="matrix(1,0,0,1,0,0)"><path fill="rgb(58,255,133)" fill-opacity="1" d=" M-153.634033203125,64.52886962890625 C-156.34487915039062,63.17005157470703 -161.1022186279297,63.519432067871094 -162.32958984375,68.07918548583984 C-164.2186737060547,75.09515380859375 -162.022216796875,78.77047729492188 -154.73638916015625,78.09603118896484 C-148.93421936035156,77.5589828491211 -148.5162353515625,75.25786590576172 -148.3345184326172,71.03309631347656 C-148.2348175048828,68.7151107788086 -149.77203369140625,66.46408081054688 -153.634033203125,64.52886962890625z"></path></g></g><g style="display: none;" transform="matrix(0.1092594787478447,0.07687149196863174,-0.17832760512828827,0.25346171855926514,790.5809326171875,157.13491821289062)" opacity="1"><g opacity="1" transform="matrix(1,0,0,1,0,0)"><path fill="rgb(58,255,133)" fill-opacity="1" d=" M-154.31289672851562,68.8100814819336 C-155.33441162109375,68.29788970947266 -157.12689208984375,68.42974090576172 -157.58982849121094,70.14820861816406 C-158.3018035888672,72.7923812866211 -157.47425842285156,74.17835235595703 -154.72801208496094,73.92385864257812 C-152.54104614257812,73.7212142944336 -152.38363647460938,72.85443878173828 -152.31544494628906,71.26181030273438 C-152.27780151367188,70.38822937011719 -152.8571319580078,69.53966522216797 -154.31289672851562,68.8100814819336z"></path></g></g><g style="display: none;" transform="matrix(-0.8549840450286865,-1.0196890830993652,0.8188764452934265,-0.6866075992584229,842.8740234375,806.8062133789062)" opacity="1"><g opacity="1" transform="matrix(1,0,0,1,0,0)"><path fill="rgb(58,255,133)" fill-opacity="1" d=" M-154.31289672851562,68.8100814819336 C-155.33441162109375,68.29788970947266 -157.12689208984375,68.42974090576172 -157.58982849121094,70.14820861816406 C-158.3018035888672,72.7923812866211 -157.47425842285156,74.17835235595703 -154.72801208496094,73.92385864257812 C-152.54104614257812,73.7212142944336 -152.38363647460938,72.85443878173828 -152.31544494628906,71.26181030273438 C-152.27780151367188,70.38822937011719 -152.8571319580078,69.53966522216797 -154.31289672851562,68.8100814819336z"></path></g></g><g style="display: none;" transform="matrix(-0.8566914796829224,0.46282491087913513,-0.5601029992103577,-1.0367536544799805,1223.236572265625,727.5038452148438)" opacity="1"><g opacity="1" transform="matrix(1,0,0,1,0,0)"><path fill="rgb(58,255,133)" fill-opacity="1" d=" M-154.31289672851562,68.8100814819336 C-155.33441162109375,68.29788970947266 -157.12689208984375,68.42974090576172 -157.58982849121094,70.14820861816406 C-158.3018035888672,72.7923812866211 -157.47425842285156,74.17835235595703 -154.72801208496094,73.92385864257812 C-152.54104614257812,73.7212142944336 -152.38363647460938,72.85443878173828 -152.31544494628906,71.26181030273438 C-152.27780151367188,70.38822937011719 -152.8571319580078,69.53966522216797 -154.31289672851562,68.8100814819336z"></path></g></g><g style="display: none;" transform="matrix(-0.033582694828510284,0.3339778482913971,-0.4052344560623169,-0.040747810155153275,1206.57763671875,328.91510009765625)" opacity="1"><g opacity="1" transform="matrix(1,0,0,1,0,0)"><path fill="rgb(58,255,133)" fill-opacity="1" d=" M-154.31289672851562,68.8100814819336 C-155.33441162109375,68.29788970947266 -157.12689208984375,68.42974090576172 -157.58982849121094,70.14820861816406 C-158.3018035888672,72.7923812866211 -157.47425842285156,74.17835235595703 -154.72801208496094,73.92385864257812 C-152.54104614257812,73.7212142944336 -152.38363647460938,72.85443878173828 -152.31544494628906,71.26181030273438 C-152.27780151367188,70.38822937011719 -152.8571319580078,69.53966522216797 -154.31289672851562,68.8100814819336z"></path></g></g></g></g><g transform="matrix(1,0,0,1,122.0469970703125,404.7462158203125)" opacity="0.46873591900747186" style="display: block;"><g opacity="1" transform="matrix(1,0,0,1,277.9530029296875,187.36199951171875)"><path fill="url(#gr_GG46OVMrBv)" fill-opacity="1" d=" M254.10400390625,-44.249000549316406 C254.10400390625,-44.249000549316406 160.69700622558594,-105.72699737548828 160.69700622558594,-105.72699737548828 C160.69700622558594,-105.72699737548828 67.29100036621094,-167.2050018310547 67.29100036621094,-167.2050018310547 C46.87300109863281,-180.64300537109375 23.437000274658203,-187.36199951171875 0,-187.36199951171875 C-23.437000274658203,-187.36199951171875 -46.87300109863281,-180.64300537109375 -67.29100036621094,-167.2050018310547 C-67.29100036621094,-167.2050018310547 -160.69700622558594,-105.72699737548828 -160.69700622558594,-105.72699737548828 C-160.69700622558594,-105.72699737548828 -254.10400390625,-44.249000549316406 -254.10400390625,-44.249000549316406 C-270.00299072265625,-33.784000396728516 -277.9530029296875,-16.892000198364258 -277.9530029296875,0 C-277.9530029296875,16.89299964904785 -270.00299072265625,33.784000396728516 -254.10400390625,44.249000549316406 C-254.10400390625,44.249000549316406 -160.69700622558594,105.72799682617188 -160.69700622558594,105.72799682617188 C-160.69700622558594,105.72799682617188 -67.29100036621094,167.2050018310547 -67.29100036621094,167.2050018310547 C-46.87300109863281,180.6439971923828 -23.437000274658203,187.36300659179688 0,187.36300659179688 C23.437000274658203,187.36300659179688 46.87300109863281,180.6439971923828 67.29100036621094,167.2050018310547 C67.29100036621094,167.2050018310547 160.69700622558594,105.72799682617188 160.69700622558594,105.72799682617188 C160.69700622558594,105.72799682617188 254.10400390625,44.249000549316406 254.10400390625,44.249000549316406 C270.00299072265625,33.784000396728516 277.9530029296875,16.89299964904785 277.9530029296875,0 C277.9530029296875,-16.892000198364258 270.00299072265625,-33.784000396728516 254.10400390625,-44.249000549316406z"></path><g opacity="1" transform="matrix(1,0,0,1,0,0)"></g></g></g><g transform="matrix(1,0,0,1,122.0469970703125,132.14889526367188)" opacity="0.04434685794051512" style="display: block;"><g opacity="1" transform="matrix(1,0,0,1,277.9530029296875,187.36199951171875)"><path fill="url(#gr_B14mWxQmB8)" fill-opacity="1" d=" M254.10400390625,-44.249000549316406 C254.10400390625,-44.249000549316406 160.69700622558594,-105.72699737548828 160.69700622558594,-105.72699737548828 C160.69700622558594,-105.72699737548828 67.29100036621094,-167.2050018310547 67.29100036621094,-167.2050018310547 C46.87300109863281,-180.64300537109375 23.437000274658203,-187.36199951171875 0,-187.36199951171875 C-23.437000274658203,-187.36199951171875 -46.87300109863281,-180.64300537109375 -67.29100036621094,-167.2050018310547 C-67.29100036621094,-167.2050018310547 -160.69700622558594,-105.72699737548828 -160.69700622558594,-105.72699737548828 C-160.69700622558594,-105.72699737548828 -254.10400390625,-44.249000549316406 -254.10400390625,-44.249000549316406 C-270.00299072265625,-33.78499984741211 -277.9530029296875,-16.892000198364258 -277.9530029296875,0 C-277.9530029296875,16.892000198364258 -270.00299072265625,33.78499984741211 -254.10400390625,44.25 C-254.10400390625,44.25 -160.69700622558594,105.72699737548828 -160.69700622558594,105.72699737548828 C-160.69700622558594,105.72699737548828 -67.29100036621094,167.2050018310547 -67.29100036621094,167.2050018310547 C-46.87300109863281,180.6439971923828 -23.437000274658203,187.36199951171875 0,187.36199951171875 C23.437000274658203,187.36199951171875 46.87300109863281,180.6439971923828 67.29100036621094,167.2050018310547 C67.29100036621094,167.2050018310547 160.69700622558594,105.72699737548828 160.69700622558594,105.72699737548828 C160.69700622558594,105.72699737548828 254.10400390625,44.25 254.10400390625,44.25 C270.00299072265625,33.78499984741211 277.9530029296875,16.892000198364258 277.9530029296875,0 C277.9530029296875,-16.892000198364258 270.00299072265625,-33.78499984741211 254.10400390625,-44.249000549316406z"></path><g opacity="1" transform="matrix(1,0,0,1,0,0)"></g></g></g><g transform="matrix(1,0,0,1,121.7969970703125,259.4606018066406)" opacity="0.0075671526151252526" style="display: none;"><g opacity="1" transform="matrix(1,0,0,1,278.2030029296875,187.61199951171875)"><path fill="url(#gr_uyWJneQB9L)" fill-opacity="1" d=" M-67.29100036621094,-167.20399475097656 C-67.29100036621094,-167.20399475097656 -160.69700622558594,-105.72699737548828 -160.69700622558594,-105.72699737548828 C-160.69700622558594,-105.72699737548828 -254.10400390625,-44.249000549316406 -254.10400390625,-44.249000549316406 C-270.00299072265625,-33.784000396728516 -277.9530029296875,-16.892000198364258 -277.9530029296875,0 C-277.9530029296875,16.89299964904785 -270.00299072265625,33.78499984741211 -254.10400390625,44.25 C-254.10400390625,44.25 -160.69700622558594,105.72799682617188 -160.69700622558594,105.72799682617188 C-160.69700622558594,105.72799682617188 -67.29100036621094,167.2050018310547 -67.29100036621094,167.2050018310547 C-46.87300109863281,180.6439971923828 -23.43600082397461,187.36199951171875 0,187.36199951171875 C23.43600082397461,187.36199951171875 46.87300109863281,180.6439971923828 67.29100036621094,167.2050018310547 C67.29100036621094,167.2050018310547 160.69700622558594,105.72799682617188 160.69700622558594,105.72799682617188 C160.69700622558594,105.72799682617188 254.10400390625,44.25 254.10400390625,44.25 C270.00299072265625,33.78499984741211 277.9530029296875,16.89299964904785 277.9530029296875,0 C277.9530029296875,-16.892000198364258 270.00299072265625,-33.784000396728516 254.10400390625,-44.249000549316406 C254.10400390625,-44.249000549316406 160.69700622558594,-105.72699737548828 160.69700622558594,-105.72699737548828 C160.69700622558594,-105.72699737548828 67.29100036621094,-167.20399475097656 67.29100036621094,-167.20399475097656 C46.87300109863281,-180.64300537109375 23.43600082397461,-187.36199951171875 0,-187.36199951171875 C-23.43600082397461,-187.36199951171875 -46.87300109863281,-180.64300537109375 -67.29100036621094,-167.20399475097656z"></path><g opacity="1" transform="matrix(1,0,0,1,0,0)"></g></g></g><g style="display: none;" transform="matrix(1,0,0,1,395.1099853515625,125.53299713134766)" opacity="0.0032813164419761166"><g opacity="1" transform="matrix(1,0,0,1,90.25,84.87899780273438)"><path fill="url(#gr_tEG2X3Dksk)" mask="url(#mk_rBnLUuLAti)" fill-opacity="1" d="M0 0 M75.33699798583984,-25.67799949645996 C75.33699798583984,-25.67799949645996 -14.609999656677246,-84.87899780273438 -14.609999656677246,-84.87899780273438 C-26.520000457763672,-78.39199829101562 -37.736000061035156,-70.16600036621094 -47.814998626708984,-60.08700180053711 C-66.78800201416016,-41.11399841308594 -79.39299774169922,-18.19499969482422 -85.64199829101562,6.0269999504089355 C-91.89099884033203,30.249000549316406 -91.78299713134766,55.77399826049805 -85.3270034790039,79.95800018310547 C-61.14500045776367,86.41200256347656 -35.62200164794922,86.51699829101562 -11.401000022888184,80.26599884033203 C12.821000099182129,74.01599884033203 35.73899841308594,61.409000396728516 54.70899963378906,42.43899917602539 C71.62799835205078,25.523000717163086 83.45099639892578,5.458000183105469 90.25,-15.86299991607666 C90.25,-15.86299991607666 75.33699798583984,-25.67799949645996 75.33699798583984,-25.67799949645996z"></path><g opacity="1" transform="matrix(1,0,0,1,0,0)"></g></g></g><g style="display: none;" transform="matrix(0,0,0,0,399.7569885253906,287.7279968261719)" opacity="1"><g opacity="1" transform="matrix(1,0,0,1,0,0)"><path fill="url(#gr_hLVeGTqS3W)" mask="url(#mk_Kh6RcDyBHR)" fill-opacity="1" d="M0 0"></path></g><g opacity="1" transform="matrix(1,0,0,1,82.69400024414062,108.98300170898438)"><path fill="url(#gr_Qynl1fhsDG)" mask="url(#mk_YKpw3h0qmE)" fill-opacity="1" d="M0 0 M-8.715999603271484,-89.8949966430664 C-30.493999481201172,-77.58999633789062 -49.369998931884766,-59.483001708984375 -62.784000396728516,-36.249000549316406 C-76.20099639892578,-13.01200008392334 -82.44499969482422,12.38700008392334 -82.21099853515625,37.402000427246094 C-81.97799682617188,62.41600036621094 -75.26599884033203,87.04399871826172 -62.77199935913086,108.73300170898438 C-37.744998931884766,108.70800018310547 -13.062999725341797,102.2040023803711 8.71500015258789,89.89700317382812 C30.493000030517578,77.59100341796875 49.36899948120117,59.481998443603516 62.78300094604492,36.24599838256836 C76.19999694824219,13.012999534606934 82.44499969482422,-12.38599967956543 82.21199798583984,-37.400001525878906 C81.97899627685547,-62.41400146484375 75.26899719238281,-87.04399871826172 62.775001525878906,-108.73300170898438 C37.744998931884766,-108.70500183105469 13.062000274658203,-102.19999694824219 -8.715999603271484,-89.8949966430664z"></path><g opacity="1" transform="matrix(1,0,0,1,0,0)"></g></g></g><g style="display: none;" transform="matrix(0,0,0,0,399.927001953125,288.22100830078125)" opacity="1"><g opacity="1" transform="matrix(1,0,0,1,63.387001037597656,106.197998046875)"><path fill="url(#gr_aNCCnZrnmd)" mask="url(#mk_Rxr5GVlYzD)" fill-opacity="1" d="M0 0 M20.073999404907227,69.54299926757812 C37.92499923706055,52.02000045776367 51.470001220703125,29.64299964904785 58.41299819946289,3.7279999256134033 C65.35900115966797,-22.18600082397461 64.81700134277344,-48.33700180053711 58.11800003051758,-72.43900299072266 C54.82699966430664,-84.28099822998047 50.03300094604492,-95.61799621582031 43.926998138427734,-106.1989974975586 C32.1609992980957,-103.03399658203125 20.785999298095703,-98.41799926757812 10.11299991607666,-92.38899993896484 C-11.664999961853027,-80.08300018310547 -30.540000915527344,-61.97700119018555 -43.95399856567383,-38.742000579833984 C-57.36899948120117,-15.505000114440918 -63.61399841308594,9.895000457763672 -63.38100051879883,34.909000396728516 C-63.14799880981445,59.90700149536133 -56.444000244140625,84.51899719238281 -43.9640007019043,106.197998046875 C-19.850000381469727,99.68499755859375 2.257999897003174,87.03299713134766 20.073999404907227,69.54299926757812z"></path><g opacity="1" transform="matrix(1,0,0,1,0,0)"></g></g></g><g style="display: none;" transform="matrix(0,0,0,0,398.97100830078125,286.9100036621094)" opacity="1"><g opacity="1" transform="matrix(1,0,0,1,72.74700164794922,125.8010025024414)"><path fill="url(#gr_P7b3MIpVPq)" mask="url(#mk_R72Ileg1lO)" fill-opacity="1" d="M0 0 M-52.49599838256836,-73.49299621582031 C-65.2040023803711,-51.946998596191406 -72.49700164794922,-26.827999114990234 -72.49700164794922,0.0010000000474974513 C-72.49700164794922,26.829999923706055 -65.2040023803711,51.95100021362305 -52.494998931884766,73.49700164794922 C-39.7869987487793,95.04299926757812 -21.660999298095703,113.01499938964844 0.004000000189989805,125.5510025024414 C21.666000366210938,113.01499938964844 39.78900146484375,95.04199981689453 52.49599838256836,73.49500274658203 C65.2030029296875,51.94900131225586 72.49500274658203,26.82900047302246 72.49500274658203,0.0010000000474974513 C72.49700164794922,-26.827999114990234 65.20600128173828,-51.94900131225586 52.49700164794922,-73.49500274658203 C39.78799819946289,-95.04199981689453 21.663000106811523,-113.01499938964844 -0.003000000026077032,-125.5510025024414 C-21.665000915527344,-113.01200103759766 -39.78799819946289,-95.04000091552734 -52.49599838256836,-73.49299621582031z"></path><g opacity="1" transform="matrix(1,0,0,1,0,0)"></g></g></g></g></svg>