<svg height="1200" preserveaspectratio="xMidYMid meet" style="width: 100%; height: 100%; transform: translate3d(0px, 0px, 0px);" viewbox="0 0 1200 1200" width="1200" xmlns="http://www.w3.org/2000/svg"><defs><clippath id="__lottie_element_2"><rect height="1200" width="1200" x="0" y="0"></rect></clippath><clippath id="__lottie_element_4"><path d="M0,0 L1200,0 L1200,1200 L0,1200z"></path></clippath><clippath id="__lottie_element_23"><path clip-rule="nonzero" d=" M4,-143 C-153.9530029296875,-143 -282,-15.177000045776367 -282,142.5 C-282,300.177001953125 -153.9530029296875,428 4,428 C161.9530029296875,428 290,300.177001953125 290,142.5 C290,-15.177000045776367 161.9530029296875,-143 4,-143" fill="#ffffff" fill-opacity="1"></path></clippath></defs><g clip-path="url(#__lottie_element_2)"><g clip-path="url(#__lottie_element_23)" opacity="1" style="display: block;" transform="matrix(1,0,0,1,600,600)"><g opacity="1" transform="matrix(1,0,0,1,-601,-601)"><g opacity="1" transform="matrix(1,0,0,1,604.4580078125,742.6669921875)"><path d=" M0,285.3330078125 C157.58599853515625,285.3330078125 285.3330078125,157.5850067138672 285.3330078125,0 C285.3330078125,-157.5850067138672 157.58599853515625,-285.3330078125 0,-285.3330078125 C-157.5850067138672,-285.3330078125 -285.3330078125,-157.5850067138672 -285.3330078125,0 C-285.3330078125,157.5850067138672 -157.5850067138672,285.3330078125 0,285.3330078125z" fill="rgb(247,216,122)" fill-opacity="1"></path></g></g><g opacity="1" transform="matrix(1,0,0,1,-701.4296264648438,0)"><path d=" M16,-142 C70,-232 -178,28 -112,6 C-46,-16 -70,152 -86,180 C-102,208 -190,216 -120,258 C-50,300 -166,408 -166,408 C-166,408 -94,410 -22,344 C50,278 -28,74 -28,74 C-28,74 -38,-52 16,-142z" fill="rgb(245,205,89)" fill-opacity="1"></path></g><g opacity="1" transform="matrix(1,0,0,1,-101.42962646484375,0)"><path d=" M16,-142 C70,-232 -178,28 -112,6 C-46,-16 -70,152 -86,180 C-102,208 -190,216 -120,258 C-50,300 -166,408 -166,408 C-166,408 -94,410 -22,344 C50,278 -28,74 -28,74 C-28,74 -38,-52 16,-142z" fill="rgb(245,205,89)" fill-opacity="1"></path></g><g opacity="1" transform="matrix(1,0,0,1,498.57037353515625,0)"><path d=" M16,-142 C70,-232 -178,28 -112,6 C-46,-16 -70,152 -86,180 C-102,208 -190,216 -120,258 C-50,300 -166,408 -166,408 C-166,408 -94,410 -22,344 C50,278 -28,74 -28,74 C-28,74 -38,-52 16,-142z" fill="rgb(245,205,89)" fill-opacity="1"></path></g><g opacity="1" transform="matrix(1,0,0,1,1098.5704345703125,0)"><path d=" M16,-142 C70,-232 -178,28 -112,6 C-46,-16 -70,152 -86,180 C-102,208 -190,216 -120,258 C-50,300 -166,408 -166,408 C-166,408 -94,410 -22,344 C50,278 -28,74 -28,74 C-28,74 -38,-52 16,-142z" fill="rgb(245,205,89)" fill-opacity="1"></path></g><g opacity="1" transform="matrix(1,0,0,1,1698.5704345703125,0)"><path d=" M16,-142 C70,-232 -178,28 -112,6 C-46,-16 -70,152 -86,180 C-102,208 -190,216 -120,258 C-50,300 -166,408 -166,408 C-166,408 -94,410 -22,344 C50,278 -28,74 -28,74 C-28,74 -38,-52 16,-142z" fill="rgb(245,205,89)" fill-opacity="1"></path></g><g opacity="1" transform="matrix(1,0,0,1,2298.5703125,0)"><path d=" M16,-142 C70,-232 -178,28 -112,6 C-46,-16 -70,152 -86,180 C-102,208 -190,216 -120,258 C-50,300 -166,408 -166,408 C-166,408 -94,410 -22,344 C50,278 -28,74 -28,74 C-28,74 -38,-52 16,-142z" fill="rgb(245,205,89)" fill-opacity="1"></path></g></g><g opacity="1" style="display: block;" transform="matrix(1,0,0,1,0,0)"><g opacity="1" transform="matrix(1,0,0,1,0,0)"><g opacity="1" transform="matrix(1,0,0,1,889.791015625,314.6669921875)"><path d=" M0.0010000000474974513,142.66700744628906 C78.79299926757812,142.66700744628906 142.66700744628906,78.79199981689453 142.66700744628906,0 C142.66700744628906,-78.79199981689453 78.79299926757812,-142.66700744628906 0.0010000000474974513,-142.66700744628906 C-78.79199981689453,-142.66700744628906 -142.66600036621094,-78.79199981689453 -142.66600036621094,0 C-142.66600036621094,78.79199981689453 -78.79199981689453,142.66700744628906 0.0010000000474974513,142.66700744628906z" fill="rgb(116,200,193)" fill-opacity="1"></path></g><g opacity="1" transform="matrix(1,0,0,1,836.291015625,279)"><path d=" M0.0010000000474974513,35.66600036621094 C19.698999404907227,35.66600036621094 35.66699981689453,19.697999954223633 35.66699981689453,-0.0010000000474974513 C35.66699981689453,-19.698999404907227 19.698999404907227,-35.66600036621094 0.0010000000474974513,-35.66600036621094 C-19.69700050354004,-35.66600036621094 -35.66699981689453,-19.698999404907227 -35.66699981689453,-0.0010000000474974513 C-35.66699981689453,19.697999954223633 -19.69700050354004,35.66600036621094 0.0010000000474974513,35.66600036621094z" fill="rgb(90,190,186)" fill-opacity="1"></path></g><g opacity="1" transform="matrix(1,0,0,1,943.291015625,368.1669921875)"><path d=" M0.0010000000474974513,17.83300018310547 C9.850000381469727,17.83300018310547 17.83300018310547,9.850000381469727 17.83300018310547,0.0010000000474974513 C17.83300018310547,-9.848999977111816 9.850000381469727,-17.83300018310547 0.0010000000474974513,-17.83300018310547 C-9.848999977111816,-17.83300018310547 -17.83300018310547,-9.848999977111816 -17.83300018310547,0.0010000000474974513 C-17.83300018310547,9.850000381469727 -9.848999977111816,17.83300018310547 0.0010000000474974513,17.83300018310547z" fill="rgb(90,190,186)" fill-opacity="1"></path></g></g></g><g opacity="1" style="display: block;" transform="matrix(1,0,0,1,0,0)"><g opacity="1" transform="matrix(1,0,0,1,996.791015625,653.5)"><path d=" M0.0010000000474974513,17.83300018310547 C9.850000381469727,17.83300018310547 17.83300018310547,9.850000381469727 17.83300018310547,0 C17.83300018310547,-9.850000381469727 9.850000381469727,-17.83300018310547 0.0010000000474974513,-17.83300018310547 C-9.848999977111816,-17.83300018310547 -17.83300018310547,-9.850000381469727 -17.83300018310547,0 C-17.83300018310547,9.850000381469727 -9.848999977111816,17.83300018310547 0.0010000000474974513,17.83300018310547z" fill="rgb(245,204,89)" fill-opacity="1"></path></g></g><g opacity="1" style="display: block;" transform="matrix(1,0,0,1,0,0)"><g opacity="1" transform="matrix(1,0,0,1,443.9580078125,314.6669921875)"><path d=" M0,17.83300018310547 C9.848999977111816,17.83300018310547 17.83300018310547,9.850000381469727 17.83300018310547,0.0010000000474974513 C17.83300018310547,-9.848999977111816 9.848999977111816,-17.83300018310547 0,-17.83300018310547 C-9.848999977111816,-17.83300018310547 -17.83300018310547,-9.848999977111816 -17.83300018310547,0.0010000000474974513 C-17.83300018310547,9.850000381469727 -9.848999977111816,17.83300018310547 0,17.83300018310547z" fill="rgb(245,204,89)" fill-opacity="1"></path></g></g><g opacity="1" style="display: block;" transform="matrix(1,0,0,1,600,600)"><g opacity="1" transform="matrix(1,0,0,1,0,0)"><path d=" M-294,34 C-294,34 -423,60.909000396728516 -423,149 C-423,270 -78,289.9242858886719 -78,289.9242858886719" fill-opacity="0" stroke="rgb(70,67,91)" stroke-linecap="round" stroke-linejoin="miter" stroke-miterlimit="4" stroke-opacity="1" stroke-width="20"></path></g></g><g clip-path="url(#__lottie_element_4)" opacity="1" style="display: block;" transform="matrix(1,0,0,1,0,0)"><g opacity="1" style="display: block;" transform="matrix(1,0,0,1,0,4.61175537109375)"><g opacity="1" transform="matrix(1,0,0,1,0,0)"><g opacity="1" transform="matrix(1,0,0,1,818.4580078125,840.75)"><path d=" M142.66700744628906,-8.916999816894531 C142.66700744628906,-8.916999816894531 -124.83300018310547,-8.916999816894531 -124.83300018310547,-8.916999816894531 C-124.83300018310547,-8.916999816894531 -124.83300018310547,-44.58300018310547 -124.83300018310547,-44.58300018310547 C-124.83300018310547,-44.58300018310547 -214,-80.25 -214,-80.25 C-214,-80.25 -214,80.25 -214,80.25 C-214,80.25 -71.33300018310547,80.25 -71.33300018310547,80.25 C-71.33300018310547,70.40599822998047 -63.34400177001953,62.41699981689453 -53.5,62.41699981689453 C-53.5,62.41699981689453 89.16699981689453,62.41699981689453 89.16699981689453,62.41699981689453 C99.01100158691406,62.41699981689453 107,70.40599822998047 107,80.25 C107,80.25 214,80.25 214,80.25 C214,80.25 142.66700744628906,-8.916999816894531 142.66700744628906,-8.916999816894531z" fill="rgb(69,67,90)" fill-opacity="1"></path></g><g opacity="1" transform="matrix(1,0,0,1,836.2919921875,921)"><path d=" M71.33300018310547,-17.83300018310547 C71.33300018310547,-17.83300018310547 -71.33399963378906,-17.83300018310547 -71.33399963378906,-17.83300018310547 C-81.1780014038086,-17.83300018310547 -89.16699981689453,-9.843999862670898 -89.16699981689453,0 C-89.16699981689453,9.843999862670898 -81.1780014038086,17.83300018310547 -71.33399963378906,17.83300018310547 C-71.33399963378906,17.83300018310547 71.33300018310547,17.83300018310547 71.33300018310547,17.83300018310547 C81.177001953125,17.83300018310547 89.16600036621094,9.843999862670898 89.16600036621094,0 C89.16600036621094,-9.843999862670898 81.177001953125,-17.83300018310547 71.33300018310547,-17.83300018310547z" fill="rgb(28,26,54)" fill-opacity="1"></path></g><g opacity="1" transform="matrix(1,0,0,1,577.7080078125,885.3330078125)"><path d=" M-8.916999816894531,-17.83300018310547 C-8.916999816894531,-17.83300018310547 26.75,-17.83300018310547 26.75,-17.83300018310547 C26.75,-17.83300018310547 26.75,17.83300018310547 26.75,17.83300018310547 C26.75,17.83300018310547 -8.916999816894531,17.83300018310547 -8.916999816894531,17.83300018310547 C-18.766000747680664,17.83300018310547 -26.75,9.850000381469727 -26.75,0 C-26.75,-9.848999977111816 -18.766000747680664,-17.83300018310547 -8.916999816894531,-17.83300018310547z" fill="rgb(28,26,54)" fill-opacity="1"></path></g><g opacity="1" transform="matrix(1,0,0,1,809.5419921875,867.5)"><path d=" M115.91699981689453,-8.916999816894531 C115.91699981689453,-8.916999816894531 -115.91699981689453,-8.916999816894531 -115.91699981689453,-8.916999816894531 C-120.83899688720703,-8.916999816894531 -124.83300018310547,-4.921999931335449 -124.83300018310547,0 C-124.83300018310547,4.921999931335449 -120.83899688720703,8.916999816894531 -115.91699981689453,8.916999816894531 C-115.91699981689453,8.916999816894531 115.91699981689453,8.916999816894531 115.91699981689453,8.916999816894531 C120.83899688720703,8.916999816894531 124.83300018310547,4.921999931335449 124.83300018310547,0 C124.83300018310547,-4.921999931335449 120.83899688720703,-8.916999816894531 115.91699981689453,-8.916999816894531z" fill="rgb(28,26,54)" fill-opacity="1"></path></g></g></g></g></g></svg>