<?xml version="1.0" encoding="UTF-8"?>
<svg width="32px" height="53px" viewBox="0 0 32 53" version="1.1" xmlns="http://www.w3.org/2000/svg" xmlns:xlink="http://www.w3.org/1999/xlink">
    <!-- Generator: Sketch 45.2 (43514) - http://www.bohemiancoding.com/sketch -->
    <title>Ending image</title>
    <desc>Created with Sketch.</desc>
    <defs>
        <filter x="-29.2%" y="-11.1%" width="158.3%" height="131.1%" filterUnits="objectBoundingBox" id="filter-1">
            <feOffset dx="0" dy="2" in="SourceAlpha" result="shadowOffsetOuter1"></feOffset>
            <feGaussianBlur stdDeviation="2" in="shadowOffsetOuter1" result="shadowBlurOuter1"></feGaussianBlur>
            <feColorMatrix values="0 0 0 0 0   0 0 0 0 0   0 0 0 0 0  0 0 0 0.5 0" type="matrix" in="shadowBlurOuter1" result="shadowMatrixOuter1"></feColorMatrix>
            <feMerge>
                <feMergeNode in="shadowMatrixOuter1"></feMergeNode>
                <feMergeNode in="SourceGraphic"></feMergeNode>
            </feMerge>
        </filter>
    </defs>
    <g id="Page-1" stroke="none" stroke-width="1" fill="none" fill-rule="evenodd">
        <g id="Creation-Page" transform="translate(-341.000000, -755.000000)">
            <g id="Screen-Section" transform="translate(180.000000, 751.000000)">
                <g id="Ending" transform="translate(147.000000, 6.000000)">
                    <g id="Ending-image" filter="url(#filter-1)" transform="translate(18.000000, 0.000000)">
                        <path d="M21.9531849,38.191344 L2.01537435,38.191344 L2.01537435,6.27645156 L21.9531849,6.27645156 L21.9531849,38.191344 Z M7.45688511,3.97316658 C6.8954594,3.97316658 6.44919793,3.52690512 6.44919793,2.96547941 C6.44919793,2.41844922 6.8954594,1.95779223 7.45688511,1.95779223 L16.5116742,1.95779223 C17.0730999,1.95779223 17.5193613,2.41844922 17.5193613,2.96547941 C17.5193613,3.52690512 17.0730999,3.97316658 16.5116742,3.97316658 L7.45688511,3.97316658 Z M19.2036385,0 L4.76492079,0 C3.45492746,0 2.26009838,0.532634651 1.39636652,1.39636652 C0.532634651,2.26009838 0,3.45492746 0,4.76492079 L0,40.0195765 C0,41.3295698 0.532634651,42.5243989 1.39636652,43.3881307 C2.26009838,44.2518626 3.45492746,44.7988928 4.76492079,44.7988928 L19.2036385,44.7988928 C20.5136318,44.7988928 21.7084609,44.2518626 22.5721928,43.3881307 C23.4359246,42.5243989 23.9685593,41.3295698 23.9685593,40.0195765 L23.9685593,4.76492079 C23.9685593,3.45492746 23.4359246,2.26009838 22.5721928,1.39636652 C21.7084609,0.532634651 20.5136318,2.39733751e-15 19.2036385,0 Z M10.4799466,41.3727564 C10.4799466,40.5522111 11.1565366,39.8756211 11.9914774,39.8756211 C12.8264182,39.8756211 13.5030082,40.5522111 13.5030082,41.3727564 C13.5030082,42.2076972 12.8264182,42.8842871 11.9914774,42.8842871 C11.1565366,42.8842871 10.4799466,42.2076972 10.4799466,41.3727564 Z" id="Rectangle-3" fill-opacity="0.969259511" fill="#000000"></path>
                        <rect id="Rectangle-3" fill-opacity="0.969259511" fill="#000000" x="1" y="5.86999512" width="21.4300003" height="32.9799995"></rect>
                        <g id="noun_1176703_cc" transform="translate(8.000000, 23.000000)" fill-rule="nonzero" fill="#9B9B9B">
                            <g id="Group" transform="translate(0.000000, 0.067139)">
                                <path d="M3.89473684,0.0381231579 C1.74373263,0.0381231579 0,1.78186 0,3.93286316 C0,6.08385263 1.74373263,7.8276 3.89473684,7.8276 C6.04573895,7.8276 7.78947368,6.08385263 7.78947368,3.93286316 C7.78947368,1.78186 6.04573895,0.0381231579 3.89473684,0.0381231579 Z M5.75657895,2.07101789 L4.56578947,4.60391579 L2.03289474,5.79470526 L3.22368421,3.26180737 L5.75657895,2.07101789 Z M3.89473684,3.51180737 C3.78698,3.51180737 3.67761053,3.55130211 3.59539474,3.63351789 C3.43096316,3.79794737 3.43096316,4.06776842 3.59539474,4.2322 C3.75982632,4.39663158 4.02964737,4.39663158 4.19407895,4.2322 C4.35851053,4.06776842 4.35851053,3.79794737 4.19407895,3.63351789 C4.11186316,3.55130211 4.00249368,3.51180737 3.89473684,3.51180737 Z" id="Shape"></path>
                            </g>
                        </g>
                        <g id="noun_1050697_cc" transform="translate(8.000000, 8.000000)" fill-rule="nonzero" fill="#9B9B9B">
                            <path d="M8.58390403,2.86171383 L5.44857338,0.178 L5.44857338,1.46144667 C4.35310811,1.5714668 0.455287003,2.30420568 0.431,7.178 C0.431,7.178 1.37600729,4.10763708 5.44857338,3.99494539 L5.44857338,5.54554909 L8.58390403,2.86171383 Z" id="Shape"></path>
                        </g>
                    </g>
                </g>
            </g>
        </g>
    </g>
</svg>