<?xml version="1.0" encoding="UTF-8"?>
<svg width="98px" height="98px" viewBox="0 0 98 98" version="1.1" xmlns="http://www.w3.org/2000/svg" xmlns:xlink="http://www.w3.org/1999/xlink">
    <!-- Generator: Sketch 45.2 (43514) - http://www.bohemiancoding.com/sketch -->
    <title>Group</title>
    <desc>Created with Sketch.</desc>
    <defs>
        <filter x="-7.8%" y="-5.6%" width="116.7%" height="115.6%" filterUnits="objectBoundingBox" id="filter-1">
            <feOffset dx="0" dy="2" in="SourceAlpha" result="shadowOffsetOuter1"></feOffset>
            <feGaussianBlur stdDeviation="2" in="shadowOffsetOuter1" result="shadowBlurOuter1"></feGaussianBlur>
            <feColorMatrix values="0 0 0 0 0   0 0 0 0 0   0 0 0 0 0  0 0 0 0.5 0" type="matrix" in="shadowBlurOuter1" result="shadowMatrixOuter1"></feColorMatrix>
            <feMerge>
                <feMergeNode in="shadowMatrixOuter1"></feMergeNode>
                <feMergeNode in="SourceGraphic"></feMergeNode>
            </feMerge>
        </filter>
        <linearGradient x1="0%" y1="0%" x2="101.999998%" y2="100.999999%" id="linearGradient-2">
            <stop stop-color="#3023AE" offset="0%"></stop>
            <stop stop-color="#C86DD7" offset="100%"></stop>
        </linearGradient>
    </defs>
    <g id="Page-1" stroke="none" stroke-width="1" fill="none" fill-rule="evenodd">
        <g id="Creation-Page" transform="translate(-1124.000000, -558.000000)" fill="url(#linearGradient-2)">
            <g id="noun_87963_cc" transform="translate(1128.000000, 560.000000)">
                <g id="Group" filter="url(#filter-1)">
                    <path d="M41.819,89.044 C45.715,78.711 55.864,67.595 55.864,67.595 L22.433,34.163 C22.433,34.163 11.525,43.073 1.145,48.014 C-2.814,49.898 6.749,59.318 9.226,57.667 C11.702,56.016 22.665,45.007 22.665,45.007 C22.665,45.007 15.539,54.581 12.974,59.645 C11.352,62.849 13.63,64.947 14.786,66.199 C24.826,77.069 41.854,93.674 41.819,89.044 Z" id="Shape"></path>
                    <path d="M62.742,60.663 C65.799,57.606 60.706,50.596 58.499,47.571 C56.292,44.546 55.76,39.9 62.445,35.499 C69.676,30.738 78.644,25.217 83.227,20.634 C91.783,12.078 91.131,6.524 87.304,2.697 C83.476,-1.131 77.922,-1.782 69.367,6.774 C64.784,11.357 59.263,20.325 54.502,27.556 C50.1,34.241 45.455,33.709 42.43,31.502 C39.405,29.295 32.395,24.202 29.338,27.259 L25.322,31.275 L58.726,64.679 L62.742,60.663 Z M77.522,12.628 C76.141,11.247 76.141,9.009 77.522,7.628 C78.903,6.247 81.141,6.247 82.522,7.628 C83.903,9.009 83.903,11.247 82.522,12.628 C81.141,14.009 78.903,14.009 77.522,12.628 Z" id="Shape"></path>
                </g>
            </g>
        </g>
    </g>
</svg>