<?xml version="1.0" encoding="UTF-8"?>
<svg width="59px" height="54px" viewBox="0 0 59 54" version="1.1" xmlns="http://www.w3.org/2000/svg" xmlns:xlink="http://www.w3.org/1999/xlink">
    <!-- Generator: Sketch 45.2 (43514) - http://www.bohemiancoding.com/sketch -->
    <title>noun_869490_cc</title>
    <desc>Created with Sketch.</desc>
    <defs>
        <linearGradient x1="50%" y1="0%" x2="50%" y2="100%" id="linearGradient-1">
            <stop stop-color="#74B7FF" offset="0%"></stop>
            <stop stop-color="#4080FF" offset="100%"></stop>
        </linearGradient>
        <path d="M49.854465,0.446 L1.30553496,0.446 C0.904555973,0.446 0.58,0.882931136 0.58,1.42274621 L0.58,44.4692538 C0.58,45.0084177 0.904555973,45.446 1.30553496,45.446 L49.854465,45.446 C50.2549603,45.446 50.58,45.0084177 50.58,44.4692538 L50.58,1.42274621 C50.58,0.8835823 50.2549603,0.446 49.854465,0.446 Z M18.2143691,32.7313691 L18.2143691,23.9230718 L32.9465983,23.9230718 L32.9465983,32.7313691 L18.2143691,32.7313691 Z M32.9461146,13.1612821 L32.9461146,21.9695794 L18.2143691,21.9695794 L18.2143691,13.1612821 L32.9461146,13.1612821 Z M16.7632992,13.1612821 L16.7632992,21.9695794 L2.03106992,21.9695794 L2.03106992,13.1612821 L16.7632992,13.1612821 Z M16.7632992,23.9230718 L16.7632992,32.7313691 L2.03106992,32.7313691 L2.03106992,23.9230718 L16.7632992,23.9230718 Z M18.2143691,34.6848615 L32.9465983,34.6848615 L32.9465983,43.4925076 L18.2143691,43.4925076 L18.2143691,34.6848615 Z M34.3971845,32.7313691 L34.3971845,23.9230718 L49.1289301,23.9230718 L49.1289301,32.7313691 L34.3971845,32.7313691 Z M34.3971845,21.9695794 L34.3971845,13.1612821 L49.1289301,13.1612821 L49.1289301,21.9695794 L34.3971845,21.9695794 Z M2.03106992,34.6848615 L16.7632992,34.6848615 L16.7632992,43.4925076 L2.03106992,43.4925076 L2.03106992,34.6848615 Z M34.3971845,43.4931588 L34.3971845,34.6848615 L49.1289301,34.6848615 L49.1289301,43.4925076 L34.3971845,43.4925076 L34.3971845,43.4931588 Z" id="path-2"></path>
        <filter x="-14.0%" y="-11.1%" width="128.0%" height="131.1%" filterUnits="objectBoundingBox" id="filter-3">
            <feOffset dx="0" dy="2" in="SourceAlpha" result="shadowOffsetOuter1"></feOffset>
            <feGaussianBlur stdDeviation="2" in="shadowOffsetOuter1" result="shadowBlurOuter1"></feGaussianBlur>
            <feColorMatrix values="0 0 0 0 0   0 0 0 0 0   0 0 0 0 0  0 0 0 0.5 0" type="matrix" in="shadowBlurOuter1"></feColorMatrix>
        </filter>
    </defs>
    <g id="Page-1" stroke="none" stroke-width="1" fill="none" fill-rule="evenodd">
        <g id="Creation-Page" transform="translate(-877.000000, -754.000000)" fill-rule="nonzero">
            <g id="Content-Section" transform="translate(742.000000, 738.000000)">
                <g id="Table" transform="translate(137.000000, 18.000000)">
                    <g id="noun_869490_cc" transform="translate(2.000000, 0.000000)">
                        <g id="Shape">
                            <use fill="black" fill-opacity="1" filter="url(#filter-3)" xlink:href="#path-2"></use>
                            <use fill="url(#linearGradient-1)" fill-rule="evenodd" xlink:href="#path-2"></use>
                        </g>
                    </g>
                </g>
            </g>
        </g>
    </g>
</svg>