<?xml version="1.0" encoding="UTF-8"?>
<svg width="91px" height="90px" viewBox="0 0 91 90" version="1.1" xmlns="http://www.w3.org/2000/svg" xmlns:xlink="http://www.w3.org/1999/xlink">
    <!-- Generator: Sketch 45.2 (43514) - http://www.bohemiancoding.com/sketch -->
    <title>Shape</title>
    <desc>Created with Sketch.</desc>
    <defs>
        <linearGradient x1="50%" y1="0%" x2="50%" y2="100%" id="linearGradient-1">
            <stop stop-color="#EEEEEE" offset="0%"></stop>
            <stop stop-color="#D8D8D8" offset="100%"></stop>
        </linearGradient>
        <path d="M69.207522,1.42684 C61.810927,-1.19895 53.250827,0.41294 47.331427,6.33241 C41.411827,12.2518 39.800127,20.81202 42.425827,28.2085 L3.490826,67.1436 C-0.0349741,70.6692 -0.0349741,76.3459 3.490726,79.8715 C7.016326,83.3971 12.692927,83.3971 16.218627,79.8715 L55.153727,40.9364 C62.550222,43.5622 71.110422,41.9503 77.029722,36.03083 C82.949322,30.11143 84.561122,21.55121 81.935322,14.15473 L73.494322,22.59584 C69.968722,26.12147 64.292022,26.12149 60.766427,22.59585 C57.240827,19.07022 57.240727,13.39352 60.766327,9.8679 L69.207522,1.42684 Z" id="path-2"></path>
        <filter x="-8.5%" y="-6.1%" width="117.0%" height="117.0%" filterUnits="objectBoundingBox" id="filter-3">
            <feOffset dx="0" dy="2" in="SourceAlpha" result="shadowOffsetOuter1"></feOffset>
            <feGaussianBlur stdDeviation="2" in="shadowOffsetOuter1" result="shadowBlurOuter1"></feGaussianBlur>
            <feColorMatrix values="0 0 0 0 0   0 0 0 0 0   0 0 0 0 0  0 0 0 0.5 0" type="matrix" in="shadowBlurOuter1"></feColorMatrix>
        </filter>
    </defs>
    <g id="Page-1" stroke="none" stroke-width="1" fill="none" fill-rule="evenodd">
        <g id="Creation-Page" transform="translate(-1125.000000, -463.000000)" fill-rule="nonzero">
            <g id="noun_894567_cc" transform="translate(1128.000000, 464.000000)">
                <g id="Group" transform="translate(0.000000, 0.637820)">
                    <g id="Shape">
                        <use fill="black" fill-opacity="1" filter="url(#filter-3)" xlink:href="#path-2"></use>
                        <use fill="url(#linearGradient-1)" fill-rule="evenodd" xlink:href="#path-2"></use>
                    </g>
                </g>
            </g>
        </g>
    </g>
</svg>