<?xml version="1.0" encoding="UTF-8"?>
<svg width="121px" height="79px" viewBox="0 0 121 79" version="1.1" xmlns="http://www.w3.org/2000/svg" xmlns:xlink="http://www.w3.org/1999/xlink">
    <!-- Generator: Sketch 45.2 (43514) - http://www.bohemiancoding.com/sketch -->
    <title>noun_1197508_cc</title>
    <desc>Created with Sketch.</desc>
    <defs></defs>
    <g id="Page-1" stroke="none" stroke-width="1" fill="none" fill-rule="evenodd">
        <g id="Creation-Page" transform="translate(-193.000000, -202.000000)" fill-rule="nonzero" fill="#BB4A4A">
            <g id="noun_1197508_cc" transform="translate(253.500000, 241.500000) scale(-1, 1) translate(-253.500000, -241.500000) translate(193.000000, 202.000000)">
                <g id="Group" transform="translate(0.241445, 0.000000)">
                    <path d="M119.79771,29.9159174 C119.495905,28.9300951 118.614632,28.2602414 117.612637,28.2602414 L90.8967954,28.2602414 L82.6393911,1.65567604 C82.3375854,0.669853664 81.4563127,0 80.4543178,0 C79.4523228,0 78.5831223,0.669853664 78.2692444,1.65567604 L70.0118401,28.2602414 L43.2959985,28.2602414 C42.3060758,28.2602414 41.4248031,28.9300951 41.1109251,29.9159174 C40.8091194,30.9017398 41.1350696,31.9886722 41.9439089,32.5953321 L63.5652701,49.0383437 L55.3078658,75.6429091 C55.0060601,76.6287315 55.3320103,77.7156638 56.1408496,78.3223238 C56.9496889,78.9289837 58.0361895,78.9289837 58.8329566,78.3223238 L80.4543178,61.8793121 L102.063607,78.3223238 C102.46199,78.6256537 102.932807,78.7773187 103.415696,78.7773187 C103.898585,78.7773187 104.35733,78.6256537 104.767786,78.3223238 C105.576625,77.7156638 105.902575,76.6287315 105.60077,75.6429091 L97.3433654,49.0383437 L118.964727,32.5953321 C119.761494,31.9886722 120.099516,30.9143786 119.79771,29.9159174 Z" id="Shape"></path>
                    <path d="M39.2937234,4.80272439 L67.277149,4.80272439 C68.544733,4.80272439 69.5708724,3.72843077 69.5708724,2.40136219 C69.5708724,1.07429361 68.544733,0 67.277149,0 L39.2937234,0 C38.0261394,0 37,1.07429361 37,2.40136219 C37,3.72843077 38.0261394,4.80272439 39.2937234,4.80272439 Z" id="Shape"></path>
                    <path d="M32.5708724,30.4013622 C32.5708724,29.0742936 31.544733,28 30.277149,28 L2.29372341,28 C1.02613942,28 0,29.0742936 0,30.4013622 C0,31.7284308 1.02613942,32.8027244 2.29372341,32.8027244 L30.277149,32.8027244 C31.544733,32.8027244 32.5708724,31.7284308 32.5708724,30.4013622 Z" id="Shape"></path>
                    <path d="M44.277149,74 L16.2937234,74 C15.0261394,74 14,75.0742936 14,76.4013622 C14,77.7284308 15.0261394,78.8027244 16.2937234,78.8027244 L44.277149,78.8027244 C45.544733,78.8027244 46.5708724,77.7284308 46.5708724,76.4013622 C46.5708724,75.0742936 45.5326608,74 44.277149,74 Z" id="Shape"></path>
                    <path d="M52.277149,46 L24.2937234,46 C23.0261394,46 22,47.0742936 22,48.4013622 C22,49.7284308 23.0261394,50.8027244 24.2937234,50.8027244 L52.277149,50.8027244 C53.544733,50.8027244 54.5708724,49.7284308 54.5708724,48.4013622 C54.5708724,47.0742936 53.544733,46 52.277149,46 Z" id="Shape"></path>
                    <path d="M33.2937234,17.8027244 L61.277149,17.8027244 C62.544733,17.8027244 63.5708724,16.7284308 63.5708724,15.4013622 C63.5708724,14.0742936 62.544733,13 61.277149,13 L33.2937234,13 C32.0261394,13 31,14.0742936 31,15.4013622 C31,16.7284308 32.0261394,17.8027244 33.2937234,17.8027244 Z" id="Shape"></path>
                </g>
            </g>
        </g>
    </g>
</svg>