<?xml version="1.0" encoding="UTF-8"?>
<svg width="83px" height="81px" viewBox="0 0 83 81" version="1.1" xmlns="http://www.w3.org/2000/svg" xmlns:xlink="http://www.w3.org/1999/xlink">
    <!-- Generator: Sketch 63.1 (92452) - https://sketch.com -->
    <title>Group</title>
    <desc>Created with Sketch.</desc>
    <defs>
        <linearGradient x1="0.25781251%" y1="49.7500002%" x2="100%" y2="-39.0014648%" id="linearGradient-1">
            <stop stop-color="#AEA723" offset="0%"></stop>
            <stop stop-color="#53A0FD" offset="47.5247532%"></stop>
            <stop stop-color="#B4EC51" offset="100%"></stop>
        </linearGradient>
    </defs>
    <g id="Page-1" stroke="none" stroke-width="1" fill="none" fill-rule="evenodd">
        <g id="Group" fill="url(#linearGradient-1)" fill-rule="nonzero">
            <path d="M64.0322011,0.211274932 L62.808063,4.11615938 L58.8563361,5.32579175 L62.2226649,7.69187843 L62.1817899,11.7812032 L65.494913,9.33568602 L69.4067186,10.6503282 L68.0761692,6.77169621 L70.5510142,3.49821697 L66.4129655,3.56553096 L64.0322011,0.211274932 Z M25.7252398,7.5343637 L24.5011016,11.4392481 L20.5493066,12.6616702 L23.9289198,15.0149672 L23.8744198,19.1036188 L27.1875429,16.6587748 L31.112701,17.973417 L29.7821516,14.094785 L32.2569966,10.8213057 L28.1189479,10.8886197 L25.7252398,7.5343637 Z M36.9685196,13.3980852 L38.1526683,27.9648322 L26.6964979,37.1942531 L37.0749308,39.6269807 L6.05945976,70.27302 L1.34922914,74.9271092 C0.457835621,75.7709501 0.0982035013,77.0252593 0.409203895,78.205688 C0.720204289,79.3861167 1.65316719,80.3079338 2.84783112,80.6151817 C4.04249506,80.9224296 5.31190109,80.5670256 6.16587101,79.6862081 L10.8761016,75.032119 L42.3839121,43.8993995 L46.428834,54.1937277 L54.1194686,41.71708 L68.8887642,40.9153704 L59.2554805,29.8186595 L63.0343061,15.6988773 L49.3959536,21.3256536 L36.9685196,13.3980852 Z M70.1927449,19.4455739 L69.2879768,22.3118035 L66.3873505,23.2057333 L68.8754799,24.9410879 L68.8346049,27.9385798 L71.2695286,26.1507202 L74.1435861,27.1106177 L73.1722599,24.2706406 L74.9817961,21.8648386 L71.9481218,21.9321526 L70.1927449,19.4455739 Z M75.821028,31.317742 L74.5968899,35.2226264 L70.6318105,36.4450484 L74.0114918,38.8118083 L73.9569918,42.9139227 L77.2967518,40.4684055 L81.2219099,41.7830477 L79.8913605,37.891626 L82.3662055,34.604684 L78.2148043,34.671998 L75.821028,31.317742 Z M64.5245405,48.2909641 L63.3004024,52.2086382 L59.335323,53.4182705 L62.7149361,55.7850304 L62.6604361,59.8864717 L66.0001961,57.4416276 L69.9253543,58.7562698 L68.5948049,54.8776378 L71.0696499,51.5779061 L66.9182486,51.6452201 L64.5245405,48.2909641 Z" id="Shape"></path>
        </g>
    </g>
</svg>