<?xml version="1.0" encoding="UTF-8"?>
<svg width="44px" height="30px" viewBox="0 0 44 30" version="1.1" xmlns="http://www.w3.org/2000/svg" xmlns:xlink="http://www.w3.org/1999/xlink">
    <!-- Generator: Sketch 45.2 (43514) - http://www.bohemiancoding.com/sketch -->
    <title>Shape</title>
    <desc>Created with Sketch.</desc>
    <defs></defs>
    <g id="Page-1" stroke="none" stroke-width="1" fill="none" fill-rule="evenodd">
        <g id="noun_Eye_3011919" transform="translate(-2.000000, 0.000000)" fill-rule="nonzero" fill="#ffffff">
            <path d="M24,0 C14,0 5.5,6.2 2,15 C5.5,23.8 14,30 24,30 C34,30 42.5,23.8 46,15 C42.5,6.2 34,0 24,0 Z M24,25 C18.5,25 14,20.5 14,15 C14,9.5 18.5,5 24,5 C29.5,5 34,9.5 34,15 C34,20.5 29.5,25 24,25 Z M24,9 C20.7,9 18,11.7 18,15 C18,18.3 20.7,21 24,21 C27.3,21 30,18.3 30,15 C30,11.7 27.3,9 24,9 Z" id="Shape"></path>
        </g>
    </g>
</svg>