<?xml version="1.0" encoding="UTF-8"?>
<svg width="47px" height="47px" viewBox="0 0 47 47" version="1.1" xmlns="http://www.w3.org/2000/svg" xmlns:xlink="http://www.w3.org/1999/xlink">
    <!-- Generator: Sketch 45.2 (43514) - http://www.bohemiancoding.com/sketch -->
    <title>Shape</title>
    <desc>Created with Sketch.</desc>
    <defs>
        <radialGradient cx="50%" cy="47.2507556%" fx="50%" fy="47.2507556%" r="44.2990174%" id="radialGradient-1">
            <stop stop-color="#74B7FF" offset="0%"></stop>
            <stop stop-color="#4080FF" offset="100%"></stop>
        </radialGradient>
    </defs>
    <g id="Page-1" stroke="none" stroke-width="1" fill="none" fill-rule="evenodd">
        <g id="Creation-Page" transform="translate(-949.000000, -750.000000)" fill-rule="nonzero" fill="url(#radialGradient-1)">
            <g id="Content-Section" transform="translate(53.000000, 140.000000)">
                <g id="noun_658942_cc" transform="translate(896.000000, 610.000000)">
                    <g id="Group" transform="translate(0.013493, 0.037436)">
                        <path d="M20.0870042,43.6065688 C17.8507949,41.3668998 16.7336653,40.2813207 16.6011448,40.219152 C16.414627,40.131654 16.1987508,40.1276171 11.6500558,40.1265913 C8.01710008,40.1257722 6.88017203,40.1117073 6.83548108,40.0670163 C6.79079012,40.0223254 6.77672133,38.8853934 6.77590224,35.2524417 C6.77488813,30.7037466 6.7708434,30.4878703 6.68334149,30.3013524 C6.62117278,30.168828 5.53559369,29.0517024 3.29592863,26.8154892 C1.48316788,25.005529 0,23.491618 0,23.4512487 C0,23.4108755 1.48316788,21.8969646 3.29592863,20.0870043 C5.53559369,17.8507911 6.62117278,16.7336655 6.68334149,16.6011411 C6.7708434,16.4146232 6.77488033,16.198747 6.77590224,11.6500519 C6.77672133,8.01710008 6.79079012,6.88016813 6.83548108,6.83547718 C6.88017203,6.79078622 8.01710008,6.77671743 11.6500558,6.77590224 C16.1987508,6.77488813 16.414627,6.7708395 16.6011448,6.68334149 C16.7336653,6.62117278 17.8507949,5.53559369 20.0870042,3.29592473 C21.8969685,1.48316788 23.4108755,0 23.4512487,0 C23.4916219,0 25.005529,1.48316788 26.8154931,3.29592473 C29.0517024,5.53559369 30.168832,6.62117278 30.3013524,6.68334149 C30.4878703,6.7708395 30.7037466,6.77487643 35.2524417,6.77590224 C38.8853973,6.77672133 40.0223254,6.79078622 40.0670163,6.83547718 C40.1117073,6.88016813 40.1257761,8.01710008 40.1265952,11.6500519 C40.1276093,16.198747 40.131654,16.4146232 40.2191559,16.6011411 C40.2813246,16.7336655 41.3668998,17.8507911 43.6065688,20.0870043 C45.4193295,21.8969646 46.9024935,23.4108755 46.9024935,23.4512487 C46.9024935,23.491618 45.4193295,25.005529 43.6065688,26.8154892 C41.3668998,29.0517024 40.2813246,30.168828 40.2191559,30.3013524 C40.131654,30.4878703 40.1276171,30.7037466 40.1265952,35.2524417 C40.1257761,38.8853934 40.1117073,40.0223254 40.0670163,40.0670163 C40.0223254,40.1117073 38.8853973,40.1257761 35.2524417,40.1265913 C30.7037466,40.1276054 30.4878703,40.131654 30.3013524,40.219152 C30.168832,40.2813207 29.0517024,41.3668998 26.8154931,43.6065688 C25.005529,45.4193256 23.4916219,46.9024935 23.4512487,46.9024935 C23.4108755,46.9024935 21.8969685,45.4193256 20.0870042,43.6065688 Z" id="Shape"></path>
                    </g>
                </g>
            </g>
        </g>
    </g>
</svg>