<?xml version="1.0" encoding="UTF-8"?>
<svg width="176px" height="250px" viewBox="0 0 176 250" version="1.1" xmlns="http://www.w3.org/2000/svg" xmlns:xlink="http://www.w3.org/1999/xlink">
    <!-- Generator: Sketch 45.2 (43514) - http://www.bohemiancoding.com/sketch -->
    <title>noun_430419_cc</title>
    <desc>Created with Sketch.</desc>
    <defs>
        <filter x="-14.0%" y="-8.4%" width="128.0%" height="117.8%" filterUnits="objectBoundingBox" id="filter-1">
            <feOffset dx="0" dy="0" in="SourceAlpha" result="shadowOffsetOuter1"></feOffset>
            <feGaussianBlur stdDeviation="5" in="shadowOffsetOuter1" result="shadowBlurOuter1"></feGaussianBlur>
            <feColorMatrix values="0 0 0 0 1   0 0 0 0 1   0 0 0 0 1  0 0 0 1 0" type="matrix" in="shadowBlurOuter1" result="shadowMatrixOuter1"></feColorMatrix>
            <feMerge>
                <feMergeNode in="shadowMatrixOuter1"></feMergeNode>
                <feMergeNode in="SourceGraphic"></feMergeNode>
            </feMerge>
        </filter>
        <path d="M75,224.054687 C95.35,224.054687 112,216.30809 112,206.840027 L38,206.840027 C38,216.30809 54.65,224.054687 75,224.054687 Z" id="path-2"></path>
        <filter x="-9.5%" y="-29.0%" width="118.9%" height="181.3%" filterUnits="objectBoundingBox" id="filter-3">
            <feOffset dx="0" dy="2" in="SourceAlpha" result="shadowOffsetOuter1"></feOffset>
            <feGaussianBlur stdDeviation="2" in="shadowOffsetOuter1" result="shadowBlurOuter1"></feGaussianBlur>
            <feColorMatrix values="0 0 0 0 1   0 0 0 0 1   0 0 0 0 1  0 0 0 1 0" type="matrix" in="shadowBlurOuter1"></feColorMatrix>
        </filter>
        <path d="M79.1751705,0.133067154 C77.8189958,0.0522763819 76.441631,-2.84217094e-14 75.05579,-2.84217094e-14 C75.05579,-2.84217094e-14 72.3773451,0.0332667885 71.1567879,0.109305162 C31.5141081,2.38570397 -1.42108547e-14,39.1312481 -1.42108547e-14,84.1554701 C-1.42108547e-14,108.597055 12.7692318,131.779254 27.7168191,149.429661 C30.5181674,152.395158 34.2518857,157.009737 36.1801965,162.237375 C37.985604,167.127593 38.4475509,173.424521 38.4263607,180.429556 L38.4263607,187.063904 L38.4263607,205.070741 L54.484316,205.070741 L74.8438877,205.070741 L95.4323139,205.070741 L111.469079,205.070741 L111.469079,187.068656 L111.469079,180.434308 C111.439413,173.424521 111.92255,167.132345 113.723719,162.242127 C115.656268,157.000232 119.38151,152.395158 122.187097,149.429661 C137.130446,131.779254 149.899678,108.58755 149.899678,84.1554701 C149.899678,39.2880772 118.614424,2.66134308 79.1751705,0.133067154 Z" id="path-4"></path>
        <filter x="-5.7%" y="-3.2%" width="111.3%" height="108.3%" filterUnits="objectBoundingBox" id="filter-5">
            <feMorphology radius="1.5" operator="dilate" in="SourceAlpha" result="shadowSpreadOuter1"></feMorphology>
            <feOffset dx="0" dy="2" in="shadowSpreadOuter1" result="shadowOffsetOuter1"></feOffset>
            <feGaussianBlur stdDeviation="2" in="shadowOffsetOuter1" result="shadowBlurOuter1"></feGaussianBlur>
            <feComposite in="shadowBlurOuter1" in2="SourceAlpha" operator="out" result="shadowBlurOuter1"></feComposite>
            <feColorMatrix values="0 0 0 0 1   0 0 0 0 1   0 0 0 0 1  0 0 0 1 0" type="matrix" in="shadowBlurOuter1"></feColorMatrix>
        </filter>
    </defs>
    <g id="Page-1" stroke="none" stroke-width="1" fill="none" fill-rule="evenodd">
        <g id="Home-Connexion-Page" transform="translate(-141.000000, -549.000000)">
            <g id="Menu-bar" transform="translate(51.000000, 21.000000)">
                <g id="noun_430419_cc" filter="url(#filter-1)" transform="translate(103.000000, 540.000000)">
                    <g id="Shape" fill-rule="nonzero">
                        <use fill="black" fill-opacity="1" filter="url(#filter-3)" xlink:href="#path-2"></use>
                        <use fill="#FFFFFF" fill-rule="evenodd" xlink:href="#path-2"></use>
                    </g>
                    <g id="Shape" stroke-linecap="round" stroke-linejoin="round">
                        <use fill="black" fill-opacity="1" filter="url(#filter-5)" xlink:href="#path-4"></use>
                        <use stroke="#FFFFFF" stroke-width="3" fill="#FFFFFF" fill-rule="evenodd" xlink:href="#path-4"></use>
                    </g>
                </g>
            </g>
        </g>
    </g>
</svg>