<?xml version="1.0" encoding="UTF-8"?>
<svg width="328px" height="248px" viewBox="0 0 328 248" version="1.1" xmlns="http://www.w3.org/2000/svg" xmlns:xlink="http://www.w3.org/1999/xlink">
    <!-- Generator: Sketch 45.2 (43514) - http://www.bohemiancoding.com/sketch -->
    <title>New Summary</title>
    <desc>Created with Sketch.</desc>
    <defs>
        <filter x="-2.2%" y="-2.1%" width="104.4%" height="106.2%" filterUnits="objectBoundingBox" id="filter-1">
            <feOffset dx="0" dy="2" in="SourceAlpha" result="shadowOffsetOuter1"></feOffset>
            <feGaussianBlur stdDeviation="2" in="shadowOffsetOuter1" result="shadowBlurOuter1"></feGaussianBlur>
            <feColorMatrix values="0 0 0 0 0   0 0 0 0 0   0 0 0 0 0  0 0 0 0.5 0" type="matrix" in="shadowBlurOuter1" result="shadowMatrixOuter1"></feColorMatrix>
            <feMerge>
                <feMergeNode in="shadowMatrixOuter1"></feMergeNode>
                <feMergeNode in="SourceGraphic"></feMergeNode>
            </feMerge>
        </filter>
        <rect id="path-2" x="0" y="0" width="320" height="240" rx="5"></rect>
        <path d="M160.097159,167.876906 C160.818895,167.876906 161.403977,167.31159 161.403977,166.614238 L161.403977,121.701122 L207.8875,121.701122 C208.609236,121.701122 209.194318,121.135806 209.194318,120.438453 C209.194318,119.741101 208.609236,119.175785 207.8875,119.175785 L161.403977,119.175785 L161.403977,74.2626684 C161.403977,73.5653159 160.818895,73 160.097159,73 C159.375423,73 158.790341,73.5653159 158.790341,74.2626684 L158.790341,119.175785 L112.306818,119.175785 C111.585082,119.175785 111,119.741101 111,120.438453 C111,121.135806 111.585082,121.701122 112.306818,121.701122 L158.790341,121.701122 L158.790341,166.614238 C158.790341,167.31159 159.375423,167.876906 160.097159,167.876906 Z" id="path-4"></path>
    </defs>
    <g id="Page-1" stroke="none" stroke-width="1" fill="none" fill-rule="evenodd">
        <g id="Home-Connexion-Page" transform="translate(-47.000000, -119.000000)">
            <g id="New-Summary" filter="url(#filter-1)" transform="translate(51.000000, 121.000000)">
                <mask id="mask-3" fill="white">
                    <use xlink:href="#path-2"></use>
                </mask>
                <rect stroke="#FFFFFF" stroke-width="2" x="1" y="1" width="318" height="238" rx="5"></rect>
                <text id="NEW-SUMMARY-PROJECT" mask="url(#mask-3)" font-family="AvenirNext-UltraLight, Avenir Next" font-size="16" font-weight="200" fill="#FFFFFF">
                    <tspan x="64.1716562" y="199">NEW SUMMARY PROJECT</tspan>
                </text>
                <g id="Shape" mask="url(#mask-3)" fill-rule="nonzero">
                    <use fill="#FFFFFF" fill-rule="evenodd" xlink:href="#path-4"></use>
                    <path d="M160.097159,167.876906 C160.818895,167.876906 161.403977,167.31159 161.403977,166.614238 L161.403977,121.701122 L207.8875,121.701122 C208.609236,121.701122 209.194318,121.135806 209.194318,120.438453 C209.194318,119.741101 208.609236,119.175785 207.8875,119.175785 L161.403977,119.175785 L161.403977,74.2626684 C161.403977,73.5653159 160.818895,73 160.097159,73 C159.375423,73 158.790341,73.5653159 158.790341,74.2626684 L158.790341,119.175785 L112.306818,119.175785 C111.585082,119.175785 111,119.741101 111,120.438453 C111,121.135806 111.585082,121.701122 112.306818,121.701122 L158.790341,121.701122 L158.790341,166.614238 C158.790341,167.31159 159.375423,167.876906 160.097159,167.876906 Z"></path>
                </g>
            </g>
        </g>
    </g>
</svg>