<svg xmlns="http://www.w3.org/2000/svg" xmlns:xlink="http://www.w3.org/1999/xlink" width="300px" height="220px" viewBox="0 0 300 220" version="1.1">
    <!-- Generator: Sketch 45.2 (43514) - http://www.bohemiancoding.com/sketch -->
    <defs/>
    <g id="Page-1" stroke="none" stroke-width="1" fill="none" fill-rule="evenodd">
        <path d="M150,9.99999997e-06 C173.015667,9.99999997e-06 196.093333,8.69827667 213.646,26.25001 C227.266667,39.8710433 235.382,56.91351 238.437333,74.5833433 C273.290667,80.2443767 300,110.27171 300,146.66671 C300,187.088377 267.088333,220.000043 226.666667,220.000043 L63.3333333,220.000043 C28.362,220.000043 0,191.638043 0,156.66671 C0,122.621043 26.9346667,95.0925767 60.625,93.64591 C59.65,69.3899767 67.977,44.7314767 86.4583333,26.2500433 C103.999667,8.70817667 126.984333,4.33333332e-05 150,4.33333332e-05 L150,9.99999997e-06 Z M150,13.3333433 C130.361667,13.3333433 110.834667,20.7276767 95.8333333,35.7291767 C78.495,53.0674433 71.256,76.6129767 73.9583333,99.1665767 C74.1985195,101.073965 73.6037017,102.992198 72.3265074,104.429067 C71.049313,105.865937 69.2140603,106.681581 67.2916667,106.66671 L63.3333333,106.66671 C35.518,106.66671 13.3333333,128.851377 13.3333333,156.66671 C13.3333333,184.482043 35.518,206.66671 63.3333333,206.66671 L226.666667,206.66671 C259.882333,206.66671 286.666667,179.882377 286.666667,146.66671 C286.666667,115.302377 262.771333,89.6515767 232.187333,86.8750433 C229.048131,86.6024754 226.528341,84.1694412 226.146,81.04171 C224.222667,64.4741433 216.999667,48.45781 204.270667,35.72921 C189.279333,20.73761 169.638333,13.3333767 150,13.3333767 L150,13.3333433 Z M150,80.00001 C151.783,80.0333433 153.526667,80.79401 154.479333,81.6666767 L191.146,115.000043 C193.885667,117.38471 194.018667,121.881377 191.666667,124.479377 C189.314333,127.077043 184.775333,127.25871 182.187333,124.896043 L156.666667,101.666577 L156.666667,173.333377 C156.666667,177.015377 153.682667,180.000043 150,180.000043 C146.317333,180.000043 143.333333,177.015377 143.333333,173.333377 L143.333333,101.666577 L117.812667,124.896043 C115.224667,127.25871 110.809333,126.95971 108.333333,124.479377 C105.766333,121.908377 106.245667,117.34071 108.854,115.000043 L145.520667,81.66671 C146.988333,80.32571 148.230667,79.9943767 150,80.0000433 L150,80.00001 Z" id="Shape" fill="rgba(255, 255, 255, 0.5)" fill-rule="nonzero"/>
    </g>
</svg>