<?xml version="1.0" encoding="UTF-8"?>
<svg width="48px" height="47px" viewBox="0 0 48 47" version="1.1" xmlns="http://www.w3.org/2000/svg" xmlns:xlink="http://www.w3.org/1999/xlink">
    <!-- Generator: Sketch 63.1 (92452) - https://sketch.com -->
    <title>Shape</title>
    <desc>Created with Sketch.</desc>
    <g id="Page-1" stroke="none" stroke-width="1" fill="rgba(255, 255, 255, 0.5)" fill-rule="evenodd">
        <path d="M9.49386586,0.568018556 C11.5704084,2.56204517 13.7656108,4.63426883 15.8421539,6.64784472 C13.7062811,8.66142045 11.5901849,10.6749967 9.4740893,12.6885724 L19.6392603,12.6885724 L26.0271014,6.64784472 L19.6194837,0.548469276 C16.7321007,0.568018556 12.2823661,0.568018556 9.49386586,0.568018556 Z M22.8430694,0.548469276 C24.9789416,2.58159441 27.1148143,4.5951703 29.23091,6.64784472 C27.0950378,8.66142045 24.9789416,10.6749967 22.862846,12.6885724 L33.0280169,12.6885724 L39.415858,6.64784472 L33.0082404,0.548469276 L22.8430694,0.548469276 Z M36.2318255,0.548469276 C38.3676982,2.58159441 40.503571,4.5951703 42.6196666,6.64784472 C40.503571,8.66142045 38.3874748,10.6749967 36.251602,12.6885724 L47.4451563,12.6885724 L47.4451563,11.0464329 C47.4451563,4.41922679 42.4219005,0.568018556 36.2318255,0.548469276 Z M7.08112074,1.36953907 C3.24446099,2.93348147 0.554843721,6.66739397 0.554843721,11.0464329 L0.554843721,12.6885724 L6.25050363,12.6885724 L12.6185682,6.64784472 L7.08112074,1.36953907 Z M0.554843721,14.8976411 L0.554843721,36.4213984 C0.554843721,42.2275347 5.28145055,46.8998127 11.1353235,46.8998127 L36.8448999,46.8998127 C42.7185494,46.8998127 47.4451563,42.2275347 47.4451563,36.4213984 L47.4451563,14.8976411 L0.554843721,14.8976411 Z M16.7321007,19.4526232 C21.9333455,22.5805084 27.1345909,25.6888439 32.3556123,28.8167286 C33.06757,29.2859115 32.9686873,30.3806712 32.3556123,30.7521073 C27.1543674,33.8995413 21.953122,37.0274265 16.7518772,40.1748604 C16.0992491,40.5853956 15.1104195,39.9793675 15.1104195,39.1778469 C15.1301944,32.9220776 15.1104195,26.6858569 15.1104195,20.4300875 C15.6048346,19.8045107 16.1190262,19.2962293 16.7321007,19.4526232 Z" id="Shape" fill="rgba(255, 255, 255, 0.5)" fill-rule="nonzero"></path>
    </g>
</svg>