<?xml version="1.0" encoding="UTF-8"?>
<svg width="88px" height="89px" viewBox="0 0 88 89" version="1.1" xmlns="http://www.w3.org/2000/svg" xmlns:xlink="http://www.w3.org/1999/xlink">
    <!-- Generator: Sketch 63.1 (92452) - https://sketch.com -->
    <title>Group</title>
    <desc>Created with Sketch.</desc>
    <g id="Page-1" stroke="none" stroke-width="1" fill="rgba(255, 255, 255, 0.5)" fill-rule="evenodd">
        <g id="Group" transform="translate(0.000000, 0.637820)" fill="rgba(255, 255, 255, 0.5)" fill-rule="nonzero">
            <path d="M66.75,0.29968 C66.1655031,0.378374955 65.6467463,0.747268675 65.34375,1.29968 L55.84375,19.29968 L46.34375,37.29968 C45.9935308,37.9480491 45.9889063,38.7522994 46.3316417,39.4054367 C46.6743771,40.058574 47.3115722,40.4597883 48,40.4559576 L67,40.4559576 L86,40.4559576 C86.6884278,40.4597883 87.3256229,40.058574 87.6683583,39.4054367 C88.0110937,38.7522994 88.0064692,37.9480491 87.65625,37.29968 L78.15625,19.29968 L68.65625,1.29968 C68.262324,0.577516727 67.5113949,0.183586691 66.75,0.29968 Z M13,0.36218 C5.832596,0.36218 0,6.19478 0,13.36218 L0,29.36218 C0,36.52958 5.832596,42.36218 13,42.36218 L29,42.36218 C36.167404,42.36218 42,36.52958 42,29.36218 L42,13.36218 C42,6.19478 36.167404,0.36218 29,0.36218 L13,0.36218 Z M13,4.36218 L29,4.36218 C34.020593,4.36218 38,8.34159 38,13.36218 L38,29.36218 C38,34.38277 34.020593,38.36218 29,38.36218 L13,38.36218 C7.979407,38.36218 4,34.38277 4,29.36218 L4,13.36218 C4,8.34159 7.979407,4.36218 13,4.36218 Z M67,6.51843 L74.84375,21.42468 L82.65625,36.26843 L67,36.26843 L51.34375,36.26843 L59.15625,21.42468 L67,6.51843 Z M21,46.36218 C9.425709,46.36218 0,55.78788 0,67.36218 C0,78.93648 9.425709,88.36218 21,88.36218 C32.574291,88.36218 42,78.93648 42,67.36218 C42,55.78788 32.574291,46.36218 21,46.36218 Z M59,46.36218 C51.832596,46.36218 46,52.19478 46,59.36218 L46,75.36218 C46,82.52958 51.832596,88.36218 59,88.36218 L75,88.36218 C82.167404,88.36218 88,82.52958 88,75.36218 L88,59.36218 C88,52.19478 82.167404,46.36218 75,46.36218 L59,46.36218 Z M21,50.36218 C30.41253,50.36218 38,57.94968 38,67.36218 C38,76.77468 30.41253,84.36218 21,84.36218 C11.587471,84.36218 4,76.77468 4,67.36218 C4,57.94968 11.587471,50.36218 21,50.36218 Z M59,50.36218 L75,50.36218 C80.020593,50.36218 84,54.34158 84,59.36218 L84,75.36218 C84,80.38278 80.020593,84.36218 75,84.36218 L59,84.36218 C53.979407,84.36218 50,80.38278 50,75.36218 L50,59.36218 C50,54.34158 53.979407,50.36218 59,50.36218 Z" id="Shape"></path>
        </g>
    </g>
</svg>