<?xml version="1.0" encoding="UTF-8"?>
<svg width="10px" height="16px" viewBox="0 0 10 16" version="1.1" xmlns="http://www.w3.org/2000/svg" xmlns:xlink="http://www.w3.org/1999/xlink">
    <!-- Generator: Sketch 45.2 (43514) - http://www.bohemiancoding.com/sketch -->
    <title>Shape</title>
    <desc>Created with Sketch.</desc>
    <defs></defs>
    <g id="Page-1" stroke="none" stroke-width="1" fill="none" fill-rule="evenodd">
        <path d="M7.60142214,6.19700017 L7.60142214,2.56832843 C7.60142214,1.1522108 6.40733334,0 4.93990574,0 C3.47228949,0 2.27838933,1.1522108 2.27838933,2.56832843 L2.27838933,5.37377686 L3.42739326,5.37377686 L3.42739326,2.56832843 C3.42739326,1.76868508 4.10592998,1.11806703 4.93990574,1.11806703 C5.7738815,1.11806703 6.45241821,1.76868508 6.45241821,2.56832843 L6.45241821,6.08928694 L3.07369397,6.08928694 C1.37612603,6.08928694 0,7.46541297 0,9.16298092 L0,12.017287 C0,13.7150436 1.37612603,15.0911696 3.07369397,15.0911696 L6.8061175,15.0911696 C8.50387408,15.0911696 9.88000011,13.7150436 9.88000011,12.017287 L9.88000011,9.16298092 C9.88000011,7.74101546 8.91303342,6.5480585 7.60142214,6.19700017 Z M5.24323825,10.8624353 L5.24323825,11.6120891 C5.24323825,11.7799784 5.10722908,11.9154216 4.93952846,11.9154216 C4.77201648,11.9154216 4.63600731,11.7797897 4.63600731,11.6120891 L4.63600731,10.8624353 C4.32890201,10.74114 4.11158916,10.443278 4.11158916,10.0935402 C4.11158916,9.63590045 4.48207738,9.26503495 4.93952846,9.26503495 C5.39697954,9.26503495 5.76803367,9.63590045 5.76803367,10.0935402 C5.76822231,10.443278 5.55034355,10.74114 5.24323825,10.8624353 Z" id="Shape" fill="#000000" fill-rule="nonzero"></path>
    </g>
</svg>