<?xml version="1.0" encoding="UTF-8"?>
<svg width="10px" height="15px" viewBox="0 0 10 15" version="1.1" xmlns="http://www.w3.org/2000/svg" xmlns:xlink="http://www.w3.org/1999/xlink">
    <!-- Generator: Sketch 45.2 (43514) - http://www.bohemiancoding.com/sketch -->
    <title>Shape</title>
    <desc>Created with Sketch.</desc>
    <defs></defs>
    <g id="Page-1" stroke="none" stroke-width="1" fill="none" fill-rule="evenodd">
        <path d="M7.66053571,5.39482143 L7.66053571,2.56732143 C7.66053571,1.15178571 6.46696429,0 5,0 C3.53285714,0 2.33946429,1.15178571 2.33946429,2.56732143 L2.33946429,5.39464286 C1.02857143,5.74553571 0.0617857143,6.93821429 0.0617857143,8.35964286 L0.0617857143,11.2128571 C0.0617857143,12.9101786 1.4375,14.2857143 3.13446429,14.2857143 L6.86571429,14.2857143 C8.56267857,14.2857143 9.93839286,12.9101786 9.93839286,11.2130357 L9.93839286,8.35982143 C9.93821429,6.93839286 8.97142857,5.74571429 7.66053571,5.39482143 Z M5.30321429,10.0585714 L5.30321429,10.8076786 C5.30321429,10.9753571 5.16714286,11.1110714 4.99964286,11.1110714 C4.83214286,11.1110714 4.69625,10.9753571 4.69625,10.8076786 L4.69625,10.0585714 C4.38928571,9.93714286 4.17196429,9.63964286 4.17196429,9.28982143 C4.17196429,8.83232143 4.54232143,8.46142857 4.99964286,8.46142857 C5.45714286,8.46142857 5.82803571,8.83232143 5.82803571,9.28982143 C5.82803571,9.63964286 5.61017857,9.93714286 5.30321429,10.0585714 Z M6.51196429,5.28714286 L3.48803571,5.28714286 L3.48803571,2.56732143 C3.48803571,1.76803571 4.16625,1.11767857 5,1.11767857 C5.83357143,1.11767857 6.51196429,1.76803571 6.51196429,2.56732143 L6.51196429,5.28714286 Z" id="Shape" fill="#000000" fill-rule="nonzero"></path>
    </g>
</svg>