<?xml version="1.0" encoding="UTF-8"?>
<svg width="76px" height="78px" viewBox="0 0 76 78" version="1.1" xmlns="http://www.w3.org/2000/svg" xmlns:xlink="http://www.w3.org/1999/xlink">
    <!-- Generator: Sketch 45.2 (43514) - http://www.bohemiancoding.com/sketch -->
    <title>projects</title>
    <desc>Created with Sketch.</desc>
    <defs>
        <path d="M2,0 L54.7832031,0 C55.8877726,-2.02906125e-16 56.7832031,0.8954305 56.7832031,2 L56.7832031,75 C56.7832031,76.1045695 55.8877726,77 54.7832031,77 L2,77 L2,77 C0.8954305,77 1.3527075e-16,76.1045695 0,75 L0,2 L0,2 C-1.3527075e-16,0.8954305 0.8954305,2.02906125e-16 2,0 L2,0 Z M27.9287273,57.3700996 C31.7395273,57.3700996 34.8574546,56.1182607 34.8574546,54.5882353 L21,54.5882353 C21,56.1182607 24.1179273,57.3700996 27.9287273,57.3700996 Z M28.8265721,20.7273858 C28.5726109,20.7143301 28.3146815,20.7058824 28.0551649,20.7058824 C28.0551649,20.7058824 27.5535916,20.7112582 27.3250265,20.7235459 C19.9014233,21.0914087 14,27.0294355 14,34.3052848 C14,38.2550096 16.3912034,42.0012195 19.1903319,44.8534999 C19.7149205,45.3327198 20.4141075,46.0784291 20.7752085,46.9232079 C21.1132944,47.71346 21.1997999,48.7310345 21.1958318,49.863038 L21.1958318,50.9351391 L21.1958318,53.845018 L24.2028911,53.845018 L28.0154835,53.845018 L31.8709319,53.845018 L34.8740231,53.845018 L34.8740231,50.9359071 L34.8740231,49.863806 C34.8684677,48.7310345 34.9589413,47.714228 35.2962335,46.9239759 C35.6581283,46.0768931 36.3557279,45.3327198 36.8811101,44.8534999 C39.6794451,42.0012195 42.0706485,38.2534736 42.0706485,34.3052848 C42.0706485,27.0547789 36.2120811,21.1359516 28.8265721,20.7273858 Z" id="path-1"></path>
        <filter x="-1.8%" y="-1.3%" width="103.5%" height="105.2%" filterUnits="objectBoundingBox" id="filter-2">
            <feOffset dx="0" dy="2" in="SourceAlpha" result="shadowOffsetOuter1"></feOffset>
            <feColorMatrix values="0 0 0 0 1   0 0 0 0 1   0 0 0 0 1  0 0 0 1 0" type="matrix" in="shadowOffsetOuter1"></feColorMatrix>
        </filter>
    </defs>
    <g id="Page-1" stroke="none" stroke-width="1" fill="none" fill-rule="evenodd">
        <g id="Home-Connexion-Page" transform="translate(-32.000000, -506.000000)" fill-rule="nonzero">
            <g id="projects" transform="translate(32.000000, 505.000000)">
                <g id="Combined-Shape" fill-opacity="1" fill="black">
                    <use filter="url(#filter-2)" xlink:href="#path-1"></use>
                </g>
                <path d="M65.0016475,77.5255285 C65.0016475,78.2748579 66.173018,78.8823529 67.617873,78.8823529 L72.5537746,78.8823529 C73.9986296,78.8823529 75.1700001,78.2748579 75.1700001,77.5255285 L75.1700001,75.9986738 L75.1700001,72.5211704 L75.1700001,68.4105392 L75.1700001,11.8801753 L71.8156958,5.02428155 L70.1616087,1.9099081 C70.1401912,1.87316789 70.0314564,1.87316789 70.0100389,1.9099081 L68.3707792,5.02428155 L65,11.8801753 L65,13.0413367 L65.0016475,75.9986738 L65.0016475,77.5255285 Z" id="Shape" fill="#FFFFFF" transform="translate(70.085000, 40.382353) rotate(180.000000) translate(-70.085000, -40.382353) "></path>
            </g>
        </g>
    </g>
</svg>