<?xml version="1.0" encoding="UTF-8"?>
<svg width="87px" height="62px" viewBox="0 0 87 62" version="1.1" xmlns="http://www.w3.org/2000/svg" xmlns:xlink="http://www.w3.org/1999/xlink">
    <!-- Generator: Sketch 45.2 (43514) - http://www.bohemiancoding.com/sketch -->
    <title>right_aligment</title>
    <desc>Created with Sketch.</desc>
    <defs></defs>
    <g id="Page-1" stroke="none" stroke-width="1" fill="none" fill-rule="evenodd">
        <g id="right_aligment" transform="translate(0.000000, -1.000000)" fill-rule="nonzero" fill="#000000">
            <g id="Group" transform="translate(0.000000, 0.637820)">
                <path d="M21.8125,0.36218 C21.2602153,0.413956712 20.8544733,0.90364526 20.90625,1.45593 C20.9580267,2.00821473 21.4477153,2.41395668 22,2.36218 L86,2.36218 C86.3606359,2.36728029 86.6960814,2.1778047 86.8778877,1.86630715 C87.0596941,1.5548096 87.0596941,1.1695504 86.8778877,0.85805285 C86.6960814,0.546555296 86.3606359,0.35707971 86,0.36218 L22,0.36218 C21.9376379,0.356308283 21.8748621,0.356308283 21.8125,0.36218 Z M1.8125,12.36218 C1.26021525,12.4139567 0.854473305,12.9036453 0.90625,13.45593 C0.958026695,14.0082147 1.44771525,14.4139567 2,14.36218 L86,14.36218 C86.3606359,14.3672803 86.6960814,14.1778047 86.8778877,13.8663072 C87.0596941,13.5548096 87.0596941,13.1695504 86.8778877,12.8580528 C86.6960814,12.5465553 86.3606359,12.3570797 86,12.36218 L2,12.36218 C1.93763791,12.3563083 1.87486209,12.3563083 1.8125,12.36218 Z M21.8125,24.36218 C21.2602153,24.4139567 20.8544733,24.9036453 20.90625,25.45593 C20.9580267,26.0082147 21.4477153,26.4139567 22,26.36218 L86,26.36218 C86.3606359,26.3672803 86.6960814,26.1778047 86.8778877,25.8663072 C87.0596941,25.5548096 87.0596941,25.1695504 86.8778877,24.8580528 C86.6960814,24.5465553 86.3606359,24.3570797 86,24.36218 L22,24.36218 C21.9376379,24.3563083 21.8748621,24.3563083 21.8125,24.36218 Z M1.8125,36.36218 C1.26021526,36.4139567 0.854473336,36.9036453 0.90625003,37.45593 C0.958026724,38.0082147 1.44771526,38.4139567 2,38.36218 L86,38.36218 C86.3606359,38.3672803 86.6960814,38.1778047 86.8778877,37.8663072 C87.0596941,37.5548096 87.0596941,37.1695504 86.8778877,36.8580528 C86.6960814,36.5465553 86.3606359,36.3570797 86,36.36218 L2,36.36218 C1.93763791,36.3563083 1.87486209,36.3563083 1.8125,36.36218 L1.8125,36.36218 Z M21.8125,48.36218 C21.2602153,48.4139567 20.8544733,48.9036453 20.90625,49.45593 C20.9580267,50.0082147 21.4477153,50.4139567 22,50.36218 L86,50.36218 C86.3606359,50.3672803 86.6960814,50.1778047 86.8778877,49.8663072 C87.0596941,49.5548096 87.0596941,49.1695504 86.8778877,48.8580528 C86.6960814,48.5465553 86.3606359,48.3570797 86,48.36218 L22,48.36218 C21.9376379,48.3563083 21.8748621,48.3563083 21.8125,48.36218 Z M1.8125,60.36218 C1.26021526,60.4139567 0.854473336,60.9036453 0.90625003,61.45593 C0.958026724,62.0082147 1.44771526,62.4139567 2,62.36218 L86,62.36218 C86.3606359,62.3672803 86.6960814,62.1778047 86.8778877,61.8663072 C87.0596941,61.5548096 87.0596941,61.1695504 86.8778877,60.8580528 C86.6960814,60.5465553 86.3606359,60.3570797 86,60.36218 L2,60.36218 C1.93763791,60.3563083 1.87486209,60.3563083 1.8125,60.36218 Z" id="Shape"></path>
            </g>
        </g>
    </g>
</svg>