<?xml version="1.0" encoding="UTF-8"?>
<svg width="86px" height="86px" viewBox="0 0 86 86" version="1.1" xmlns="http://www.w3.org/2000/svg" xmlns:xlink="http://www.w3.org/1999/xlink">
    <!-- Generator: Sketch 45.2 (43514) - http://www.bohemiancoding.com/sketch -->
    <title>tutorials</title>
    <desc>Created with Sketch.</desc>
    <defs></defs>
    <g id="Page-1" stroke="none" stroke-width="1" fill="none" fill-rule="evenodd" fill-opacity="0.75">
        <g id="Home-Connexion-Page" transform="translate(-64.000000, -656.000000)" fill="#FFFFFF">
            <g id="tutorials" transform="translate(64.246094, 656.671722)">
                <path d="M34.6715364,60.414119 L6.24691818,60.414119 C2.91033852,60.414119 0.205506283,57.7092868 0.205506283,54.3727071 L0.205506283,6.0414119 C0.205506283,2.70483224 2.91033852,0 6.24691818,0 L78.743861,0 C82.0804406,0 84.7852729,2.70483224 84.7852729,6.0414119 L84.7852729,54.3727071 C84.7852729,57.7092868 82.0804406,60.414119 78.743861,60.414119 L50.3192427,60.414119 L62.7573429,70.8509242 C64.0353269,71.9232802 64.2020215,73.8286074 63.1296655,75.1065917 C62.0573094,76.3845756 60.1519822,76.5512703 58.8739983,75.4789142 L45.5160955,64.270303 L45.5160955,81.5590606 C45.5160955,83.2273503 44.1636793,84.5797666 42.4953896,84.5797666 C40.8270999,84.5797666 39.4746836,83.2273503 39.4746836,81.5590606 L39.4746836,64.270303 L26.1167809,75.4789142 C24.8387969,76.5512703 22.9334696,76.3845756 21.8611136,75.1065917 C20.7887576,73.8286074 20.9554521,71.9232802 22.2334363,70.8509242 L34.6715364,60.414119 Z M53.0287414,31.9555311 C53.340944,31.7771294 53.5996847,31.5183887 53.7780861,31.2061861 C54.3298884,30.2405319 53.9943955,29.0103905 53.0287414,28.4585879 L37.9565554,19.8459103 C37.6522742,19.6720353 37.3078847,19.5805778 36.9574288,19.5805778 C35.8452354,19.5805778 34.9436247,20.4821886 34.9436247,21.5943818 L34.9436247,38.8197371 C34.9436247,39.1701933 35.0350823,39.5145825 35.2089572,39.8188637 C35.7607595,40.7845178 36.9909012,41.120011 37.9565554,40.5682087 L53.0287414,31.9555311 Z" id="Combined-Shape"></path>
            </g>
        </g>
    </g>
</svg>