<svg xmlns="http://www.w3.org/2000/svg" viewBox="0 0 1440 320"><path fill="white" fill-opacity="1" d="M0,128L30,122.7C60,117,120,107,180,112C240,117,300,139,360,138.7C420,139,480,117,540,128C600,139,660,181,720,176C780,171,840,117,900,106.7C960,96,1020,128,1080,122.7C1140,117,1200,75,1260,69.3C1320,64,1380,96,1410,112L1440,128L1440,320L1410,320C1380,320,1320,320,1260,320C1200,320,1140,320,1080,320C1020,320,960,320,900,320C840,320,780,320,720,320C660,320,600,320,540,320C480,320,420,320,360,320C300,320,240,320,180,320C120,320,60,320,30,320L0,320Z"></path></svg>